<?xml version="1.0" encoding="UTF-8" standalone="no"?>
<!-- Created with Inkscape (http://www.inkscape.org/) -->
<svg   xmlns:dc="http://purl.org/dc/elements/1.1/"   xmlns:cc="http://creativecommons.org/ns#"   xmlns:rdf="http://www.w3.org/1999/02/22-rdf-syntax-ns#"   xmlns:svg="http://www.w3.org/2000/svg"   xmlns="http://www.w3.org/2000/svg"   xmlns:sodipodi="http://sodipodi.sourceforge.net/DTD/sodipodi-0.dtd"   xmlns:inkscape="http://www.inkscape.org/namespaces/inkscape"   width="152.92331mm"   height="84.351059mm"   viewBox="0 0 152.92331 84.351059"   version="1.1"   id="svg8"   inkscape:version="0.92.1 r15371"   sodipodi:docname="Vector Multimeter File.svg">
	<defs	 id="defs2">
		<rect	   height="836.94"	   		width="594.65997"	   y="2.4890001"	   x="0.18000001"		id="SVGID_1_" />
		<rect	   height="0.54000002"	   	width="0.54000002"	 	y="2.4890001"	   x="594.29999"	 	id="SVGID_3_" />
		<rect	   height="0.54000002"	   	width="0.54000002"	 	y="2.4890001"	   x="0.18000001"		id="SVGID_5_" />
		<rect	   height="0.54000002"	   	width="594.65997"	   y="2.4890001"	   x="0.18000001"		id="SVGID_7_" />
		<rect	   height="0.54000002"	   	width="0.54000002"	 	y="838.89001"	   x="594.29999"	   id="SVGID_1_-4" />
		<rect	   height="0.54000002"	   	width="594.65997"	   y="838.89001"	   x="0.18000001"	 	id="SVGID_3_-3" />
		<rect	   height="836.94"	   		width="594.65997"	   y="2.4890001"	   x="0.18000001"	 	id="SVGID_5_-3" />
		<rect	   height="0.54000002"	   	width="0.54000002"		y="838.89001"	   x="594.29999"	   id="SVGID_1_-3" />
		<rect	   height="0.54000002"	   	width="594.65997"	   y="838.89001"	   x="0.18000001"	 	id="SVGID_3_-5" />
		<rect	   height="836.94"	   		width="594.65997"	   y="2.4890001"	   x="0.18000001"	 	id="SVGID_5_-0" />
	</defs>
	<sodipodi:namedview	 id="base"	 pagecolor="#ffffff"	 bordercolor="#666666"	 borderopacity="1.0"	 inkscape:pageopacity="0.0"	 inkscape:pageshadow="2"	 inkscape:zoom="1"	 inkscape:cx="148.0714"	 inkscape:cy="78.025395"	 inkscape:document-units="mm"	 inkscape:current-layer="layer1"	 showgrid="false"	 inkscape:window-width="1920"	 inkscape:window-height="1017"	 inkscape:window-x="1912"	 inkscape:window-y="-8"	 inkscape:window-maximized="1" />
	<metadata	 id="metadata5">
		<rdf:RDF>
			<cc:Work		 rdf:about="">
				<dc:format>image/svg+xml</dc:format>
				<dc:type		   rdf:resource="http://purl.org/dc/dcmitype/StillImage" />
				<dc:title />
			</cc:Work>
		</rdf:RDF>
	</metadata>  
	<g	 inkscape:label="Layer 1"	 inkscape:groupmode="layer"	 id="layer1"	 transform="translate(-24.575937,-125.35773)">
		<path	   style="clip-rule:evenodd;fill-rule:evenodd;stroke-width:1.57926965"	   d="M 55.019531 279.24609 L 55.019531 293.65039 L 58.619141 293.65039 L 58.619141 279.24609 L 55.019531 279.24609 z M 142.10156 279.24609 L 142.10156 293.65039 L 145.70117 293.65039 L 145.70117 279.24609 L 142.10156 279.24609 z M 229.18164 279.24609 L 229.18164 293.65039 L 232.78125 293.65039 L 232.78125 279.24609 L 229.18164 279.24609 z M 316.26172 279.24609 L 316.26172 293.65039 L 319.86328 293.65039 L 319.86328 279.24609 L 316.26172 279.24609 z M 403.34375 279.24609 L 403.34375 293.65039 L 406.94336 293.65039 L 406.94336 279.24609 L 403.34375 279.24609 z M 490.42383 279.24609 L 490.42383 293.65039 L 494.02539 293.65039 L 494.02539 279.24609 L 490.42383 279.24609 z M 72.455078 283.79492 L 72.455078 293.65039 L 76.054688 293.65039 L 76.054688 283.79492 L 72.455078 283.79492 z M 89.888672 283.79492 L 89.888672 293.65039 L 93.490234 293.65039 L 93.490234 283.79492 L 89.888672 283.79492 z M 107.23047 283.79492 L 107.23047 293.65039 L 110.92578 293.65039 L 110.92578 283.79492 L 107.23047 283.79492 z M 124.66406 283.79492 L 124.66406 293.65039 L 128.26562 293.65039 L 128.26562 283.79492 L 124.66406 283.79492 z M 159.53516 283.79492 L 159.53516 293.65039 L 163.13477 293.65039 L 163.13477 283.79492 L 159.53516 283.79492 z M 176.875 283.79492 L 176.875 293.65039 L 180.57031 293.65039 L 180.57031 283.79492 L 176.875 283.79492 z M 194.31055 283.79492 L 194.31055 293.65039 L 198.00586 293.65039 L 198.00586 283.79492 L 194.31055 283.79492 z M 211.74609 283.79492 L 211.74609 293.65039 L 215.3457 293.65039 L 215.3457 283.79492 L 211.74609 283.79492 z M 246.61523 283.79492 L 246.61523 293.65039 L 250.2168 293.65039 L 250.2168 283.79492 L 246.61523 283.79492 z M 263.95703 283.79492 L 263.95703 293.65039 L 267.65234 293.65039 L 267.65234 283.79492 L 263.95703 283.79492 z M 281.39258 283.79492 L 281.39258 293.65039 L 284.99219 293.65039 L 284.99219 283.79492 L 281.39258 283.79492 z M 298.82617 283.79492 L 298.82617 293.65039 L 302.42773 293.65039 L 302.42773 283.79492 L 298.82617 283.79492 z M 333.69727 283.79492 L 333.69727 293.65039 L 337.29883 293.65039 L 337.29883 283.79492 L 333.69727 283.79492 z M 351.03711 283.79492 L 351.03711 293.65039 L 354.73242 293.65039 L 354.73242 283.79492 L 351.03711 283.79492 z M 368.4707 283.79492 L 368.4707 293.65039 L 372.07227 293.65039 L 372.07227 283.79492 L 368.4707 283.79492 z M 385.90625 283.79492 L 385.90625 293.65039 L 389.50781 293.65039 L 389.50781 283.79492 L 385.90625 283.79492 z M 420.68164 283.79492 L 420.68164 293.65039 L 424.37695 293.65039 L 424.37695 283.79492 L 420.68164 283.79492 z M 438.11914 283.79492 L 438.11914 293.65039 L 441.71875 293.65039 L 441.71875 283.79492 L 438.11914 283.79492 z M 455.55273 283.79492 L 455.55273 293.65039 L 459.15234 293.65039 L 459.15234 283.79492 L 455.55273 283.79492 z M 472.98828 283.79492 L 472.98828 293.65039 L 476.58984 293.65039 L 476.58984 283.79492 L 472.98828 283.79492 z "	   transform="matrix(0.26458333,0,0,0.26458333,24.575937,125.35773)"	   id="path6145" />
	</g>
</svg>