<?xml version="1.0" encoding="UTF-8" standalone="no"?><!-- Created with Inkscape (http://www.inkscape.org/) --><svg   xmlns:dc="http://purl.org/dc/elements/1.1/"   xmlns:cc="http://creativecommons.org/ns#"   xmlns:rdf="http://www.w3.org/1999/02/22-rdf-syntax-ns#"   xmlns:svg="http://www.w3.org/2000/svg"   xmlns="http://www.w3.org/2000/svg"   xmlns:sodipodi="http://sodipodi.sourceforge.net/DTD/sodipodi-0.dtd"   xmlns:inkscape="http://www.inkscape.org/namespaces/inkscape"   width="152.92331mm"   height="84.351059mm"   viewBox="0 0 152.92331 84.351059"   version="1.1"   id="svg8"   inkscape:version="0.92.1 r15371"   sodipodi:docname="Vector Multimeter File.svg">  <defs	 id="defs2">	<rect	   height="836.94"	   width="594.65997"	   y="2.4890001"	   x="0.18000001"	   id="SVGID_1_" />	<rect	   height="0.54000002"	   width="0.54000002"	   y="2.4890001"	   x="594.29999"	   id="SVGID_3_" />	<rect	   height="0.54000002"	   width="0.54000002"	   y="2.4890001"	   x="0.18000001"	   id="SVGID_5_" />	<rect	   height="0.54000002"	   width="594.65997"	   y="2.4890001"	   x="0.18000001"	   id="SVGID_7_" />	<rect	   height="0.54000002"	   width="0.54000002"	   y="838.89001"	   x="594.29999"	   id="SVGID_1_-4" />	<rect	   height="0.54000002"	   width="594.65997"	   y="838.89001"	   x="0.18000001"	   id="SVGID_3_-3" />	<rect	   height="836.94"	   width="594.65997"	   y="2.4890001"	   x="0.18000001"	   id="SVGID_5_-3" />	<rect	   height="0.54000002"	   width="0.54000002"	   y="838.89001"	   x="594.29999"	   id="SVGID_1_-3" />	<rect	   height="0.54000002"	   width="594.65997"	   y="838.89001"	   x="0.18000001"	   id="SVGID_3_-5" />	<rect	   height="836.94"	   width="594.65997"	   y="2.4890001"	   x="0.18000001"	   id="SVGID_5_-0" />  </defs>  <sodipodi:namedview	 id="base"	 pagecolor="#ffffff"	 bordercolor="#666666"	 borderopacity="1.0"	 inkscape:pageopacity="0.0"	 inkscape:pageshadow="2"	 inkscape:zoom="1"	 inkscape:cx="148.0714"	 inkscape:cy="78.025395"	 inkscape:document-units="mm"	 inkscape:current-layer="layer1"	 showgrid="false"	 inkscape:window-width="1920"	 inkscape:window-height="1017"	 inkscape:window-x="1912"	 inkscape:window-y="-8"	 inkscape:window-maximized="1" />  <metadata	 id="metadata5">	<rdf:RDF>	  <cc:Work		 rdf:about="">		<dc:format>image/svg+xml</dc:format>		<dc:type		   rdf:resource="http://purl.org/dc/dcmitype/StillImage" />		<dc:title />	  </cc:Work>	</rdf:RDF>  </metadata>  <g	 inkscape:label="Layer 1"	 inkscape:groupmode="layer"	 id="layer1"	 transform="translate(-24.575937,-125.35773)">	<path	   style="clip-rule:evenodd;fill-rule:evenodd;stroke-width:1.57926965"	   d="M 355.58594 82.34375 L 355.01758 82.4375 C 353.44303 82.480133 351.98944 83.386951 351.03711 84.617188 L 350.75391 85.091797 L 350.18555 86.511719 L 350.08984 87.082031 L 350.08984 104.80078 C 350.41205 106.62799 351.03071 107.61798 352.55469 108.68555 C 353.26853 108.97612 354.20426 109.55712 355.01758 109.44336 L 355.49219 109.53906 L 388.27539 109.53906 L 388.8457 109.44336 C 390.4455 109.42442 391.81985 108.45759 392.82422 107.26367 L 393.10938 106.79102 L 393.67773 105.36914 L 393.77344 104.89453 L 393.77344 87.082031 C 393.53181 85.559638 392.74255 84.006405 391.30859 83.291016 C 390.57423 82.804439 389.71586 82.532366 388.8457 82.4375 L 388.37109 82.34375 L 355.58594 82.34375 z M 362.59766 86.986328 L 365.91211 86.986328 L 374.1582 105.74805 L 370.83984 105.74805 L 369.22852 102.14648 L 359.28125 102.14648 L 357.76562 105.74805 L 354.44922 105.74805 L 362.59766 86.986328 z M 364.30273 90.777344 L 360.70312 99.019531 L 367.90234 99.019531 L 364.30273 90.777344 z M 376.33594 94.283203 L 389.41211 94.283203 L 389.41211 97.410156 L 376.33594 97.410156 L 376.33594 94.283203 z "	   transform="matrix(0.26458333,0,0,0.26458333,24.575937,125.35773)"	   id="path6065" />  </g></svg>
