<?xml version="1.0" encoding="UTF-8" standalone="no"?>
<!-- Created with Inkscape (http://www.inkscape.org/) -->

<svg
   xmlns:dc="http://purl.org/dc/elements/1.1/"
   xmlns:cc="http://creativecommons.org/ns#"
   xmlns:rdf="http://www.w3.org/1999/02/22-rdf-syntax-ns#"
   xmlns:svg="http://www.w3.org/2000/svg"
   xmlns="http://www.w3.org/2000/svg"
   xmlns:sodipodi="http://sodipodi.sourceforge.net/DTD/sodipodi-0.dtd"
   xmlns:inkscape="http://www.inkscape.org/namespaces/inkscape"
   width="152.92331mm"
   height="84.351059mm"
   viewBox="0 0 152.92331 84.351059"
   version="1.1"
   id="svg8"
   inkscape:version="0.92.1 r15371"
   sodipodi:docname="DC+AC.svg">
  <defs
	 id="defs2">
	<rect
	   height="836.94"
	   width="594.65997"
	   y="2.4890001"
	   x="0.18000001"
	   id="SVGID_1_" />
	<rect
	   height="0.54000002"
	   width="0.54000002"
	   y="2.4890001"
	   x="594.29999"
	   id="SVGID_3_" />
	<rect
	   height="0.54000002"
	   width="0.54000002"
	   y="2.4890001"
	   x="0.18000001"
	   id="SVGID_5_" />
	<rect
	   height="0.54000002"
	   width="594.65997"
	   y="2.4890001"
	   x="0.18000001"
	   id="SVGID_7_" />
	<rect
	   height="0.54000002"
	   width="0.54000002"
	   y="838.89001"
	   x="594.29999"
	   id="SVGID_1_-4" />
	<rect
	   height="0.54000002"
	   width="594.65997"
	   y="838.89001"
	   x="0.18000001"
	   id="SVGID_3_-3" />
	<rect
	   height="836.94"
	   width="594.65997"
	   y="2.4890001"
	   x="0.18000001"
	   id="SVGID_5_-3" />
	<rect
	   height="0.54000002"
	   width="0.54000002"
	   y="838.89001"
	   x="594.29999"
	   id="SVGID_1_-3" />
	<rect
	   height="0.54000002"
	   width="594.65997"
	   y="838.89001"
	   x="0.18000001"
	   id="SVGID_3_-5" />
	<rect
	   height="836.94"
	   width="594.65997"
	   y="2.4890001"
	   x="0.18000001"
	   id="SVGID_5_-0" />
  </defs>
  <sodipodi:namedview
	 id="base"
	 pagecolor="#ffffff"
	 bordercolor="#666666"
	 borderopacity="1.0"
	 inkscape:pageopacity="0.0"
	 inkscape:pageshadow="2"
	 inkscape:zoom="5.6568542"
	 inkscape:cx="185.09288"
	 inkscape:cy="192.65358"
	 inkscape:document-units="mm"
	 inkscape:current-layer="layer1"
	 showgrid="false"
	 inkscape:window-width="1920"
	 inkscape:window-height="1017"
	 inkscape:window-x="1912"
	 inkscape:window-y="-8"
	 inkscape:window-maximized="1" />
  <metadata
	 id="metadata5">
	<rdf:RDF>
	  <cc:Work
		 rdf:about="">
		<dc:format>image/svg+xml</dc:format>
		<dc:type
		   rdf:resource="http://purl.org/dc/dcmitype/StillImage" />
		<dc:title />
	  </cc:Work>
	</rdf:RDF>
  </metadata>
  <g
	 inkscape:label="Layer 1"
	 inkscape:groupmode="layer"
	 id="layer1"
	 transform="translate(-24.575937,-125.35773)">
	<path
	   style="clip-rule:evenodd;fill-rule:evenodd;stroke-width:1.57926965"
	   d="m 169.87695,84.6875 c -5.02668,-0.09379 -10.01806,4.128357 -9.48828,11.111328 1.05812,10.669572 14.36587,12.522272 18.09766,2.369141 h -3.79102 l -0.66211,1.042969 c -4.14712,5.105762 -10.70456,1.105122 -10.23242,-5.117188 0.76747,-6.258671 7.687,-8.486524 10.89453,-2.654297 h 3.79102 c -1.71494,-4.603965 -5.17007,-6.68778 -8.60938,-6.751953 z"
	   transform="matrix(0.26458333,0,0,0.26458333,24.575937,125.35773)"
	   id="path66" />
	<path
	   style="clip-rule:evenodd;fill-rule:evenodd;stroke-width:1.57926965"
	   d="M 148.63867 84.712891 L 141.05859 104.89453 L 144.56445 104.89453 L 145.98438 100.91602 L 154.70312 100.91602 L 156.21875 104.89453 L 159.72656 104.89453 L 152.14453 84.712891 L 148.63867 84.712891 z M 150.34375 89.355469 L 153.4707 97.599609 L 147.2168 97.599609 L 150.34375 89.355469 z "
	   transform="matrix(0.26458333,0,0,0.26458333,24.575937,125.35773)"
	   id="path64" />
  </g>
</svg>
