<?xml version="1.0" encoding="UTF-8" standalone="no"?><!-- Created with Inkscape (http://www.inkscape.org/) --><svg   xmlns:dc="http://purl.org/dc/elements/1.1/"   xmlns:cc="http://creativecommons.org/ns#"   xmlns:rdf="http://www.w3.org/1999/02/22-rdf-syntax-ns#"   xmlns:svg="http://www.w3.org/2000/svg"   xmlns="http://www.w3.org/2000/svg"   xmlns:sodipodi="http://sodipodi.sourceforge.net/DTD/sodipodi-0.dtd"   xmlns:inkscape="http://www.inkscape.org/namespaces/inkscape"   width="152.92331mm"   height="84.351059mm"   viewBox="0 0 152.92331 84.351059"   version="1.1"   id="svg8"   inkscape:version="0.92.1 r15371"   sodipodi:docname="Vector Multimeter File.svg">  <defs	 id="defs2">	<rect	   height="836.94"	   width="594.65997"	   y="2.4890001"	   x="0.18000001"	   id="SVGID_1_" />	<rect	   height="0.54000002"	   width="0.54000002"	   y="2.4890001"	   x="594.29999"	   id="SVGID_3_" />	<rect	   height="0.54000002"	   width="0.54000002"	   y="2.4890001"	   x="0.18000001"	   id="SVGID_5_" />	<rect	   height="0.54000002"	   width="594.65997"	   y="2.4890001"	   x="0.18000001"	   id="SVGID_7_" />	<rect	   height="0.54000002"	   width="0.54000002"	   y="838.89001"	   x="594.29999"	   id="SVGID_1_-4" />	<rect	   height="0.54000002"	   width="594.65997"	   y="838.89001"	   x="0.18000001"	   id="SVGID_3_-3" />	<rect	   height="836.94"	   width="594.65997"	   y="2.4890001"	   x="0.18000001"	   id="SVGID_5_-3" />	<rect	   height="0.54000002"	   width="0.54000002"	   y="838.89001"	   x="594.29999"	   id="SVGID_1_-3" />	<rect	   height="0.54000002"	   width="594.65997"	   y="838.89001"	   x="0.18000001"	   id="SVGID_3_-5" />	<rect	   height="836.94"	   width="594.65997"	   y="2.4890001"	   x="0.18000001"	   id="SVGID_5_-0" />  </defs>  <sodipodi:namedview	 id="base"	 pagecolor="#ffffff"	 bordercolor="#666666"	 borderopacity="1.0"	 inkscape:pageopacity="0.0"	 inkscape:pageshadow="2"	 inkscape:zoom="1"	 inkscape:cx="148.0714"	 inkscape:cy="78.025395"	 inkscape:document-units="mm"	 inkscape:current-layer="layer1"	 showgrid="false"	 inkscape:window-width="1920"	 inkscape:window-height="1017"	 inkscape:window-x="1912"	 inkscape:window-y="-8"	 inkscape:window-maximized="1" />  <metadata	 id="metadata5">	<rdf:RDF>	  <cc:Work		 rdf:about="">		<dc:format>image/svg+xml</dc:format>		<dc:type		   rdf:resource="http://purl.org/dc/dcmitype/StillImage" />		<dc:title />	  </cc:Work>	</rdf:RDF>  </metadata>  <g	 inkscape:label="Layer 1"	 inkscape:groupmode="layer"	 id="layer1"	 transform="translate(-24.575937,-125.35773)">	<path	   style="clip-rule:evenodd;fill-rule:evenodd;stroke-width:1.57926965"	   d="M 7.1679688 153.88477 L 0.53515625 172.45703 L 4.609375 172.45703 L 5.8417969 168.66602 L 12.664062 168.66602 L 13.894531 172.45703 L 18.066406 172.45703 L 11.525391 153.88477 L 7.1679688 153.88477 z M 9.3476562 158.14844 L 11.621094 165.44531 L 6.8828125 165.44531 L 9.3476562 158.14844 z M 41.332031 158.18164 C 39.731894 158.16521 37.96405 158.71915 36.162109 160.04297 C 33.415753 162.84462 33.37795 167.73201 35.783203 170.75 C 37.670435 173.54844 43.878322 173.63873 45.921875 171.13086 C 50.617761 165.57873 47.046807 158.24033 41.332031 158.18164 z M 26.837891 158.41211 C 25.446214 158.51634 24.061175 159.23042 22.990234 160.70703 L 22.990234 158.7168 L 19.580078 158.7168 L 19.580078 177.85742 L 23.085938 177.85742 L 23.085938 170.75 L 23.181641 170.8457 L 23.558594 171.32031 L 23.84375 171.69922 L 23.845703 171.69922 C 28.624576 175.07097 33.466011 170.72715 32.84375 164.9707 C 32.993627 160.90674 29.89958 158.1828 26.837891 158.41211 z M 40.9375 161.26953 C 41.570369 161.28676 42.287736 161.5192 43.080078 162.0332 C 45.629029 164.73851 44.241005 171.81106 39.384766 169.51953 C 36.553178 167.37019 37.520006 161.17651 40.9375 161.26953 z M 25.822266 161.48242 C 27.938038 161.29838 29.989364 164.20622 28.958984 167.24414 C 27.051268 172.72737 21.482327 168.87087 23.181641 163.92773 C 23.886393 162.28727 24.860551 161.56608 25.822266 161.48242 z "	   transform="matrix(0.26458333,0,0,0.26458333,24.575937,125.35773)"	   id="path5883" />  </g></svg>
