<?xml version="1.0" encoding="UTF-8" standalone="no"?><!-- Created with Inkscape (http://www.inkscape.org/) --><svg   xmlns:dc="http://purl.org/dc/elements/1.1/"   xmlns:cc="http://creativecommons.org/ns#"   xmlns:rdf="http://www.w3.org/1999/02/22-rdf-syntax-ns#"   xmlns:svg="http://www.w3.org/2000/svg"   xmlns="http://www.w3.org/2000/svg"   xmlns:sodipodi="http://sodipodi.sourceforge.net/DTD/sodipodi-0.dtd"   xmlns:inkscape="http://www.inkscape.org/namespaces/inkscape"   width="152.92331mm"   height="84.351059mm"   viewBox="0 0 152.92331 84.351059"   version="1.1"   id="svg8"   inkscape:version="0.92.1 r15371"   sodipodi:docname="Vector Multimeter File.svg">  <defs	 id="defs2">	<rect	   height="836.94"	   width="594.65997"	   y="2.4890001"	   x="0.18000001"	   id="SVGID_1_" />	<rect	   height="0.54000002"	   width="0.54000002"	   y="2.4890001"	   x="594.29999"	   id="SVGID_3_" />	<rect	   height="0.54000002"	   width="0.54000002"	   y="2.4890001"	   x="0.18000001"	   id="SVGID_5_" />	<rect	   height="0.54000002"	   width="594.65997"	   y="2.4890001"	   x="0.18000001"	   id="SVGID_7_" />	<rect	   height="0.54000002"	   width="0.54000002"	   y="838.89001"	   x="594.29999"	   id="SVGID_1_-4" />	<rect	   height="0.54000002"	   width="594.65997"	   y="838.89001"	   x="0.18000001"	   id="SVGID_3_-3" />	<rect	   height="836.94"	   width="594.65997"	   y="2.4890001"	   x="0.18000001"	   id="SVGID_5_-3" />	<rect	   height="0.54000002"	   width="0.54000002"	   y="838.89001"	   x="594.29999"	   id="SVGID_1_-3" />	<rect	   height="0.54000002"	   width="594.65997"	   y="838.89001"	   x="0.18000001"	   id="SVGID_3_-5" />	<rect	   height="836.94"	   width="594.65997"	   y="2.4890001"	   x="0.18000001"	   id="SVGID_5_-0" />  </defs>  <sodipodi:namedview	 id="base"	 pagecolor="#ffffff"	 bordercolor="#666666"	 borderopacity="1.0"	 inkscape:pageopacity="0.0"	 inkscape:pageshadow="2"	 inkscape:zoom="1"	 inkscape:cx="148.0714"	 inkscape:cy="78.025395"	 inkscape:document-units="mm"	 inkscape:current-layer="layer1"	 showgrid="false"	 inkscape:window-width="1920"	 inkscape:window-height="1017"	 inkscape:window-x="1912"	 inkscape:window-y="-8"	 inkscape:window-maximized="1" />  <metadata	 id="metadata5">	<rdf:RDF>	  <cc:Work		 rdf:about="">		<dc:format>image/svg+xml</dc:format>		<dc:type		   rdf:resource="http://purl.org/dc/dcmitype/StillImage" />		<dc:title />	  </cc:Work>	</rdf:RDF>  </metadata>  <g	 inkscape:label="Layer 1"	 inkscape:groupmode="layer"	 id="layer1"	 transform="translate(-24.575937,-125.35773)">	<path	   style="clip-rule:evenodd;fill-rule:evenodd;stroke-width:1.57926965"	   d="M 5.1796875 79.878906 L 4.7050781 79.974609 C 3.3168954 80.3094 1.6491081 81.528689 1.1972656 82.912109 C -0.83060209 88.000525 0.24527197 99.016602 0.63085938 102.7168 C 0.8882452 104.24871 1.6907717 105.71719 3 106.60156 C 3.7311874 107.10855 4.5943174 107.32689 5.4628906 107.45312 L 67.623047 107.45312 L 68.191406 107.35938 C 69.735948 106.92666 71.022885 105.89377 71.697266 104.42188 C 73.567187 99.292414 72.099704 88.955443 72.265625 84.617188 C 71.902412 83.104243 71.201953 81.537877 69.802734 80.732422 C 69.068372 80.245883 68.209967 79.973772 67.339844 79.878906 L 5.1796875 79.878906 z M 60.648438 84.675781 C 63.382749 84.544223 66.213537 85.611897 67.714844 87.839844 C 70.142094 91.134193 70.036941 98.329051 67.148438 101.29492 C 64.427404 104.79775 56.998521 104.64853 54.640625 100.63086 C 52.153394 97.434437 52.190006 90.149551 55.113281 87.175781 C 56.452966 85.605295 58.521751 84.778104 60.648438 84.675781 z M 10.578125 84.712891 L 14.652344 84.712891 L 20.71875 103.75781 L 16.833984 103.75781 L 15.697266 99.873047 L 9.3476562 99.873047 L 8.2089844 103.75781 L 4.4199219 103.75781 L 10.578125 84.712891 z M 21.285156 84.712891 L 24.884766 84.712891 L 24.884766 96.652344 L 24.980469 97.125 L 24.980469 97.693359 L 25.074219 98.167969 L 25.263672 98.640625 C 25.52737 99.660833 25.888304 99.865043 26.876953 100.25195 C 28.53987 100.80943 30.705682 100.38107 31.236328 98.451172 L 31.332031 97.882812 L 31.427734 97.410156 L 31.427734 84.712891 L 35.123047 84.712891 L 35.123047 97.125 L 35.027344 97.693359 L 35.027344 98.167969 L 34.931641 98.736328 L 34.835938 99.210938 C 34.455301 100.45856 34.332621 100.96089 33.320312 101.95898 C 31.876835 103.45469 29.63222 103.84777 27.632812 103.75781 C 25.432901 103.59832 23.600994 103.06693 22.328125 101.10547 C 21.450027 99.584625 21.737583 99.899426 21.378906 98.261719 L 21.285156 97.693359 L 21.285156 84.712891 z M 37.869141 84.712891 L 51.892578 84.712891 L 51.892578 88.123047 L 46.679688 88.123047 L 46.679688 103.75781 L 43.080078 103.75781 L 43.080078 88.123047 L 37.869141 88.123047 L 37.869141 84.712891 z M 61.085938 87.896484 C 59.598665 87.908919 58.127777 88.62978 57.388672 90.019531 C 56.036659 92.058397 56.094515 97.003816 57.673828 98.925781 C 59.568959 101.38312 63.539522 101.09334 64.96875 98.261719 C 66.174079 95.927558 66.024329 92.334756 64.873047 90.019531 C 64.07551 88.580041 62.57321 87.88405 61.085938 87.896484 z M 12.566406 89.070312 L 10.294922 96.556641 L 14.746094 96.556641 L 12.566406 89.070312 z "	   transform="matrix(0.26458333,0,0,0.26458333,24.575937,125.35773)"	   id="path5877" />  </g></svg>
