<?xml version="1.0" encoding="UTF-8" standalone="no"?><!-- Created with Inkscape (http://www.inkscape.org/) --><svg   xmlns:dc="http://purl.org/dc/elements/1.1/"   xmlns:cc="http://creativecommons.org/ns#"   xmlns:rdf="http://www.w3.org/1999/02/22-rdf-syntax-ns#"   xmlns:svg="http://www.w3.org/2000/svg"   xmlns="http://www.w3.org/2000/svg"   xmlns:sodipodi="http://sodipodi.sourceforge.net/DTD/sodipodi-0.dtd"   xmlns:inkscape="http://www.inkscape.org/namespaces/inkscape"   width="152.92331mm"   height="84.351059mm"   viewBox="0 0 152.92331 84.351059"   version="1.1"   id="svg8"   inkscape:version="0.92.1 r15371"   sodipodi:docname="Vector Multimeter File.svg">  <defs	 id="defs2">	<rect	   height="836.94"	   width="594.65997"	   y="2.4890001"	   x="0.18000001"	   id="SVGID_1_" />	<rect	   height="0.54000002"	   width="0.54000002"	   y="2.4890001"	   x="594.29999"	   id="SVGID_3_" />	<rect	   height="0.54000002"	   width="0.54000002"	   y="2.4890001"	   x="0.18000001"	   id="SVGID_5_" />	<rect	   height="0.54000002"	   width="594.65997"	   y="2.4890001"	   x="0.18000001"	   id="SVGID_7_" />	<rect	   height="0.54000002"	   width="0.54000002"	   y="838.89001"	   x="594.29999"	   id="SVGID_1_-4" />	<rect	   height="0.54000002"	   width="594.65997"	   y="838.89001"	   x="0.18000001"	   id="SVGID_3_-3" />	<rect	   height="836.94"	   width="594.65997"	   y="2.4890001"	   x="0.18000001"	   id="SVGID_5_-3" />	<rect	   height="0.54000002"	   width="0.54000002"	   y="838.89001"	   x="594.29999"	   id="SVGID_1_-3" />	<rect	   height="0.54000002"	   width="594.65997"	   y="838.89001"	   x="0.18000001"	   id="SVGID_3_-5" />	<rect	   height="836.94"	   width="594.65997"	   y="2.4890001"	   x="0.18000001"	   id="SVGID_5_-0" />  </defs>  <sodipodi:namedview	 id="base"	 pagecolor="#ffffff"	 bordercolor="#666666"	 borderopacity="1.0"	 inkscape:pageopacity="0.0"	 inkscape:pageshadow="2"	 inkscape:zoom="1"	 inkscape:cx="148.0714"	 inkscape:cy="78.025395"	 inkscape:document-units="mm"	 inkscape:current-layer="layer1"	 showgrid="false"	 inkscape:window-width="1920"	 inkscape:window-height="1017"	 inkscape:window-x="1912"	 inkscape:window-y="-8"	 inkscape:window-maximized="1" />  <metadata	 id="metadata5">	<rdf:RDF>	  <cc:Work		 rdf:about="">		<dc:format>image/svg+xml</dc:format>		<dc:type		   rdf:resource="http://purl.org/dc/dcmitype/StillImage" />		<dc:title />	  </cc:Work>	</rdf:RDF>  </metadata>  <g	 inkscape:label="Layer 1"	 inkscape:groupmode="layer"	 id="layer1"	 transform="translate(-24.575937,-125.35773)">	<path	   style="clip-rule:evenodd;fill-rule:evenodd;stroke-width:1.57926965"	   d="M 73.306641 39.988281 L 70.9375 41.314453 C 71.054514 42.141981 71.420442 43.01292 71.505859 43.966797 C 71.763585 45.072309 71.659965 45.815572 71.980469 47 C 72.128626 49.17149 72.33668 51.136708 72.265625 53.347656 C 72.243553 57.155303 71.704514 61.535759 70.654297 65.193359 L 73.212891 66.140625 C 75.396928 57.645759 75.460692 49.079967 73.496094 40.556641 L 73.306641 39.988281 z M 68.472656 42.261719 L 66.007812 43.494141 L 66.103516 43.587891 L 66.197266 44.0625 L 66.292969 44.630859 L 66.388672 45.103516 L 66.484375 45.671875 C 66.55543 46.526275 66.761972 47.372932 66.769531 48.230469 C 66.911641 49.361228 67.152874 52.19579 66.958984 53.253906 C 67.05215 56.352439 66.386148 59.998818 65.632812 63.013672 L 68.189453 63.960938 C 68.386593 62.757498 68.765848 61.4807 68.947266 60.169922 C 69.190629 58.97442 69.397245 57.789513 69.419922 56.570312 C 69.681843 54.165097 69.667247 51.317133 69.517578 48.894531 C 69.239632 46.681996 69.11699 44.412686 68.472656 42.261719 z M 57.388672 42.640625 L 49.427734 47.851562 L 49.427734 58.275391 L 57.388672 63.486328 L 57.388672 42.640625 z M 63.640625 44.441406 L 61.177734 45.671875 C 62.090264 50.908751 61.900852 55.679238 60.607422 60.833984 L 63.074219 61.6875 C 63.895246 59.026448 64.207635 55.834507 64.400391 53.064453 C 64.397216 50.329171 64.252612 47.6004 63.736328 44.914062 L 63.640625 44.441406 z M 44.216797 47.851562 L 44.216797 58.275391 L 46.775391 58.275391 L 46.775391 47.851562 L 44.216797 47.851562 z "	   transform="matrix(0.26458333,0,0,0.26458333,24.575937,125.35773)"	   id="path5901" />  </g></svg>
