<?xml version="1.0" encoding="UTF-8" standalone="no"?><!-- Created with Inkscape (http://www.inkscape.org/) --><svg   xmlns:dc="http://purl.org/dc/elements/1.1/"   xmlns:cc="http://creativecommons.org/ns#"   xmlns:rdf="http://www.w3.org/1999/02/22-rdf-syntax-ns#"   xmlns:svg="http://www.w3.org/2000/svg"   xmlns="http://www.w3.org/2000/svg"   xmlns:sodipodi="http://sodipodi.sourceforge.net/DTD/sodipodi-0.dtd"   xmlns:inkscape="http://www.inkscape.org/namespaces/inkscape"   width="152.92331mm"   height="84.351059mm"   viewBox="0 0 152.92331 84.351059"   version="1.1"   id="svg8"   inkscape:version="0.92.1 r15371"   sodipodi:docname="Vector Multimeter File.svg">  <defs	 id="defs2">	<rect	   height="836.94"	   width="594.65997"	   y="2.4890001"	   x="0.18000001"	   id="SVGID_1_" />	<rect	   height="0.54000002"	   width="0.54000002"	   y="2.4890001"	   x="594.29999"	   id="SVGID_3_" />	<rect	   height="0.54000002"	   width="0.54000002"	   y="2.4890001"	   x="0.18000001"	   id="SVGID_5_" />	<rect	   height="0.54000002"	   width="594.65997"	   y="2.4890001"	   x="0.18000001"	   id="SVGID_7_" />	<rect	   height="0.54000002"	   width="0.54000002"	   y="838.89001"	   x="594.29999"	   id="SVGID_1_-4" />	<rect	   height="0.54000002"	   width="594.65997"	   y="838.89001"	   x="0.18000001"	   id="SVGID_3_-3" />	<rect	   height="836.94"	   width="594.65997"	   y="2.4890001"	   x="0.18000001"	   id="SVGID_5_-3" />	<rect	   height="0.54000002"	   width="0.54000002"	   y="838.89001"	   x="594.29999"	   id="SVGID_1_-3" />	<rect	   height="0.54000002"	   width="594.65997"	   y="838.89001"	   x="0.18000001"	   id="SVGID_3_-5" />	<rect	   height="836.94"	   width="594.65997"	   y="2.4890001"	   x="0.18000001"	   id="SVGID_5_-0" />  </defs>  <sodipodi:namedview	 id="base"	 pagecolor="#ffffff"	 bordercolor="#666666"	 borderopacity="1.0"	 inkscape:pageopacity="0.0"	 inkscape:pageshadow="2"	 inkscape:zoom="1"	 inkscape:cx="148.0714"	 inkscape:cy="78.025395"	 inkscape:document-units="mm"	 inkscape:current-layer="layer1"	 showgrid="false"	 inkscape:window-width="1920"	 inkscape:window-height="1017"	 inkscape:window-x="1912"	 inkscape:window-y="-8"	 inkscape:window-maximized="1" />  <metadata	 id="metadata5">	<rdf:RDF>	  <cc:Work		 rdf:about="">		<dc:format>image/svg+xml</dc:format>		<dc:type		   rdf:resource="http://purl.org/dc/dcmitype/StillImage" />		<dc:title />	  </cc:Work>	</rdf:RDF>  </metadata>  <g	 inkscape:label="Layer 1"	 inkscape:groupmode="layer"	 id="layer1"	 transform="translate(-24.575937,-125.35773)">	<path	   style="clip-rule:evenodd;fill-rule:evenodd;stroke-width:1.57926965"	   d="M 183.69922 36.955078 L 183.69922 61.970703 L 194.02734 61.970703 L 194.50195 61.876953 L 195.07031 61.876953 L 195.54492 61.78125 C 196.33772 61.530138 196.91352 61.554082 197.62891 61.023438 C 198.99815 60.066423 199.95143 58.623832 200.4707 57.042969 C 201.23511 53.944436 200.84906 50.047505 197.62891 48.515625 C 200.6627 46.849496 200.69788 42.355693 199.24023 39.609375 L 199.14453 39.609375 C 198.23487 37.796373 196.19143 37.144432 194.31055 36.955078 L 183.69922 36.955078 z M 202.83789 36.955078 L 202.83789 41.408203 L 209.0918 41.408203 L 209.0918 61.970703 L 213.45117 61.970703 L 213.45117 41.408203 L 219.70508 41.408203 L 219.70508 36.955078 L 202.83789 36.955078 z M 187.86719 41.314453 L 193.36328 41.314453 L 193.83789 41.408203 L 194.40625 41.503906 C 196.07695 42.122993 196.17812 43.325339 195.92188 44.914062 C 195.45121 45.997464 195.68764 46.09426 194.5 46.525391 L 194.02734 46.714844 L 193.45898 46.810547 L 187.86719 46.810547 L 187.86719 41.314453 z M 187.86523 50.978516 L 193.55273 50.978516 L 194.11914 51.074219 L 194.5957 51.167969 C 196.35995 51.548567 196.73572 54.161271 196.20508 55.527344 L 196.11133 56 L 195.82422 56.474609 L 195.06836 57.232422 L 194.97266 57.232422 L 194.49805 57.421875 L 194.02539 57.517578 L 193.45703 57.611328 L 187.86523 57.611328 L 187.86523 50.978516 z "	   transform="matrix(0.26458333,0,0,0.26458333,24.575937,125.35773)"	   id="path5939" />  </g></svg>
