<?xml version="1.0" encoding="UTF-8" standalone="no"?>
<!-- Created with Inkscape (http://www.inkscape.org/) -->

<svg
   xmlns:dc="http://purl.org/dc/elements/1.1/"
   xmlns:cc="http://creativecommons.org/ns#"
   xmlns:rdf="http://www.w3.org/1999/02/22-rdf-syntax-ns#"
   xmlns:svg="http://www.w3.org/2000/svg"
   xmlns="http://www.w3.org/2000/svg"
   xmlns:sodipodi="http://sodipodi.sourceforge.net/DTD/sodipodi-0.dtd"
   xmlns:inkscape="http://www.inkscape.org/namespaces/inkscape"
   width="152.92331mm"
   height="84.351059mm"
   viewBox="0 0 152.92331 84.351059"
   version="1.1"
   id="svg8"
   inkscape:version="0.92.1 r15371"
   sodipodi:docname="DC+AC.svg">
  <defs
	 id="defs2">
	<rect
	   height="836.94"
	   width="594.65997"
	   y="2.4890001"
	   x="0.18000001"
	   id="SVGID_1_" />
	<rect
	   height="0.54000002"
	   width="0.54000002"
	   y="2.4890001"
	   x="594.29999"
	   id="SVGID_3_" />
	<rect
	   height="0.54000002"
	   width="0.54000002"
	   y="2.4890001"
	   x="0.18000001"
	   id="SVGID_5_" />
	<rect
	   height="0.54000002"
	   width="594.65997"
	   y="2.4890001"
	   x="0.18000001"
	   id="SVGID_7_" />
	<rect
	   height="0.54000002"
	   width="0.54000002"
	   y="838.89001"
	   x="594.29999"
	   id="SVGID_1_-4" />
	<rect
	   height="0.54000002"
	   width="594.65997"
	   y="838.89001"
	   x="0.18000001"
	   id="SVGID_3_-3" />
	<rect
	   height="836.94"
	   width="594.65997"
	   y="2.4890001"
	   x="0.18000001"
	   id="SVGID_5_-3" />
	<rect
	   height="0.54000002"
	   width="0.54000002"
	   y="838.89001"
	   x="594.29999"
	   id="SVGID_1_-3" />
	<rect
	   height="0.54000002"
	   width="594.65997"
	   y="838.89001"
	   x="0.18000001"
	   id="SVGID_3_-5" />
	<rect
	   height="836.94"
	   width="594.65997"
	   y="2.4890001"
	   x="0.18000001"
	   id="SVGID_5_-0" />
  </defs>
  <sodipodi:namedview
	 id="base"
	 pagecolor="#ffffff"
	 bordercolor="#666666"
	 borderopacity="1.0"
	 inkscape:pageopacity="0.0"
	 inkscape:pageshadow="2"
	 inkscape:zoom="5.6568542"
	 inkscape:cx="185.09288"
	 inkscape:cy="192.65358"
	 inkscape:document-units="mm"
	 inkscape:current-layer="layer1"
	 showgrid="false"
	 inkscape:window-width="1920"
	 inkscape:window-height="1017"
	 inkscape:window-x="1912"
	 inkscape:window-y="-8"
	 inkscape:window-maximized="1" />
  <metadata
	 id="metadata5">
	<rdf:RDF>
	  <cc:Work
		 rdf:about="">
		<dc:format>image/svg+xml</dc:format>
		<dc:type
		   rdf:resource="http://purl.org/dc/dcmitype/StillImage" />
		<dc:title />
	  </cc:Work>
	</rdf:RDF>
  </metadata>
  <g
	 inkscape:label="Layer 1"
	 inkscape:groupmode="layer"
	 id="layer1"
	 transform="translate(-24.575937,-125.35773)">
	<path
	   style="clip-rule:evenodd;fill-rule:evenodd;stroke-width:1.57926965"
	   d="m 169.87695,84.6875 c -5.02668,-0.09379 -10.01806,4.128357 -9.48828,11.111328 1.05812,10.669572 14.36587,12.522272 18.09766,2.369141 h -3.79102 l -0.66211,1.042969 c -4.14712,5.105762 -10.70456,1.105122 -10.23242,-5.117188 0.76747,-6.258671 7.687,-8.486524 10.89453,-2.654297 h 3.79102 c -1.71494,-4.603965 -5.17007,-6.68778 -8.60938,-6.751953 z"
	   transform="matrix(0.26458333,0,0,0.26458333,24.575937,125.35773)"
	   id="path66" />
	<path
	   style="clip-rule:evenodd;fill-rule:evenodd;stroke-width:1.57926965"
	   d="M 148.63867 84.712891 L 141.05859 104.89453 L 144.56445 104.89453 L 145.98438 100.91602 L 154.70312 100.91602 L 156.21875 104.89453 L 159.72656 104.89453 L 152.14453 84.712891 L 148.63867 84.712891 z M 150.34375 89.355469 L 153.4707 97.599609 L 147.2168 97.599609 L 150.34375 89.355469 z "
	   transform="matrix(0.26458333,0,0,0.26458333,24.575937,125.35773)"
	   id="path64" />
	<path
	   style="clip-rule:evenodd;fill-rule:evenodd;stroke-width:1.57926965"
	   d="m 110.41016,84.867188 c -5.00096,-0.104172 -10.03002,4.108096 -9.62305,11.121093 1.29657,10.603239 14.38166,12.623339 18.09766,2.369141 h -3.69532 c -1.23976,2.289938 -3.12961,3.556408 -5.78125,3.316408 -11.252255,-3.060588 -1.69348,-20.889787 5.78125,-10.044924 h 3.69532 c -1.64501,-4.599482 -5.0529,-6.690443 -8.47461,-6.761718 z"
	   transform="matrix(0.26458333,0,0,0.26458333,24.575937,125.35773)"
	   id="path62" />
	<path
	   style="clip-rule:evenodd;fill-rule:evenodd;stroke-width:1.57926965"
	   d="M 90.126953 84.892578 C 88.204284 84.874918 87.038001 85.483894 82.6875 84.902344 L 82.6875 105.08398 C 89.299897 105.68882 97.351991 105.99967 98.417969 97.789062 C 98.861761 91.931553 98.679026 87.195953 92.447266 85.185547 C 91.492198 84.973156 90.767843 84.898465 90.126953 84.892578 z M 86.193359 88.3125 L 90.835938 88.3125 C 95.832736 89.147927 95.068582 93.771389 94.912109 97.789062 C 94.011939 102.24263 89.933051 102.01552 86.193359 101.76758 L 86.193359 88.3125 z "
	   transform="matrix(0.26458333,0,0,0.26458333,24.575937,125.35773)"
	   id="path60" />
	<path
	   style="clip-rule:evenodd;fill-rule:evenodd;stroke-width:1.57926965"
	   d="M 129.02344,86.511719 V 94.1875 h -6.91797 v 3.033203 h 6.91797 v 7.673827 h 3.88476 v -7.673827 h 7.01172 V 94.1875 h -7.01172 v -7.675781 z"
	   transform="matrix(0.26458333,0,0,0.26458333,24.575937,125.35773)"
	   id="path58" />
  </g>
</svg>
