<?xml version="1.0" encoding="UTF-8" standalone="no"?><!-- Created with Inkscape (http://www.inkscape.org/) --><svg   xmlns:dc="http://purl.org/dc/elements/1.1/"   xmlns:cc="http://creativecommons.org/ns#"   xmlns:rdf="http://www.w3.org/1999/02/22-rdf-syntax-ns#"   xmlns:svg="http://www.w3.org/2000/svg"   xmlns="http://www.w3.org/2000/svg"   xmlns:sodipodi="http://sodipodi.sourceforge.net/DTD/sodipodi-0.dtd"   xmlns:inkscape="http://www.inkscape.org/namespaces/inkscape"   width="152.92331mm"   height="84.351059mm"   viewBox="0 0 152.92331 84.351059"   version="1.1"   id="svg8"   inkscape:version="0.92.1 r15371"   sodipodi:docname="Vector Multimeter File.svg">  <defs	 id="defs2">	<rect	   height="836.94"	   width="594.65997"	   y="2.4890001"	   x="0.18000001"	   id="SVGID_1_" />	<rect	   height="0.54000002"	   width="0.54000002"	   y="2.4890001"	   x="594.29999"	   id="SVGID_3_" />	<rect	   height="0.54000002"	   width="0.54000002"	   y="2.4890001"	   x="0.18000001"	   id="SVGID_5_" />	<rect	   height="0.54000002"	   width="594.65997"	   y="2.4890001"	   x="0.18000001"	   id="SVGID_7_" />	<rect	   height="0.54000002"	   width="0.54000002"	   y="838.89001"	   x="594.29999"	   id="SVGID_1_-4" />	<rect	   height="0.54000002"	   width="594.65997"	   y="838.89001"	   x="0.18000001"	   id="SVGID_3_-3" />	<rect	   height="836.94"	   width="594.65997"	   y="2.4890001"	   x="0.18000001"	   id="SVGID_5_-3" />	<rect	   height="0.54000002"	   width="0.54000002"	   y="838.89001"	   x="594.29999"	   id="SVGID_1_-3" />	<rect	   height="0.54000002"	   width="594.65997"	   y="838.89001"	   x="0.18000001"	   id="SVGID_3_-5" />	<rect	   height="836.94"	   width="594.65997"	   y="2.4890001"	   x="0.18000001"	   id="SVGID_5_-0" />  </defs>  <sodipodi:namedview	 id="base"	 pagecolor="#ffffff"	 bordercolor="#666666"	 borderopacity="1.0"	 inkscape:pageopacity="0.0"	 inkscape:pageshadow="2"	 inkscape:zoom="1"	 inkscape:cx="148.0714"	 inkscape:cy="78.025395"	 inkscape:document-units="mm"	 inkscape:current-layer="layer1"	 showgrid="false"	 inkscape:window-width="1920"	 inkscape:window-height="1017"	 inkscape:window-x="1912"	 inkscape:window-y="-8"	 inkscape:window-maximized="1" />  <metadata	 id="metadata5">	<rdf:RDF>	  <cc:Work		 rdf:about="">		<dc:format>image/svg+xml</dc:format>		<dc:type		   rdf:resource="http://purl.org/dc/dcmitype/StillImage" />		<dc:title />	  </cc:Work>	</rdf:RDF>  </metadata>  <g	 inkscape:label="Layer 1"	 inkscape:groupmode="layer"	 id="layer1"	 transform="translate(-24.575937,-125.35773)">	<path	   style="clip-rule:evenodd;fill-rule:evenodd;stroke-width:1.57926965"	   d="M 406.4668 82.34375 L 405.89844 82.4375 L 405.42773 82.4375 C 403.86584 82.775465 402.42763 83.66888 401.63477 85.091797 L 401.06641 86.511719 L 400.97461 87.080078 L 400.97461 104.80078 C 401.09468 106.429 402.10583 107.80118 403.43555 108.68555 C 404.15101 108.97612 405.0887 109.55712 405.90039 109.44336 L 406.37305 109.53906 L 479.62109 109.53906 L 480.0957 109.44336 C 481.33698 109.50497 483.42191 108.41813 484.07422 107.26367 L 484.64453 106.31641 L 484.83398 105.8418 L 485.02148 104.89453 L 485.02148 87.080078 C 484.9615 85.69662 483.80899 83.85322 482.55664 83.291016 L 482.17773 83.005859 L 481.70312 82.816406 L 481.13672 82.626953 L 480.66211 82.533203 L 480.1875 82.4375 L 479.61914 82.34375 L 406.4668 82.34375 z M 433.27148 86.980469 C 438.44514 86.777576 443.69466 91.508261 442.19336 98.546875 C 438.7253 111.31053 421.8261 105.48277 425.51367 93.240234 C 427.09017 89.000497 430.16729 87.102204 433.27148 86.980469 z M 406.46875 86.986328 L 409.69141 86.986328 L 409.69141 94.851562 L 418.4082 94.851562 L 418.4082 86.986328 L 421.72461 86.986328 L 421.72461 105.74805 L 418.4082 105.74805 L 418.4082 97.978516 L 409.69141 97.978516 L 409.69141 105.74805 L 406.46875 105.74805 L 406.46875 86.986328 z M 445.69922 86.986328 L 449.01367 86.986328 L 449.01367 102.62109 L 459.91211 102.62109 L 459.91211 105.74805 L 445.69922 105.74805 L 445.69922 86.986328 z M 463.22656 86.986328 L 472.51367 86.986328 C 479.1512 87.956042 480.25879 93.018322 479.61914 99.019531 C 478.08095 107.45914 469.91315 105.91057 463.22656 105.74805 L 463.22656 86.986328 z M 433.76953 88.462891 C 430.19531 88.525136 426.86565 94.179961 428.73633 99.587891 C 432.85193 109.6194 441.07369 101.5028 438.87695 93.808594 C 437.5822 89.933017 435.64174 88.430286 433.76953 88.462891 z M 469.3125 89.964844 C 468.28651 89.995315 467.29255 90.077754 466.44922 90.113281 L 466.44922 102.62109 C 474.57619 103.23073 477.21434 102.42509 476.30469 93.808594 C 475.76696 90.254061 472.39046 89.87343 469.3125 89.964844 z "	   transform="matrix(0.26458333,0,0,0.26458333,24.575937,125.35773)"	   id="path6199" />  </g></svg>
