<?xml version="1.0" encoding="UTF-8" standalone="no"?><!-- Created with Inkscape (http://www.inkscape.org/) --><svg   xmlns:dc="http://purl.org/dc/elements/1.1/"   xmlns:cc="http://creativecommons.org/ns#"   xmlns:rdf="http://www.w3.org/1999/02/22-rdf-syntax-ns#"   xmlns:svg="http://www.w3.org/2000/svg"   xmlns="http://www.w3.org/2000/svg"   xmlns:sodipodi="http://sodipodi.sourceforge.net/DTD/sodipodi-0.dtd"   xmlns:inkscape="http://www.inkscape.org/namespaces/inkscape"   width="152.92331mm"   height="84.351059mm"   viewBox="0 0 152.92331 84.351059"   version="1.1"   id="svg8"   inkscape:version="0.92.1 r15371"   sodipodi:docname="Vector Multimeter File.svg">  <defs	 id="defs2">	<rect	   height="836.94"	   width="594.65997"	   y="2.4890001"	   x="0.18000001"	   id="SVGID_1_" />	<rect	   height="0.54000002"	   width="0.54000002"	   y="2.4890001"	   x="594.29999"	   id="SVGID_3_" />	<rect	   height="0.54000002"	   width="0.54000002"	   y="2.4890001"	   x="0.18000001"	   id="SVGID_5_" />	<rect	   height="0.54000002"	   width="594.65997"	   y="2.4890001"	   x="0.18000001"	   id="SVGID_7_" />	<rect	   height="0.54000002"	   width="0.54000002"	   y="838.89001"	   x="594.29999"	   id="SVGID_1_-4" />	<rect	   height="0.54000002"	   width="594.65997"	   y="838.89001"	   x="0.18000001"	   id="SVGID_3_-3" />	<rect	   height="836.94"	   width="594.65997"	   y="2.4890001"	   x="0.18000001"	   id="SVGID_5_-3" />	<rect	   height="0.54000002"	   width="0.54000002"	   y="838.89001"	   x="594.29999"	   id="SVGID_1_-3" />	<rect	   height="0.54000002"	   width="594.65997"	   y="838.89001"	   x="0.18000001"	   id="SVGID_3_-5" />	<rect	   height="836.94"	   width="594.65997"	   y="2.4890001"	   x="0.18000001"	   id="SVGID_5_-0" />  </defs>  <sodipodi:namedview	 id="base"	 pagecolor="#ffffff"	 bordercolor="#666666"	 borderopacity="1.0"	 inkscape:pageopacity="0.0"	 inkscape:pageshadow="2"	 inkscape:zoom="1"	 inkscape:cx="148.0714"	 inkscape:cy="78.025395"	 inkscape:document-units="mm"	 inkscape:current-layer="layer1"	 showgrid="false"	 inkscape:window-width="1920"	 inkscape:window-height="1017"	 inkscape:window-x="1912"	 inkscape:window-y="-8"	 inkscape:window-maximized="1" />  <metadata	 id="metadata5">	<rdf:RDF>	  <cc:Work		 rdf:about="">		<dc:format>image/svg+xml</dc:format>		<dc:type		   rdf:resource="http://purl.org/dc/dcmitype/StillImage" />		<dc:title />	  </cc:Work>	</rdf:RDF>  </metadata>  <g	 inkscape:label="Layer 1"	 inkscape:groupmode="layer"	 id="layer1"	 transform="translate(-24.575937,-125.35773)">	<path	   style="clip-rule:evenodd;fill-rule:evenodd;stroke-width:1.57926965"	   d="M 165.0293 2.1796875 L 165.0293 22.552734 L 176.9707 22.552734 L 176.9707 18.857422 L 168.53711 18.857422 L 168.53711 2.1796875 L 165.0293 2.1796875 z M 213.07227 2.1796875 L 213.07227 5.78125 L 221.50586 5.78125 L 212.78906 18.951172 L 212.78906 22.552734 L 225.95898 22.552734 L 225.95898 18.951172 L 217.14648 18.951172 L 225.95898 5.5898438 L 225.95898 2.1796875 L 213.07227 2.1796875 z M 190.90039 6.9179688 L 194.40625 22.552734 L 197.81641 22.552734 L 199.80859 11.181641 L 201.79883 22.552734 L 205.20898 22.552734 L 208.81055 6.9179688 L 205.39844 6.9179688 L 203.4082 18.193359 L 201.51367 6.9179688 L 198.19531 6.9179688 L 196.39648 18.099609 L 194.40625 6.9179688 L 190.90039 6.9179688 z M 184.36719 6.9199219 C 182.3927 6.8881408 180.40112 7.7086275 179.33984 9.2871094 C 177.23151 12.511953 177.241 17.0446 179.33984 20.277344 C 180.66173 22.028739 182.40926 22.626813 184.55078 22.552734 C 186.4554 22.585919 187.98465 21.696539 189.09961 20.183594 C 191.10231 17.096135 191.11624 12.84509 189.28906 9.6660156 C 188.29885 7.8356471 186.34168 6.951703 184.36719 6.9199219 z M 184.08398 10.140625 C 184.6602 10.174299 185.32144 10.434754 186.06641 10.992188 C 188.44796 13.588533 187.07515 22.021387 182.27734 18.572266 C 180.33318 16.402933 180.9724 9.9587868 184.08398 10.140625 z "	   transform="matrix(0.26458333,0,0,0.26458333,24.575937,125.35773)"	   id="path6047" />  </g></svg>
