<?xml version="1.0" encoding="UTF-8" standalone="no"?><!-- Created with Inkscape (http://www.inkscape.org/) --><svg   xmlns:dc="http://purl.org/dc/elements/1.1/"   xmlns:cc="http://creativecommons.org/ns#"   xmlns:rdf="http://www.w3.org/1999/02/22-rdf-syntax-ns#"   xmlns:svg="http://www.w3.org/2000/svg"   xmlns="http://www.w3.org/2000/svg"   xmlns:sodipodi="http://sodipodi.sourceforge.net/DTD/sodipodi-0.dtd"   xmlns:inkscape="http://www.inkscape.org/namespaces/inkscape"   width="152.92331mm"   height="84.351059mm"   viewBox="0 0 152.92331 84.351059"   version="1.1"   id="svg8"   inkscape:version="0.92.1 r15371"   sodipodi:docname="Vector Multimeter File.svg">  <defs	 id="defs2">	<rect	   height="836.94"	   width="594.65997"	   y="2.4890001"	   x="0.18000001"	   id="SVGID_1_" />	<rect	   height="0.54000002"	   width="0.54000002"	   y="2.4890001"	   x="594.29999"	   id="SVGID_3_" />	<rect	   height="0.54000002"	   width="0.54000002"	   y="2.4890001"	   x="0.18000001"	   id="SVGID_5_" />	<rect	   height="0.54000002"	   width="594.65997"	   y="2.4890001"	   x="0.18000001"	   id="SVGID_7_" />	<rect	   height="0.54000002"	   width="0.54000002"	   y="838.89001"	   x="594.29999"	   id="SVGID_1_-4" />	<rect	   height="0.54000002"	   width="594.65997"	   y="838.89001"	   x="0.18000001"	   id="SVGID_3_-3" />	<rect	   height="836.94"	   width="594.65997"	   y="2.4890001"	   x="0.18000001"	   id="SVGID_5_-3" />	<rect	   height="0.54000002"	   width="0.54000002"	   y="838.89001"	   x="594.29999"	   id="SVGID_1_-3" />	<rect	   height="0.54000002"	   width="594.65997"	   y="838.89001"	   x="0.18000001"	   id="SVGID_3_-5" />	<rect	   height="836.94"	   width="594.65997"	   y="2.4890001"	   x="0.18000001"	   id="SVGID_5_-0" />  </defs>  <sodipodi:namedview	 id="base"	 pagecolor="#ffffff"	 bordercolor="#666666"	 borderopacity="1.0"	 inkscape:pageopacity="0.0"	 inkscape:pageshadow="2"	 inkscape:zoom="1"	 inkscape:cx="148.0714"	 inkscape:cy="78.025395"	 inkscape:document-units="mm"	 inkscape:current-layer="layer1"	 showgrid="false"	 inkscape:window-width="1920"	 inkscape:window-height="1017"	 inkscape:window-x="1912"	 inkscape:window-y="-8"	 inkscape:window-maximized="1" />  <metadata	 id="metadata5">	<rdf:RDF>	  <cc:Work		 rdf:about="">		<dc:format>image/svg+xml</dc:format>		<dc:type		   rdf:resource="http://purl.org/dc/dcmitype/StillImage" />		<dc:title />	  </cc:Work>	</rdf:RDF>  </metadata>  <g	 inkscape:label="Layer 1"	 inkscape:groupmode="layer"	 id="layer1"	 transform="translate(-24.575937,-125.35773)">	<path	   style="clip-rule:evenodd;fill-rule:evenodd;stroke-width:1.57926965"	   d="M 277.41406 82.34375 L 276.93945 82.4375 L 276.37109 82.4375 C 274.81075 82.904952 273.45274 83.555192 272.67578 85.091797 L 272.39062 85.564453 L 272.20117 86.039062 L 272.10547 86.511719 L 272.01172 87.082031 L 272.01172 104.80078 C 272.18233 106.57905 273.08429 107.59583 274.38086 108.68555 L 275.80078 109.25391 L 276.36914 109.44336 L 276.84375 109.44336 L 277.41211 109.53906 L 336.44531 109.53906 L 336.91992 109.44336 C 338.16119 109.50497 340.24458 108.41813 340.89844 107.26367 L 341.4668 106.31641 L 341.65625 105.84375 L 341.75195 105.36914 L 341.8457 104.80078 L 341.8457 87.082031 L 341.84766 87.082031 C 341.78764 85.698611 340.63556 83.85322 339.38477 83.291016 L 339.00586 83.005859 L 338.53125 82.816406 L 337.96289 82.626953 L 337.48828 82.533203 L 337.01562 82.4375 L 336.44727 82.34375 L 277.41406 82.34375 z M 276.36914 86.986328 L 279.5918 86.986328 L 286.12891 102.05273 L 292.76172 86.986328 L 295.98438 86.986328 L 295.98438 105.74805 L 292.76172 105.74805 L 292.76172 94.472656 L 287.83594 105.74805 L 284.51953 105.74805 L 279.5918 94.472656 L 279.5918 105.74805 L 276.36914 105.74805 L 276.36914 86.986328 z M 299.30078 86.986328 L 314.55664 86.986328 L 314.55664 90.113281 L 302.52148 90.113281 L 302.52148 94.851562 L 312.37695 94.851562 L 312.37695 97.978516 L 302.52148 97.978516 L 302.52148 102.62109 L 314.55664 102.62109 L 314.55664 105.74805 L 299.30078 105.74805 L 299.30078 86.986328 z M 317.87305 86.986328 L 321.09375 86.986328 L 327.72656 102.05273 L 334.26562 86.986328 L 337.48828 86.986328 L 337.48828 105.74805 L 334.26562 105.74805 L 334.26562 94.472656 L 329.33789 105.74805 L 326.02148 105.74805 L 321.09375 94.472656 L 321.09375 105.74805 L 317.87305 105.74805 L 317.87305 86.986328 z "	   transform="matrix(0.26458333,0,0,0.26458333,24.575937,125.35773)"	   id="path6067" />  </g></svg>
