<?xml version="1.0" encoding="UTF-8" standalone="no"?><!-- Created with Inkscape (http://www.inkscape.org/) --><svg   xmlns:dc="http://purl.org/dc/elements/1.1/"   xmlns:cc="http://creativecommons.org/ns#"   xmlns:rdf="http://www.w3.org/1999/02/22-rdf-syntax-ns#"   xmlns:svg="http://www.w3.org/2000/svg"   xmlns="http://www.w3.org/2000/svg"   xmlns:sodipodi="http://sodipodi.sourceforge.net/DTD/sodipodi-0.dtd"   xmlns:inkscape="http://www.inkscape.org/namespaces/inkscape"   width="152.92331mm"   height="84.351059mm"   viewBox="0 0 152.92331 84.351059"   version="1.1"   id="svg8"   inkscape:version="0.92.1 r15371"   sodipodi:docname="Vector Multimeter File.svg">  <defs	 id="defs2">	<rect	   height="836.94"	   width="594.65997"	   y="2.4890001"	   x="0.18000001"	   id="SVGID_1_" />	<rect	   height="0.54000002"	   width="0.54000002"	   y="2.4890001"	   x="594.29999"	   id="SVGID_3_" />	<rect	   height="0.54000002"	   width="0.54000002"	   y="2.4890001"	   x="0.18000001"	   id="SVGID_5_" />	<rect	   height="0.54000002"	   width="594.65997"	   y="2.4890001"	   x="0.18000001"	   id="SVGID_7_" />	<rect	   height="0.54000002"	   width="0.54000002"	   y="838.89001"	   x="594.29999"	   id="SVGID_1_-4" />	<rect	   height="0.54000002"	   width="594.65997"	   y="838.89001"	   x="0.18000001"	   id="SVGID_3_-3" />	<rect	   height="836.94"	   width="594.65997"	   y="2.4890001"	   x="0.18000001"	   id="SVGID_5_-3" />	<rect	   height="0.54000002"	   width="0.54000002"	   y="838.89001"	   x="594.29999"	   id="SVGID_1_-3" />	<rect	   height="0.54000002"	   width="594.65997"	   y="838.89001"	   x="0.18000001"	   id="SVGID_3_-5" />	<rect	   height="836.94"	   width="594.65997"	   y="2.4890001"	   x="0.18000001"	   id="SVGID_5_-0" />  </defs>  <sodipodi:namedview	 id="base"	 pagecolor="#ffffff"	 bordercolor="#666666"	 borderopacity="1.0"	 inkscape:pageopacity="0.0"	 inkscape:pageshadow="2"	 inkscape:zoom="1"	 inkscape:cx="148.0714"	 inkscape:cy="78.025395"	 inkscape:document-units="mm"	 inkscape:current-layer="layer1"	 showgrid="false"	 inkscape:window-width="1920"	 inkscape:window-height="1017"	 inkscape:window-x="1912"	 inkscape:window-y="-8"	 inkscape:window-maximized="1" />  <metadata	 id="metadata5">	<rdf:RDF>	  <cc:Work		 rdf:about="">		<dc:format>image/svg+xml</dc:format>		<dc:type		   rdf:resource="http://purl.org/dc/dcmitype/StillImage" />		<dc:title />	  </cc:Work>	</rdf:RDF>  </metadata>  <g	 inkscape:label="Layer 1"	 inkscape:groupmode="layer"	 id="layer1"	 transform="translate(-24.575937,-125.35773)">	<path	   style="clip-rule:evenodd;fill-rule:evenodd;stroke-width:1.57926965"	   d="M 0.53320312 2.1796875 L 0.53320312 22.552734 L 3.8515625 22.552734 L 3.8515625 5.4023438 L 7.0722656 22.552734 L 10.484375 22.552734 L 13.705078 5.4023438 L 13.705078 6.5390625 C 13.705078 11.876965 13.704675 17.214794 13.703125 22.552734 L 17.019531 22.552734 L 17.019531 2.1796875 L 11.904297 2.1796875 L 8.7773438 18.193359 L 5.7460938 2.1796875 L 0.53320312 2.1796875 z M 19.958984 2.1796875 L 19.958984 22.552734 L 23.464844 22.552734 L 23.464844 2.1796875 L 19.958984 2.1796875 z M 26.779297 2.1796875 L 26.779297 22.552734 L 30.097656 22.552734 L 30.097656 8.0546875 L 37.015625 22.552734 L 40.521484 22.552734 L 40.521484 2.1796875 L 37.205078 2.1796875 L 37.205078 16.392578 L 30.476562 2.1796875 L 26.779297 2.1796875 z "	   transform="matrix(0.26458333,0,0,0.26458333,24.575937,125.35773)"	   id="path5897" />  </g></svg>
