<?xml version="1.0" encoding="UTF-8" standalone="no"?><!-- Created with Inkscape (http://www.inkscape.org/) --><svg   xmlns:dc="http://purl.org/dc/elements/1.1/"   xmlns:cc="http://creativecommons.org/ns#"   xmlns:rdf="http://www.w3.org/1999/02/22-rdf-syntax-ns#"   xmlns:svg="http://www.w3.org/2000/svg"   xmlns="http://www.w3.org/2000/svg"   xmlns:sodipodi="http://sodipodi.sourceforge.net/DTD/sodipodi-0.dtd"   xmlns:inkscape="http://www.inkscape.org/namespaces/inkscape"   width="152.92331mm"   height="84.351059mm"   viewBox="0 0 152.92331 84.351059"   version="1.1"   id="svg8"   inkscape:version="0.92.1 r15371"   sodipodi:docname="Vector Multimeter File.svg">  <defs	 id="defs2">	<rect	   height="836.94"	   width="594.65997"	   y="2.4890001"	   x="0.18000001"	   id="SVGID_1_" />	<rect	   height="0.54000002"	   width="0.54000002"	   y="2.4890001"	   x="594.29999"	   id="SVGID_3_" />	<rect	   height="0.54000002"	   width="0.54000002"	   y="2.4890001"	   x="0.18000001"	   id="SVGID_5_" />	<rect	   height="0.54000002"	   width="594.65997"	   y="2.4890001"	   x="0.18000001"	   id="SVGID_7_" />	<rect	   height="0.54000002"	   width="0.54000002"	   y="838.89001"	   x="594.29999"	   id="SVGID_1_-4" />	<rect	   height="0.54000002"	   width="594.65997"	   y="838.89001"	   x="0.18000001"	   id="SVGID_3_-3" />	<rect	   height="836.94"	   width="594.65997"	   y="2.4890001"	   x="0.18000001"	   id="SVGID_5_-3" />	<rect	   height="0.54000002"	   width="0.54000002"	   y="838.89001"	   x="594.29999"	   id="SVGID_1_-3" />	<rect	   height="0.54000002"	   width="594.65997"	   y="838.89001"	   x="0.18000001"	   id="SVGID_3_-5" />	<rect	   height="836.94"	   width="594.65997"	   y="2.4890001"	   x="0.18000001"	   id="SVGID_5_-0" />  </defs>  <sodipodi:namedview	 id="base"	 pagecolor="#ffffff"	 bordercolor="#666666"	 borderopacity="1.0"	 inkscape:pageopacity="0.0"	 inkscape:pageshadow="2"	 inkscape:zoom="1"	 inkscape:cx="148.0714"	 inkscape:cy="78.025395"	 inkscape:document-units="mm"	 inkscape:current-layer="layer1"	 showgrid="false"	 inkscape:window-width="1920"	 inkscape:window-height="1017"	 inkscape:window-x="1912"	 inkscape:window-y="-8"	 inkscape:window-maximized="1" />  <metadata	 id="metadata5">	<rdf:RDF>	  <cc:Work		 rdf:about="">		<dc:format>image/svg+xml</dc:format>		<dc:type		   rdf:resource="http://purl.org/dc/dcmitype/StillImage" />		<dc:title />	  </cc:Work>	</rdf:RDF>  </metadata>  <g	 inkscape:label="Layer 1"	 inkscape:groupmode="layer"	 id="layer1"	 transform="translate(-24.575937,-125.35773)">	<path	   style="clip-rule:evenodd;fill-rule:evenodd;stroke-width:0.41784844"	   d="m 165.76607,168.47969 c -0.0952,-0.45462 -0.50518,-0.55866 -0.87749,-0.4262 l -0.12539,0.0501 -0.10076,0.0752 -0.0752,0.12534 -0.0251,0.0501 -0.0498,0.12537 -0.0251,0.12534 v 2.43188 h -1.07847 v -2.40681 l -0.0251,-0.12536 -0.0251,-0.15042 -0.0251,-0.0752 -0.0749,-0.10029 -0.12539,-0.10028 -0.12539,-0.0501 -0.1254,-0.0251 h -0.0757 l -0.15034,0.0251 -0.12492,0.0251 -0.1254,0.0501 -0.12571,0.0752 -0.0748,0.10028 h -0.0254 l -0.0501,0.12535 -0.0251,0.15043 v 2.48201 h -1.07799 v -3.78571 h 1.0279 v 0.55156 l 0.0752,-0.10028 0.10029,-0.12535 0.0756,-0.10028 0.1254,-0.0752 v -0.0251 c 0.52106,-0.25949 0.53984,-0.19305 1.07806,-0.20057 l 0.12539,0.0251 0.15035,0.0501 0.12492,0.0501 0.0752,0.0501 0.20098,0.20057 0.0752,0.10028 0.0752,0.12535 v 0.0251 c 0.38651,-0.57498 1.00327,-0.72541 1.65427,-0.57666 0.25531,0.0272 0.64766,0.3535 0.75254,0.6017 l 0.0501,0.12535 0.0251,0.12535 0.0251,0.15042 0.0251,0.12535 v 2.68259 h -1.10311 z"	   id="path6237" />  </g></svg>
