<?xml version="1.0" encoding="UTF-8" standalone="no"?><!-- Created with Inkscape (http://www.inkscape.org/) --><svg   xmlns:dc="http://purl.org/dc/elements/1.1/"   xmlns:cc="http://creativecommons.org/ns#"   xmlns:rdf="http://www.w3.org/1999/02/22-rdf-syntax-ns#"   xmlns:svg="http://www.w3.org/2000/svg"   xmlns="http://www.w3.org/2000/svg"   xmlns:sodipodi="http://sodipodi.sourceforge.net/DTD/sodipodi-0.dtd"   xmlns:inkscape="http://www.inkscape.org/namespaces/inkscape"   width="152.92331mm"   height="84.351059mm"   viewBox="0 0 152.92331 84.351059"   version="1.1"   id="svg8"   inkscape:version="0.92.1 r15371"   sodipodi:docname="Vector Multimeter File.svg">  <defs	 id="defs2">	<rect	   height="836.94"	   width="594.65997"	   y="2.4890001"	   x="0.18000001"	   id="SVGID_1_" />	<rect	   height="0.54000002"	   width="0.54000002"	   y="2.4890001"	   x="594.29999"	   id="SVGID_3_" />	<rect	   height="0.54000002"	   width="0.54000002"	   y="2.4890001"	   x="0.18000001"	   id="SVGID_5_" />	<rect	   height="0.54000002"	   width="594.65997"	   y="2.4890001"	   x="0.18000001"	   id="SVGID_7_" />	<rect	   height="0.54000002"	   width="0.54000002"	   y="838.89001"	   x="594.29999"	   id="SVGID_1_-4" />	<rect	   height="0.54000002"	   width="594.65997"	   y="838.89001"	   x="0.18000001"	   id="SVGID_3_-3" />	<rect	   height="836.94"	   width="594.65997"	   y="2.4890001"	   x="0.18000001"	   id="SVGID_5_-3" />	<rect	   height="0.54000002"	   width="0.54000002"	   y="838.89001"	   x="594.29999"	   id="SVGID_1_-3" />	<rect	   height="0.54000002"	   width="594.65997"	   y="838.89001"	   x="0.18000001"	   id="SVGID_3_-5" />	<rect	   height="836.94"	   width="594.65997"	   y="2.4890001"	   x="0.18000001"	   id="SVGID_5_-0" />  </defs>  <sodipodi:namedview	 id="base"	 pagecolor="#ffffff"	 bordercolor="#666666"	 borderopacity="1.0"	 inkscape:pageopacity="0.0"	 inkscape:pageshadow="2"	 inkscape:zoom="1"	 inkscape:cx="148.0714"	 inkscape:cy="78.025395"	 inkscape:document-units="mm"	 inkscape:current-layer="layer1"	 showgrid="false"	 inkscape:window-width="1920"	 inkscape:window-height="1017"	 inkscape:window-x="1912"	 inkscape:window-y="-8"	 inkscape:window-maximized="1" />  <metadata	 id="metadata5">	<rdf:RDF>	  <cc:Work		 rdf:about="">		<dc:format>image/svg+xml</dc:format>		<dc:type		   rdf:resource="http://purl.org/dc/dcmitype/StillImage" />		<dc:title />	  </cc:Work>	</rdf:RDF>  </metadata>  <g	 inkscape:label="Layer 1"	 inkscape:groupmode="layer"	 id="layer1"	 transform="translate(-24.575937,-125.35773)">	<path	   style="clip-rule:evenodd;fill-rule:evenodd;stroke-width:0.41784844"	   d="m 167.32047,176.05111 v 2.33159 h -0.92763 v -2.23131 l -0.0251,-0.1505 -0.0502,-0.12539 -0.0752,-0.10029 -0.10028,-0.12539 c -0.21644,-0.20809 -0.58624,-0.31047 -0.8779,-0.30085 -1.77,0.0873 -0.95186,1.68393 -1.12777,3.03357 h -0.92762 v -3.58513 h 0.92762 v 0.40113 h 0.0246 l 0.10076,-0.0752 0.12539,-0.0752 0.37608,-0.15034 0.15034,-0.0251 c 0.47134,-0.10787 0.45504,-0.0769 0.90213,-0.0501 0.66438,0.11244 1.3789,0.51896 1.50468,1.22846 z"	   id="path6235" />  </g></svg>
