<?xml version="1.0" encoding="UTF-8" standalone="no"?>
<!-- Created with Inkscape (http://www.inkscape.org/) -->
<svg   xmlns:dc="http://purl.org/dc/elements/1.1/"   xmlns:cc="http://creativecommons.org/ns#"   xmlns:rdf="http://www.w3.org/1999/02/22-rdf-syntax-ns#"   xmlns:svg="http://www.w3.org/2000/svg"   xmlns="http://www.w3.org/2000/svg"   xmlns:sodipodi="http://sodipodi.sourceforge.net/DTD/sodipodi-0.dtd"   xmlns:inkscape="http://www.inkscape.org/namespaces/inkscape"   width="152.92331mm"   height="84.351059mm"   viewBox="0 0 152.92331 84.351059"   version="1.1"   id="svg8"   inkscape:version="0.92.1 r15371"   sodipodi:docname="Vector Multimeter File.svg">
	
	<g	 inkscape:label="Layer 1"	 inkscape:groupmode="layer"	 id="layer1"	 transform="translate(-24.575937,-125.35773)">
		<path	   style="clip-rule:evenodd;fill-rule:evenodd;stroke-width:1.57926965"	   d="M 257.78906 46.302734 C 255.76836 46.335241 253.74838 47.205798 252.67969 48.894531 C 250.57925 51.520849 250.26963 56.038858 250.88086 59.222656 C 252.10006 68.431248 263.52571 68.514494 264.52539 59.128906 L 261.20898 59.128906 C 261.05421 61.576755 258.95803 63.429199 256.66016 62.445312 C 254.33696 61.42038 254.03805 58.613955 254.00781 56.380859 C 253.99043 54.259902 254.38866 51.244138 256.37695 50.03125 C 258.9338 49.031565 260.77623 50.257128 261.20898 52.96875 L 264.52539 52.96875 C 264.70696 51.416309 263.29551 48.648534 262.06055 47.757812 C 260.93225 46.75942 259.36072 46.277452 257.78906 46.302734 z M 235.43359 46.335938 L 235.43359 66.140625 C 240.55198 65.499428 244.5323 67.925805 247.375 62.917969 L 247.37305 62.917969 C 248.88112 59.713647 249.11273 55.968509 248.50781 52.494141 C 248.31045 51.020654 247.50092 49.019593 246.42383 47.947266 L 246.04492 47.568359 L 245.57031 47.283203 L 245.19141 47 L 244.7168 46.714844 L 244.33984 46.621094 L 243.77148 46.431641 L 243.29688 46.431641 L 242.73047 46.335938 L 235.43359 46.335938 z M 240.55078 49.669922 C 244.4883 49.653659 245.20664 50.889816 245.48047 55.527344 C 245.48202 57.82832 245.15958 62.356592 242.16211 62.634766 L 241.69141 62.728516 L 238.6582 62.728516 L 238.6582 49.748047 C 239.36019 49.700864 239.98828 49.672245 240.55078 49.669922 z "	   transform="matrix(0.26458333,0,0,0.26458333,24.575937,125.35773)"	   id="path6049" />
	</g>
</svg>