<?xml version="1.0" encoding="UTF-8" standalone="no"?><!-- Created with Inkscape (http://www.inkscape.org/) --><svg   xmlns:dc="http://purl.org/dc/elements/1.1/"   xmlns:cc="http://creativecommons.org/ns#"   xmlns:rdf="http://www.w3.org/1999/02/22-rdf-syntax-ns#"   xmlns:svg="http://www.w3.org/2000/svg"   xmlns="http://www.w3.org/2000/svg"   xmlns:sodipodi="http://sodipodi.sourceforge.net/DTD/sodipodi-0.dtd"   xmlns:inkscape="http://www.inkscape.org/namespaces/inkscape"   width="152.92331mm"   height="84.351059mm"   viewBox="0 0 152.92331 84.351059"   version="1.1"   id="svg8"   inkscape:version="0.92.1 r15371"   sodipodi:docname="Vector Multimeter File.svg">  <defs	 id="defs2">	<rect	   height="836.94"	   width="594.65997"	   y="2.4890001"	   x="0.18000001"	   id="SVGID_1_" />	<rect	   height="0.54000002"	   width="0.54000002"	   y="2.4890001"	   x="594.29999"	   id="SVGID_3_" />	<rect	   height="0.54000002"	   width="0.54000002"	   y="2.4890001"	   x="0.18000001"	   id="SVGID_5_" />	<rect	   height="0.54000002"	   width="594.65997"	   y="2.4890001"	   x="0.18000001"	   id="SVGID_7_" />	<rect	   height="0.54000002"	   width="0.54000002"	   y="838.89001"	   x="594.29999"	   id="SVGID_1_-4" />	<rect	   height="0.54000002"	   width="594.65997"	   y="838.89001"	   x="0.18000001"	   id="SVGID_3_-3" />	<rect	   height="836.94"	   width="594.65997"	   y="2.4890001"	   x="0.18000001"	   id="SVGID_5_-3" />	<rect	   height="0.54000002"	   width="0.54000002"	   y="838.89001"	   x="594.29999"	   id="SVGID_1_-3" />	<rect	   height="0.54000002"	   width="594.65997"	   y="838.89001"	   x="0.18000001"	   id="SVGID_3_-5" />	<rect	   height="836.94"	   width="594.65997"	   y="2.4890001"	   x="0.18000001"	   id="SVGID_5_-0" />  </defs>  <sodipodi:namedview	 id="base"	 pagecolor="#ffffff"	 bordercolor="#666666"	 borderopacity="1.0"	 inkscape:pageopacity="0.0"	 inkscape:pageshadow="2"	 inkscape:zoom="1"	 inkscape:cx="148.0714"	 inkscape:cy="78.025395"	 inkscape:document-units="mm"	 inkscape:current-layer="layer1"	 showgrid="false"	 inkscape:window-width="1920"	 inkscape:window-height="1017"	 inkscape:window-x="1912"	 inkscape:window-y="-8"	 inkscape:window-maximized="1" />  <metadata	 id="metadata5">	<rdf:RDF>	  <cc:Work		 rdf:about="">		<dc:format>image/svg+xml</dc:format>		<dc:type		   rdf:resource="http://purl.org/dc/dcmitype/StillImage" />		<dc:title />	  </cc:Work>	</rdf:RDF>  </metadata>  <g	 inkscape:label="Layer 1"	 inkscape:groupmode="layer"	 id="layer1"	 transform="translate(-24.575937,-125.35773)">	<path	   style="clip-rule:evenodd;fill-rule:evenodd;stroke-width:1.57926965"	   d="M 520.64844 0.7578125 L 520.64844 20.087891 L 528.23047 20.087891 L 528.79883 19.994141 L 529.27148 19.994141 L 529.74609 19.804688 L 530.2207 19.708984 L 530.69531 19.519531 C 531.74708 18.936766 532.44687 17.856436 532.87305 16.771484 C 533.72582 14.449947 533.48584 10.788875 530.88477 9.6660156 L 530.97852 9.6660156 L 531.35547 9.3808594 L 532.11328 8.6230469 L 532.30273 8.2441406 L 532.49219 7.7695312 C 532.97068 6.9640761 532.71127 5.6873962 532.7793 4.7382812 C 532.42867 2.4404419 530.97196 0.84776526 528.60938 0.7578125 L 520.64844 0.7578125 z M 514.30273 1.1386719 L 514.30273 7.7714844 L 514.01758 7.296875 L 513.73438 6.9179688 L 513.35352 6.5390625 L 512.4043 5.9707031 L 511.93359 5.875 L 511.36328 5.78125 L 510.89062 5.6855469 C 509.51503 5.767676 508.08127 6.2693526 507.19531 7.390625 L 507.19531 7.3925781 C 505.07912 9.9525655 504.83989 14.695488 506.3418 17.625 C 507.96367 21.159387 512.73758 21.700365 514.49219 18.099609 L 514.49219 20.089844 L 517.71094 20.089844 L 517.71094 1.1386719 L 514.30273 1.1386719 z M 523.68359 4.0742188 L 527.37695 4.0742188 L 527.85156 4.1699219 L 528.41992 4.2636719 L 528.89453 4.359375 L 529.27148 4.7382812 L 529.55664 5.1171875 L 529.65234 5.6855469 C 530.04243 6.9584162 529.2896 8.2668355 527.94727 8.3378906 L 527.47266 8.3378906 L 523.68359 8.3378906 L 523.68359 4.0742188 z M 511.0957 8.9140625 C 511.69599 8.8270681 512.41673 9.0103566 513.25977 9.5703125 C 514.1455 10.840045 514.13267 10.670619 514.39648 12.224609 C 514.33488 13.143753 514.57867 14.577704 514.11133 15.351562 C 513.6091 17.469345 511.2921 18.146459 509.75391 16.677734 C 508.141 14.749169 508.49446 9.2910382 511.0957 8.9140625 z M 523.68164 11.560547 L 528.04102 11.560547 L 528.60938 11.654297 L 528.61133 11.654297 C 530.21755 12.417081 530.15514 13.6409 529.93555 15.160156 L 529.74609 15.634766 L 529.46094 16.109375 L 529.08203 16.392578 L 528.98828 16.392578 L 528.51562 16.582031 L 527.94727 16.677734 L 527.47266 16.771484 L 523.68164 16.771484 L 523.68164 11.560547 z "	   transform="matrix(0.26458333,0,0,0.26458333,24.575937,125.35773)"	   id="path6291" />  </g></svg>
