<?xml version="1.0" encoding="UTF-8" standalone="no"?><!-- Created with Inkscape (http://www.inkscape.org/) --><svg   xmlns:dc="http://purl.org/dc/elements/1.1/"   xmlns:cc="http://creativecommons.org/ns#"   xmlns:rdf="http://www.w3.org/1999/02/22-rdf-syntax-ns#"   xmlns:svg="http://www.w3.org/2000/svg"   xmlns="http://www.w3.org/2000/svg"   xmlns:sodipodi="http://sodipodi.sourceforge.net/DTD/sodipodi-0.dtd"   xmlns:inkscape="http://www.inkscape.org/namespaces/inkscape"   width="152.92331mm"   height="84.351059mm"   viewBox="0 0 152.92331 84.351059"   version="1.1"   id="svg8"   inkscape:version="0.92.1 r15371"   sodipodi:docname="Vector Multimeter File.svg">  <defs	 id="defs2">	<rect	   height="836.94"	   width="594.65997"	   y="2.4890001"	   x="0.18000001"	   id="SVGID_1_" />	<rect	   height="0.54000002"	   width="0.54000002"	   y="2.4890001"	   x="594.29999"	   id="SVGID_3_" />	<rect	   height="0.54000002"	   width="0.54000002"	   y="2.4890001"	   x="0.18000001"	   id="SVGID_5_" />	<rect	   height="0.54000002"	   width="594.65997"	   y="2.4890001"	   x="0.18000001"	   id="SVGID_7_" />	<rect	   height="0.54000002"	   width="0.54000002"	   y="838.89001"	   x="594.29999"	   id="SVGID_1_-4" />	<rect	   height="0.54000002"	   width="594.65997"	   y="838.89001"	   x="0.18000001"	   id="SVGID_3_-3" />	<rect	   height="836.94"	   width="594.65997"	   y="2.4890001"	   x="0.18000001"	   id="SVGID_5_-3" />	<rect	   height="0.54000002"	   width="0.54000002"	   y="838.89001"	   x="594.29999"	   id="SVGID_1_-3" />	<rect	   height="0.54000002"	   width="594.65997"	   y="838.89001"	   x="0.18000001"	   id="SVGID_3_-5" />	<rect	   height="836.94"	   width="594.65997"	   y="2.4890001"	   x="0.18000001"	   id="SVGID_5_-0" />  </defs>  <sodipodi:namedview	 id="base"	 pagecolor="#ffffff"	 bordercolor="#666666"	 borderopacity="1.0"	 inkscape:pageopacity="0.0"	 inkscape:pageshadow="2"	 inkscape:zoom="1"	 inkscape:cx="148.0714"	 inkscape:cy="78.025395"	 inkscape:document-units="mm"	 inkscape:current-layer="layer1"	 showgrid="false"	 inkscape:window-width="1920"	 inkscape:window-height="1017"	 inkscape:window-x="1912"	 inkscape:window-y="-8"	 inkscape:window-maximized="1" />  <metadata	 id="metadata5">	<rdf:RDF>	  <cc:Work		 rdf:about="">		<dc:format>image/svg+xml</dc:format>		<dc:type		   rdf:resource="http://purl.org/dc/dcmitype/StillImage" />		<dc:title />	  </cc:Work>	</rdf:RDF>  </metadata>  <g	 inkscape:label="Layer 1"	 inkscape:groupmode="layer"	 id="layer1"	 transform="translate(-24.575937,-125.35773)">	<path	   style="clip-rule:evenodd;fill-rule:evenodd;stroke-width:0.41784844"	   d="m 164.48743,134.48354 c 2.34998,-0.91509 1.82767,2.45194 1.78004,3.63528 h -0.92763 v -2.38173 l -0.0254,-0.15043 -0.0251,-0.12536 -0.0251,-0.0501 c -0.17465,-0.27536 -0.32675,-0.28121 -0.62676,-0.27578 -0.38108,0.15418 -0.2503,0.0606 -0.47636,0.40113 l -0.0502,0.15043 -0.0246,0.12536 v 0.15043 l -0.0254,0.12534 v 2.03075 h -0.87707 v -3.68542 h 0.852 v 0.52649 c 0.0678,-0.14875 0.29793,-0.41659 0.45169,-0.47635 z"	   id="path6269" />  </g></svg>
