<?xml version="1.0" encoding="UTF-8" standalone="no"?><!-- Created with Inkscape (http://www.inkscape.org/) --><svg   xmlns:dc="http://purl.org/dc/elements/1.1/"   xmlns:cc="http://creativecommons.org/ns#"   xmlns:rdf="http://www.w3.org/1999/02/22-rdf-syntax-ns#"   xmlns:svg="http://www.w3.org/2000/svg"   xmlns="http://www.w3.org/2000/svg"   xmlns:sodipodi="http://sodipodi.sourceforge.net/DTD/sodipodi-0.dtd"   xmlns:inkscape="http://www.inkscape.org/namespaces/inkscape"   width="152.92331mm"   height="84.351059mm"   viewBox="0 0 152.92331 84.351059"   version="1.1"   id="svg8"   inkscape:version="0.92.1 r15371"   sodipodi:docname="Vector Multimeter File.svg">  <defs	 id="defs2">	<rect	   height="836.94"	   width="594.65997"	   y="2.4890001"	   x="0.18000001"	   id="SVGID_1_" />	<rect	   height="0.54000002"	   width="0.54000002"	   y="2.4890001"	   x="594.29999"	   id="SVGID_3_" />	<rect	   height="0.54000002"	   width="0.54000002"	   y="2.4890001"	   x="0.18000001"	   id="SVGID_5_" />	<rect	   height="0.54000002"	   width="594.65997"	   y="2.4890001"	   x="0.18000001"	   id="SVGID_7_" />	<rect	   height="0.54000002"	   width="0.54000002"	   y="838.89001"	   x="594.29999"	   id="SVGID_1_-4" />	<rect	   height="0.54000002"	   width="594.65997"	   y="838.89001"	   x="0.18000001"	   id="SVGID_3_-3" />	<rect	   height="836.94"	   width="594.65997"	   y="2.4890001"	   x="0.18000001"	   id="SVGID_5_-3" />	<rect	   height="0.54000002"	   width="0.54000002"	   y="838.89001"	   x="594.29999"	   id="SVGID_1_-3" />	<rect	   height="0.54000002"	   width="594.65997"	   y="838.89001"	   x="0.18000001"	   id="SVGID_3_-5" />	<rect	   height="836.94"	   width="594.65997"	   y="2.4890001"	   x="0.18000001"	   id="SVGID_5_-0" />  </defs>  <sodipodi:namedview	 id="base"	 pagecolor="#ffffff"	 bordercolor="#666666"	 borderopacity="1.0"	 inkscape:pageopacity="0.0"	 inkscape:pageshadow="2"	 inkscape:zoom="1"	 inkscape:cx="148.0714"	 inkscape:cy="78.025395"	 inkscape:document-units="mm"	 inkscape:current-layer="layer1"	 showgrid="false"	 inkscape:window-width="1920"	 inkscape:window-height="1017"	 inkscape:window-x="1912"	 inkscape:window-y="-8"	 inkscape:window-maximized="1" />  <metadata	 id="metadata5">	<rdf:RDF>	  <cc:Work		 rdf:about="">		<dc:format>image/svg+xml</dc:format>		<dc:type		   rdf:resource="http://purl.org/dc/dcmitype/StillImage" />		<dc:title />	  </cc:Work>	</rdf:RDF>  </metadata>  <g	 inkscape:label="Layer 1"	 inkscape:groupmode="layer"	 id="layer1"	 transform="translate(-24.575937,-125.35773)">	<path	   style="clip-rule:evenodd;fill-rule:evenodd;stroke-width:0.41784844"	   d="m 168.39798,136.06305 c -2.84597,-0.64641 -0.80603,-4.19102 1.45411,-2.55723 v 0.0251 c 0.36186,0.27035 0.49348,0.74669 0.50183,1.17833 h -0.85241 c -0.011,-0.51646 -0.41241,-0.75798 -0.87747,-0.75212 -0.46884,4.1e-4 -0.81565,0.20432 -0.75256,0.72705 0.24779,0.75672 2.38048,0.26116 2.60738,1.72989 0.33385,2.42144 -3.61522,2.40639 -3.5095,0.20057 h 0.85198 c 0.0305,0.81731 0.80813,0.8942 1.42946,0.72706 l 0.12539,-0.0752 0.10029,-0.0752 0.0998,-0.12535 0.0502,-0.12535 v -0.30085 l -0.0752,-0.12536 -0.0749,-0.10028 -0.0251,-0.0251 -0.1254,-0.0752 -0.12539,-0.0501 -0.12571,-0.0251 -0.12539,-0.0501 -0.0998,-0.0251 z"	   id="path6303" />  </g></svg>
