<?xml version="1.0" encoding="UTF-8" standalone="no"?><!-- Created with Inkscape (http://www.inkscape.org/) --><svg   xmlns:dc="http://purl.org/dc/elements/1.1/"   xmlns:cc="http://creativecommons.org/ns#"   xmlns:rdf="http://www.w3.org/1999/02/22-rdf-syntax-ns#"   xmlns:svg="http://www.w3.org/2000/svg"   xmlns="http://www.w3.org/2000/svg"   xmlns:sodipodi="http://sodipodi.sourceforge.net/DTD/sodipodi-0.dtd"   xmlns:inkscape="http://www.inkscape.org/namespaces/inkscape"   width="152.92331mm"   height="84.351059mm"   viewBox="0 0 152.92331 84.351059"   version="1.1"   id="svg8"   inkscape:version="0.92.1 r15371"   sodipodi:docname="Vector Multimeter File.svg">  <defs     id="defs2">    <rect       height="836.94"       width="594.65997"       y="2.4890001"       x="0.18000001"       id="SVGID_1_" />    <rect       height="0.54000002"       width="0.54000002"       y="2.4890001"       x="594.29999"       id="SVGID_3_" />    <rect       height="0.54000002"       width="0.54000002"       y="2.4890001"       x="0.18000001"       id="SVGID_5_" />    <rect       height="0.54000002"       width="594.65997"       y="2.4890001"       x="0.18000001"       id="SVGID_7_" />    <rect       height="0.54000002"       width="0.54000002"       y="838.89001"       x="594.29999"       id="SVGID_1_-4" />    <rect       height="0.54000002"       width="594.65997"       y="838.89001"       x="0.18000001"       id="SVGID_3_-3" />    <rect       height="836.94"       width="594.65997"       y="2.4890001"       x="0.18000001"       id="SVGID_5_-3" />    <rect       height="0.54000002"       width="0.54000002"       y="838.89001"       x="594.29999"       id="SVGID_1_-3" />    <rect       height="0.54000002"       width="594.65997"       y="838.89001"       x="0.18000001"       id="SVGID_3_-5" />    <rect       height="836.94"       width="594.65997"       y="2.4890001"       x="0.18000001"       id="SVGID_5_-0" />  </defs>  <sodipodi:namedview     id="base"     pagecolor="#ffffff"     bordercolor="#666666"     borderopacity="1.0"     inkscape:pageopacity="0.0"     inkscape:pageshadow="2"     inkscape:zoom="1"     inkscape:cx="148.0714"     inkscape:cy="78.025395"     inkscape:document-units="mm"     inkscape:current-layer="layer1"     showgrid="false"     inkscape:window-width="1920"     inkscape:window-height="1017"     inkscape:window-x="1912"     inkscape:window-y="-8"     inkscape:window-maximized="1" />  <metadata     id="metadata5">    <rdf:RDF>      <cc:Work         rdf:about="">        <dc:format>image/svg+xml</dc:format>        <dc:type           rdf:resource="http://purl.org/dc/dcmitype/StillImage" />        <dc:title />      </cc:Work>    </rdf:RDF>  </metadata>  <g     inkscape:label="Layer 1"     inkscape:groupmode="layer"     id="layer1"     transform="translate(-24.575937,-125.35773)">    <path       style="clip-rule:evenodd;fill-rule:evenodd;stroke-width:1.57926965"       d="M 169.87695 84.6875 C 164.85027 84.593709 159.85889 88.815857 160.38867 95.798828 C 161.44679 106.4684 174.75454 108.3211 178.48633 98.167969 L 174.69531 98.167969 L 174.0332 99.210938 C 169.88608 104.3167 163.32864 100.31606 163.80078 94.09375 C 164.56825 87.835079 171.48778 85.607226 174.69531 91.439453 L 178.48633 91.439453 C 176.77139 86.835488 173.31626 84.751673 169.87695 84.6875 z M 148.63867 84.712891 L 141.05859 104.89453 L 144.56445 104.89453 L 145.98438 100.91602 L 154.70312 100.91602 L 156.21875 104.89453 L 159.72656 104.89453 L 152.14453 84.712891 L 148.63867 84.712891 z M 110.41016 84.867188 C 105.4092 84.763016 100.38014 88.975284 100.78711 95.988281 C 102.08368 106.59152 115.16877 108.61162 118.88477 98.357422 L 115.18945 98.357422 C 113.94969 100.64736 112.05984 101.91383 109.4082 101.67383 C 98.155945 98.613242 107.71472 80.784043 115.18945 91.628906 L 118.88477 91.628906 C 117.23976 87.029424 113.83187 84.938463 110.41016 84.867188 z M 90.126953 84.892578 C 88.204284 84.874917 87.038001 85.483928 82.6875 84.902344 L 82.6875 105.08398 C 89.299897 105.68882 97.351991 105.99967 98.417969 97.789062 C 98.861761 91.931552 98.679026 87.195953 92.447266 85.185547 C 91.492198 84.973156 90.767843 84.898465 90.126953 84.892578 z M 129.02344 86.511719 L 129.02344 94.1875 L 122.10547 94.1875 L 122.10547 97.220703 L 129.02344 97.220703 L 129.02344 104.89453 L 132.9082 104.89453 L 132.9082 97.220703 L 139.91992 97.220703 L 139.91992 94.1875 L 132.9082 94.1875 L 132.9082 86.511719 L 129.02344 86.511719 z M 86.193359 88.3125 L 90.835938 88.3125 C 95.832737 89.147927 95.068582 93.771388 94.912109 97.789062 C 94.011939 102.24263 89.933051 102.01552 86.193359 101.76758 L 86.193359 88.3125 z M 150.34375 89.355469 L 153.4707 97.599609 L 147.2168 97.599609 L 150.34375 89.355469 z "       transform="matrix(0.26458333,0,0,0.26458333,24.575937,125.35773)"       id="path5917" />  </g></svg>