<?xml version="1.0" encoding="UTF-8" standalone="no"?><!-- Created with Inkscape (http://www.inkscape.org/) --><svg   xmlns:dc="http://purl.org/dc/elements/1.1/"   xmlns:cc="http://creativecommons.org/ns#"   xmlns:rdf="http://www.w3.org/1999/02/22-rdf-syntax-ns#"   xmlns:svg="http://www.w3.org/2000/svg"   xmlns="http://www.w3.org/2000/svg"   xmlns:sodipodi="http://sodipodi.sourceforge.net/DTD/sodipodi-0.dtd"   xmlns:inkscape="http://www.inkscape.org/namespaces/inkscape"   width="152.92331mm"   height="84.351059mm"   viewBox="0 0 152.92331 84.351059"   version="1.1"   id="svg8"   inkscape:version="0.92.1 r15371"   sodipodi:docname="Vector Multimeter File.svg">  <defs     id="defs2">    <rect       height="836.94"       width="594.65997"       y="2.4890001"       x="0.18000001"       id="SVGID_1_" />    <rect       height="0.54000002"       width="0.54000002"       y="2.4890001"       x="594.29999"       id="SVGID_3_" />    <rect       height="0.54000002"       width="0.54000002"       y="2.4890001"       x="0.18000001"       id="SVGID_5_" />    <rect       height="0.54000002"       width="594.65997"       y="2.4890001"       x="0.18000001"       id="SVGID_7_" />    <rect       height="0.54000002"       width="0.54000002"       y="838.89001"       x="594.29999"       id="SVGID_1_-4" />    <rect       height="0.54000002"       width="594.65997"       y="838.89001"       x="0.18000001"       id="SVGID_3_-3" />    <rect       height="836.94"       width="594.65997"       y="2.4890001"       x="0.18000001"       id="SVGID_5_-3" />    <rect       height="0.54000002"       width="0.54000002"       y="838.89001"       x="594.29999"       id="SVGID_1_-3" />    <rect       height="0.54000002"       width="594.65997"       y="838.89001"       x="0.18000001"       id="SVGID_3_-5" />    <rect       height="836.94"       width="594.65997"       y="2.4890001"       x="0.18000001"       id="SVGID_5_-0" />  </defs>  <sodipodi:namedview     id="base"     pagecolor="#ffffff"     bordercolor="#666666"     borderopacity="1.0"     inkscape:pageopacity="0.0"     inkscape:pageshadow="2"     inkscape:zoom="1"     inkscape:cx="148.0714"     inkscape:cy="78.025395"     inkscape:document-units="mm"     inkscape:current-layer="layer1"     showgrid="false"     inkscape:window-width="1920"     inkscape:window-height="1017"     inkscape:window-x="1912"     inkscape:window-y="-8"     inkscape:window-maximized="1" />  <metadata     id="metadata5">    <rdf:RDF>      <cc:Work         rdf:about="">        <dc:format>image/svg+xml</dc:format>        <dc:type           rdf:resource="http://purl.org/dc/dcmitype/StillImage" />        <dc:title />      </cc:Work>    </rdf:RDF>  </metadata>  <g     inkscape:label="Layer 1"     inkscape:groupmode="layer"     id="layer1"     transform="translate(-24.575937,-125.35773)">    <path       style="clip-rule:evenodd;fill-rule:evenodd;stroke-width:0.41784844"       d="m 166.61806,150.95513 h -0.67691 c 0.0368,-0.2716 -0.29501,-0.39445 -0.50101,-0.45128 -0.39486,-0.0714 -0.55029,-0.0911 -0.92761,0.0752 -0.65812,0.24653 -0.23901,0.82191 0.37605,0.82734 0.71871,0.0957 0.85158,0.0109 1.45411,0.50142 0.32551,0.33929 0.38568,0.91175 0.0251,1.25355 -0.67693,0.85282 -2.69095,0.65644 -2.85809,-0.55156 h 0.67691 c 0.1404,0.50058 1.13112,0.50852 1.52933,0.27578 0.64515,-0.44877 -0.21353,-0.8591 -0.65184,-0.80227 -1.00535,0.0318 -2.1582,-0.94727 -1.17834,-1.85525 0.7492,-0.73249 2.66838,-0.46507 2.73231,0.72706 z"       id="path6227" />  </g></svg>