<?xml version="1.0" encoding="UTF-8" standalone="no"?>
<!-- Created with Inkscape (http://www.inkscape.org/) -->

<svg
   xmlns:dc="http://purl.org/dc/elements/1.1/"
   xmlns:cc="http://creativecommons.org/ns#"
   xmlns:rdf="http://www.w3.org/1999/02/22-rdf-syntax-ns#"
   xmlns:svg="http://www.w3.org/2000/svg"
   xmlns="http://www.w3.org/2000/svg"
   xmlns:sodipodi="http://sodipodi.sourceforge.net/DTD/sodipodi-0.dtd"
   xmlns:inkscape="http://www.inkscape.org/namespaces/inkscape"
   width="152.92331mm"
   height="84.351059mm"
   viewBox="0 0 152.92331 84.351059"
   version="1.1"
   id="svg8"
   inkscape:version="0.92.1 r15371"
   sodipodi:docname="Vector Multimeter File.svg">
  <defs
     id="defs2">
    <rect
       height="836.94"
       width="594.65997"
       y="2.4890001"
       x="0.18000001"
       id="SVGID_1_" />
    <rect
       height="0.54000002"
       width="0.54000002"
       y="2.4890001"
       x="594.29999"
       id="SVGID_3_" />
    <rect
       height="0.54000002"
       width="0.54000002"
       y="2.4890001"
       x="0.18000001"
       id="SVGID_5_" />
    <rect
       height="0.54000002"
       width="594.65997"
       y="2.4890001"
       x="0.18000001"
       id="SVGID_7_" />
    <rect
       height="0.54000002"
       width="0.54000002"
       y="838.89001"
       x="594.29999"
       id="SVGID_1_-4" />
    <rect
       height="0.54000002"
       width="594.65997"
       y="838.89001"
       x="0.18000001"
       id="SVGID_3_-3" />
    <rect
       height="836.94"
       width="594.65997"
       y="2.4890001"
       x="0.18000001"
       id="SVGID_5_-3" />
    <rect
       height="0.54000002"
       width="0.54000002"
       y="838.89001"
       x="594.29999"
       id="SVGID_1_-3" />
    <rect
       height="0.54000002"
       width="594.65997"
       y="838.89001"
       x="0.18000001"
       id="SVGID_3_-5" />
    <rect
       height="836.94"
       width="594.65997"
       y="2.4890001"
       x="0.18000001"
       id="SVGID_5_-0" />
  </defs>
  <sodipodi:namedview
     id="base"
     pagecolor="#ffffff"
     bordercolor="#666666"
     borderopacity="1.0"
     inkscape:pageopacity="0.0"
     inkscape:pageshadow="2"
     inkscape:zoom="2"
     inkscape:cx="281.7713"
     inkscape:cy="171.90105"
     inkscape:document-units="mm"
     inkscape:current-layer="layer1"
     showgrid="false"
     inkscape:window-width="1920"
     inkscape:window-height="1017"
     inkscape:window-x="1912"
     inkscape:window-y="-8"
     inkscape:window-maximized="1" />
  <metadata
     id="metadata5">
    <rdf:RDF>
      <cc:Work
         rdf:about="">
        <dc:format>image/svg+xml</dc:format>
        <dc:type
           rdf:resource="http://purl.org/dc/dcmitype/StillImage" />
        <dc:title />
      </cc:Work>
    </rdf:RDF>
  </metadata>
  <g
     inkscape:label="Layer 1"
     inkscape:groupmode="layer"
     id="layer1"
     transform="translate(-24.575937,-125.35773)">
    <path
       style="clip-rule:evenodd;fill-rule:evenodd;stroke-width:0.41784844"
       d="m 40.737326,209.69631 h -2.08088 v -5.5156 h 2.08088 l 2.40681,2.75822 z"
       id="path6309" />
    <path
       style="clip-rule:evenodd;fill-rule:evenodd;stroke-width:1.57926965"
       d="M 541.30469 57.042969 L 541.30469 76.847656 L 545.00195 76.847656 L 545.00195 67.939453 L 551.91992 67.939453 L 551.91992 76.847656 L 555.61328 76.847656 L 555.61328 57.042969 L 551.91992 57.042969 L 551.91992 64.529297 L 545.00195 64.529297 L 545.00195 57.042969 L 541.30469 57.042969 z M 558.17188 62.255859 L 558.17188 65.382812 L 564.23828 65.382812 L 557.79297 73.814453 L 557.79297 76.847656 L 568.88086 76.847656 L 568.88086 73.720703 L 562.15234 73.720703 L 568.5957 65.382812 L 568.5957 62.255859 L 558.17188 62.255859 z "
       transform="matrix(0.26458333,0,0,0.26458333,24.575937,125.35773)"
       id="path6307" />
    <path
       style="clip-rule:evenodd;fill-rule:evenodd;stroke-width:0.41784844"
       d="m 168.39798,136.06305 c -2.84597,-0.64641 -0.80603,-4.19102 1.45411,-2.55723 v 0.0251 c 0.36186,0.27035 0.49348,0.74669 0.50183,1.17833 h -0.85241 c -0.011,-0.51646 -0.41241,-0.75798 -0.87747,-0.75212 -0.46884,4.1e-4 -0.81565,0.20432 -0.75256,0.72705 0.24779,0.75672 2.38048,0.26116 2.60738,1.72989 0.33385,2.42144 -3.61522,2.40639 -3.5095,0.20057 h 0.85198 c 0.0305,0.81731 0.80813,0.8942 1.42946,0.72706 l 0.12539,-0.0752 0.10029,-0.0752 0.0998,-0.12535 0.0502,-0.12535 v -0.30085 l -0.0752,-0.12536 -0.0749,-0.10028 -0.0251,-0.0251 -0.1254,-0.0752 -0.12539,-0.0501 -0.12571,-0.0251 -0.12539,-0.0501 -0.0998,-0.0251 z"
       id="path6303" />
    <path
       style="clip-rule:evenodd;fill-rule:evenodd;stroke-width:0.41784844"
       d="m 170.65477,127.86486 0.0251,0.15043 v 2.65752 h -0.82776 v -2.53217 l -0.0246,-0.15042 -0.0254,-0.0752 -0.0749,-0.12535 -0.10075,-0.0752 -0.12492,-0.0501 h -0.22563 l -0.1254,0.0752 -0.10076,0.0752 -0.0752,0.12536 -0.0251,0.0501 -0.0251,0.12537 -0.0246,0.15042 v 2.40681 h -0.80227 v -2.53216 l -0.0251,-0.12535 -0.0251,-0.0752 -0.0756,-0.12536 -0.10028,-0.10029 -0.12539,-0.0501 h -0.0998 l -0.1254,0.0251 -0.12539,0.0251 -0.1254,0.10029 -0.0756,0.10028 v 0.0251 l -0.0251,0.12535 -0.0251,0.15042 v 2.45695 h -0.80185 v -3.76063 h 0.75171 v 0.55156 c 0.20266,-0.38359 0.40406,-0.65227 0.87748,-0.65185 0.51187,-0.0147 0.65184,0.23776 0.82776,0.65185 0.13708,-0.43916 0.63053,-0.72372 1.07805,-0.62678 0.43915,0.0313 0.796,0.62218 0.77719,1.02791 z"
       id="path6301" />
    <path
       style="clip-rule:evenodd;fill-rule:evenodd;stroke-width:1.57926965"
       d="M 560.54102 0.7578125 L 554.85742 20.087891 L 558.36133 20.087891 L 559.4043 16.109375 L 565.375 16.109375 L 566.41797 20.087891 L 570.01562 20.087891 L 564.33203 0.7578125 L 560.54102 0.7578125 z M 562.43555 5.4960938 L 564.42773 13.076172 L 560.35156 13.076172 L 562.43555 5.4960938 z "
       transform="matrix(0.26458333,0,0,0.26458333,24.575937,125.35773)"
       id="path6299" />
    <path
       style="clip-rule:evenodd;fill-rule:evenodd;stroke-width:0.41784844"
       d="m 175.04223,136.86532 -0.0752,0.12535 -0.0752,0.10028 -0.10028,0.10028 -0.0756,0.10029 h 0.75253 v 0.82734 h -1.93045 v -0.77719 c 1.32708,-0.5595 1.58865,-3.35574 -0.15082,-3.50993 -1.90706,-0.0873 -1.67139,2.89945 -0.3255,3.48486 v 0.80227 h -1.93045 v -0.82734 h 0.80227 c -1.26525,-1.13196 -0.94183,-3.97333 0.92761,-4.26206 2.26809,-0.3652 3.06033,1.95511 2.28146,3.7105 h -0.0251 z"
       id="path6295" />
    <path
       style="clip-rule:evenodd;fill-rule:evenodd;stroke-width:0.41784844"
       d="m 161.52859,140.45046 h 1.02833 l -1.63003,5.23982 h -0.92721 l -1.57988,-5.23982 h 1.05339 l 1.02791,3.98627 z"
       id="path6293" />
    <path
       style="clip-rule:evenodd;fill-rule:evenodd;stroke-width:1.57926965"
       d="M 520.64844 0.7578125 L 520.64844 20.087891 L 528.23047 20.087891 L 528.79883 19.994141 L 529.27148 19.994141 L 529.74609 19.804688 L 530.2207 19.708984 L 530.69531 19.519531 C 531.74708 18.936766 532.44687 17.856436 532.87305 16.771484 C 533.72582 14.449947 533.48584 10.788875 530.88477 9.6660156 L 530.97852 9.6660156 L 531.35547 9.3808594 L 532.11328 8.6230469 L 532.30273 8.2441406 L 532.49219 7.7695312 C 532.97068 6.9640761 532.71127 5.6873962 532.7793 4.7382812 C 532.42867 2.4404419 530.97196 0.84776526 528.60938 0.7578125 L 520.64844 0.7578125 z M 514.30273 1.1386719 L 514.30273 7.7714844 L 514.01758 7.296875 L 513.73438 6.9179688 L 513.35352 6.5390625 L 512.4043 5.9707031 L 511.93359 5.875 L 511.36328 5.78125 L 510.89062 5.6855469 C 509.51503 5.767676 508.08127 6.2693526 507.19531 7.390625 L 507.19531 7.3925781 C 505.07912 9.9525655 504.83989 14.695488 506.3418 17.625 C 507.96367 21.159387 512.73758 21.700365 514.49219 18.099609 L 514.49219 20.089844 L 517.71094 20.089844 L 517.71094 1.1386719 L 514.30273 1.1386719 z M 523.68359 4.0742188 L 527.37695 4.0742188 L 527.85156 4.1699219 L 528.41992 4.2636719 L 528.89453 4.359375 L 529.27148 4.7382812 L 529.55664 5.1171875 L 529.65234 5.6855469 C 530.04243 6.9584162 529.2896 8.2668355 527.94727 8.3378906 L 527.47266 8.3378906 L 523.68359 8.3378906 L 523.68359 4.0742188 z M 511.0957 8.9140625 C 511.69599 8.8270681 512.41673 9.0103566 513.25977 9.5703125 C 514.1455 10.840045 514.13267 10.670619 514.39648 12.224609 C 514.33488 13.143753 514.57867 14.577704 514.11133 15.351562 C 513.6091 17.469345 511.2921 18.146459 509.75391 16.677734 C 508.141 14.749169 508.49446 9.2910382 511.0957 8.9140625 z M 523.68164 11.560547 L 528.04102 11.560547 L 528.60938 11.654297 L 528.61133 11.654297 C 530.21755 12.417081 530.15514 13.6409 529.93555 15.160156 L 529.74609 15.634766 L 529.46094 16.109375 L 529.08203 16.392578 L 528.98828 16.392578 L 528.51562 16.582031 L 527.94727 16.677734 L 527.47266 16.771484 L 523.68164 16.771484 L 523.68164 11.560547 z "
       transform="matrix(0.26458333,0,0,0.26458333,24.575937,125.35773)"
       id="path6291" />
    <path
       style="clip-rule:evenodd;fill-rule:evenodd;stroke-width:0.41784844"
       d="m 160.40039,133.25511 v 0.12536 l -0.20056,0.87748 -0.0251,0.0752 -0.0748,0.12537 c -0.12413,0.22271 -0.34013,0.29123 -0.57705,0.32592 -0.46507,-0.008 -0.70031,-0.35434 -0.77678,-0.7772 0.0815,-0.85701 0.38608,-1.86695 1.45368,-1.27862 v 0.0251 l 0.10029,0.10029 0.0502,0.12534 0.0254,0.15043 z"
       id="path6283" />
    <path
       style="clip-rule:evenodd;fill-rule:evenodd;stroke-width:0.41784844"
       d="m 159.77363,133.15483 -0.1254,-0.0501 -0.10028,0.0251 -0.0749,0.10028 -0.17549,0.80227 v 0.0501 l 0.0752,0.10028 0.12539,0.0501 0.0998,-0.0251 0.0752,-0.10028 0.17592,-0.80227 v -0.0501 z"
       id="path6281" />
    <path
       style="clip-rule:evenodd;fill-rule:evenodd;stroke-width:0.41784844"
       d="m 162.43155,136.99067 v 0.10029 l -0.17548,0.90255 -0.0254,0.0752 -0.0752,0.12535 c -0.13156,0.15377 -0.37063,0.31004 -0.57622,0.32592 -0.48636,-0.0497 -0.84195,-0.42663 -0.77761,-0.92762 l 0.0502,-0.25071 0.0251,-0.15043 0.0251,-0.12535 c 0.11118,-0.26491 0.0213,-0.35475 0.2762,-0.57663 0.21645,-0.15669 0.28539,-0.22647 0.55156,-0.20056 h 0.12539 l 0.1254,0.0501 0.15003,0.0501 0.10028,0.0752 h 0.0254 l 0.0748,0.12534 0.10076,0.25071 z"
       id="path6279" />
    <path
       style="clip-rule:evenodd;fill-rule:evenodd;stroke-width:0.41784844"
       d="m 161.87999,137.04077 v -0.0501 l -0.0752,-0.12534 -0.12539,-0.0501 -0.10029,0.0501 -0.0756,0.10028 -0.17508,0.7772 v 0.0251 l 0.0251,0.0251 0.0497,0.12536 0.1505,0.0501 0.0756,-0.0251 0.10028,-0.12534 z"
       id="path6277" />
    <path
       style="clip-rule:evenodd;fill-rule:evenodd;stroke-width:0.41784844"
       d="m 162.58198,132.75365 h -0.72705 l -3.38499,5.86659 h 0.72705 z"
       id="path6275" />
    <path
       style="clip-rule:evenodd;fill-rule:evenodd;stroke-width:0.41784844"
       d="m 164.08623,140.45042 h 0.87749 v 2.83301 l 1.15327,-1.47918 h 1.15326 l -1.25355,1.45411 1.2782,2.43188 h -1.10271 l -0.85241,-1.65468 -0.37606,0.4262 v 1.22848 h -0.87749 z"
       id="path6273" />
    <path
       style="clip-rule:evenodd;fill-rule:evenodd;stroke-width:0.41784844"
       d="m 164.48743,134.48354 c 2.34998,-0.91509 1.82767,2.45194 1.78004,3.63528 h -0.92763 v -2.38173 l -0.0254,-0.15043 -0.0251,-0.12536 -0.0251,-0.0501 c -0.17465,-0.27536 -0.32675,-0.28121 -0.62676,-0.27578 -0.38108,0.15418 -0.2503,0.0606 -0.47636,0.40113 l -0.0502,0.15043 -0.0246,0.12536 v 0.15043 l -0.0254,0.12534 v 2.03075 h -0.87707 v -3.68542 h 0.852 v 0.52649 c 0.0678,-0.14875 0.29793,-0.41659 0.45169,-0.47635 z"
       id="path6269" />
    <path
       style="clip-rule:evenodd;fill-rule:evenodd;stroke-width:0.41784844"
       d="m 176.84741,182.74504 c 0.76299,1.10689 0.70199,2.98971 -0.37648,3.88599 h 0.92804 v 0.9527 h -2.3316 v -0.90255 c 1.66387,-0.63973 1.86444,-3.9658 -0.30126,-3.98629 -1.00243,-0.0276 -1.58658,0.80437 -1.57905,1.7299 -0.0126,0.93307 0.44292,1.84481 1.27861,2.25639 v 0.90255 h -2.35708 v -0.9527 h 1.00325 c -1.17959,-0.97567 -1.21051,-2.88106 -0.30126,-4.03642 0.88207,-1.18627 3.24375,-1.09225 4.03683,0.15035 z"
       id="path6267" />
    <path
       style="clip-rule:evenodd;fill-rule:evenodd;stroke-width:0.41784844"
       d="m 170.75517,183.34675 -1.45411,1.52932 1.50384,2.55723 h -1.30327 l -0.97776,-1.75496 -0.42621,0.45128 v 1.30368 h -1.05339 v -5.5156 h 1.05339 v 2.98345 l 1.32876,-1.5544 z"
       id="path6265" />
    <path
       style="clip-rule:evenodd;fill-rule:evenodd;stroke-width:1.57926965"
       d="M 554.12305 117 C 547.7008 117.05813 546.8223 126.27169 553.7207 127.16211 C 560.70266 127.60431 561.69632 117.84783 554.76172 117.02344 C 554.54309 117.00567 554.33022 116.99812 554.12305 117 z M 562.81641 119.39258 L 562.81641 139.85938 L 567.08008 139.85938 L 567.08008 131.33203 L 576.27148 131.33203 L 576.27148 127.73047 L 567.08008 127.73047 L 567.08008 122.99414 L 577.59961 122.99414 L 577.59961 119.39258 L 562.81641 119.39258 z M 554.19531 120.33984 L 554.28906 120.33984 L 554.85742 120.43555 L 555.33008 120.71875 L 555.61328 121.09961 L 555.90039 121.57227 L 555.99219 122.04688 L 555.99219 122.23633 L 555.61328 123.18359 L 555.23438 123.4668 L 554.76367 123.75195 C 553.76871 123.85937 552.94787 123.55176 552.48828 122.61523 L 552.39453 122.04688 L 552.39453 121.95117 L 552.58398 121.47656 L 552.86523 121.00391 L 553.24609 120.625 L 553.7207 120.43555 L 554.19531 120.33984 z "
       transform="matrix(0.26458333,0,0,0.26458333,24.575937,125.35773)"
       id="path6263" />
    <path
       style="clip-rule:evenodd;fill-rule:evenodd;stroke-width:0.41784844"
       d="m 171.13124,165.42104 h 1.17792 l -1.85484,5.5156 h -1.10312 l -1.85524,-5.5156 h 1.22848 l 1.2034,4.18684 z"
       id="path6261" />
    <path
       style="clip-rule:evenodd;fill-rule:evenodd;stroke-width:0.41784844"
       d="m 169.40134,178.3827 h -0.92761 v -5.26489 h 3.58472 v 0.70198 h -2.65711 v 1.5544 h 2.30653 v 0.67692 h -2.30653 z"
       id="path6259" />
    <path
       style="clip-rule:evenodd;fill-rule:evenodd;stroke-width:1.57926965"
       d="M 566.32227 152.27344 L 558.55078 172.07812 L 562.24609 172.07812 L 564.71094 165.91797 L 571.3457 165.91797 L 573.71289 172.07812 L 577.41016 172.07812 L 569.63867 152.27344 L 566.32227 152.27344 z M 568.02734 157.39062 L 570.30273 163.26562 L 565.75391 163.26562 L 568.02734 157.39062 z "
       transform="matrix(0.26458333,0,0,0.26458333,24.575937,125.35773)"
       id="path6257" />
    <path
       style="clip-rule:evenodd;fill-rule:evenodd;stroke-width:1.57926965"
       d="M 566.89062 180.50977 L 559.12109 200.41016 L 562.81641 200.41016 L 565.2793 194.15625 L 571.81641 194.15625 L 574.28125 200.41016 L 577.97852 200.41016 L 570.20703 180.50977 L 566.89062 180.50977 z M 568.59766 185.62695 L 570.87109 191.50195 L 566.22852 191.50195 L 568.59766 185.62695 z "
       transform="matrix(0.26458333,0,0,0.26458333,24.575937,125.35773)"
       id="path6249" />
    <path
       style="clip-rule:evenodd;fill-rule:evenodd;stroke-width:1.57926965"
       d="M 518.30859 117 C 511.90485 117.0484 511.08924 126.28853 517.90039 127.16211 C 524.89977 127.58852 525.90202 117.84624 518.94531 117.02344 C 518.72718 117.00528 518.51517 116.99844 518.30859 117 z M 534.14648 119.41992 C 533.5489 119.43081 532.98451 119.48451 532.49414 119.58203 C 524.60887 120.57854 522.94404 131.41123 527.1875 136.82812 C 531.58736 142.05079 542.10832 140.69197 543.20117 132.6582 L 538.9375 132.6582 C 537.36461 138.74154 528.88552 137.25325 529.36719 129.62695 C 529.45722 127.08749 530.12038 124.05062 532.87305 123.18359 C 535.40302 122.18708 538.35016 123.6021 538.9375 126.31055 L 543.29492 126.31055 C 542.88276 123.8311 541.68058 121.60317 539.31641 120.5293 C 538.02888 119.74747 535.93923 119.38725 534.14648 119.41992 z M 518.63477 120.3457 C 520.23848 120.49437 520.97745 122.94357 518.94336 123.75195 L 518.2793 123.75195 L 517.80664 123.65625 L 517.33203 123.4668 L 516.95508 123.08789 L 516.76562 122.61523 L 516.66992 122.04688 L 516.66992 121.95117 L 516.76562 121.47656 L 517.04883 121.00391 L 517.42773 120.625 L 517.90039 120.43555 C 518.15919 120.35145 518.40566 120.32447 518.63477 120.3457 z "
       transform="matrix(0.26458333,0,0,0.26458333,24.575937,125.35773)"
       id="path6245" />
    <path
       style="clip-rule:evenodd;fill-rule:evenodd;stroke-width:0.41784844"
       d="m 161.60387,183.37182 v 4.06148 h -1.05255 v -5.5156 h 1.65468 l 1.00284,4.33728 1.00241,-4.33728 h 1.65468 v 5.5156 h -1.07804 c 0,-1.54604 0,-3.09208 0,-4.63812 l -1.02749,4.63812 h -1.1282 l -1.02833,-4.63812 c 0,0.19221 0,0.38442 0,0.57664 z"
       id="path6241" />
    <path
       style="clip-rule:evenodd;fill-rule:evenodd;stroke-width:0.41784844"
       d="m 165.76607,168.47969 c -0.0952,-0.45462 -0.50518,-0.55866 -0.87749,-0.4262 l -0.12539,0.0501 -0.10076,0.0752 -0.0752,0.12534 -0.0251,0.0501 -0.0498,0.12537 -0.0251,0.12534 v 2.43188 h -1.07847 v -2.40681 l -0.0251,-0.12536 -0.0251,-0.15042 -0.0251,-0.0752 -0.0749,-0.10029 -0.12539,-0.10028 -0.12539,-0.0501 -0.1254,-0.0251 h -0.0757 l -0.15034,0.0251 -0.12492,0.0251 -0.1254,0.0501 -0.12571,0.0752 -0.0748,0.10028 h -0.0254 l -0.0501,0.12535 -0.0251,0.15043 v 2.48201 h -1.07799 v -3.78571 h 1.0279 v 0.55156 l 0.0752,-0.10028 0.10029,-0.12535 0.0756,-0.10028 0.1254,-0.0752 v -0.0251 c 0.52106,-0.25949 0.53984,-0.19305 1.07806,-0.20057 l 0.12539,0.0251 0.15035,0.0501 0.12492,0.0501 0.0752,0.0501 0.20098,0.20057 0.0752,0.10028 0.0752,0.12535 v 0.0251 c 0.38651,-0.57498 1.00327,-0.72541 1.65427,-0.57666 0.25531,0.0272 0.64766,0.3535 0.75254,0.6017 l 0.0501,0.12535 0.0251,0.12535 0.0251,0.15042 0.0251,0.12535 v 2.68259 h -1.10311 z"
       id="path6237" />
    <path
       style="clip-rule:evenodd;fill-rule:evenodd;stroke-width:0.41784844"
       d="m 167.32047,176.05111 v 2.33159 h -0.92763 v -2.23131 l -0.0251,-0.1505 -0.0502,-0.12539 -0.0752,-0.10029 -0.10028,-0.12539 c -0.21644,-0.20809 -0.58624,-0.31047 -0.8779,-0.30085 -1.77,0.0873 -0.95186,1.68393 -1.12777,3.03357 h -0.92762 v -3.58513 h 0.92762 v 0.40113 h 0.0246 l 0.10076,-0.0752 0.12539,-0.0752 0.37608,-0.15034 0.15034,-0.0251 c 0.47134,-0.10787 0.45504,-0.0769 0.90213,-0.0501 0.66438,0.11244 1.3789,0.51896 1.50468,1.22846 z"
       id="path6235" />
    <path
       style="clip-rule:evenodd;fill-rule:evenodd;stroke-width:0.41784844"
       d="m 165.81579,175.64998 v 3.68541 h -0.92721 v -0.22563 c -0.63303,0.32175 -1.63838,0.35392 -2.25638,0 v 1.05298 h -0.92804 v -4.51276 h 0.92804 v 2.20624 l 0.0246,0.1505 0.0501,0.1254 0.0752,0.12539 0.10076,0.10028 c 0.21435,0.18678 0.59376,0.31799 0.87749,0.30085 1.77878,-0.0632 0.92261,-1.67976 1.12818,-3.00851 z"
       id="path6233" />
    <path
       style="clip-rule:evenodd;fill-rule:evenodd;stroke-width:0.41784844"
       d="m 161.65402,149.90215 c 0.39612,-0.19179 0.93682,-0.0364 1.15326,0.35099 0.13961,0.1801 0.15761,0.40866 0.20099,0.62678 0,0.93598 0,1.87196 0,2.80794 H 162.206 v -2.40681 l -0.0254,-0.15043 -0.0251,-0.12536 -0.0251,-0.0752 c -0.064,-0.26826 -0.2925,-0.31673 -0.5265,-0.25071 l -0.1254,0.0501 -0.0998,0.10029 -0.0502,0.12534 -0.0251,0.0501 -0.0502,0.12537 v 0.12534 l -0.0251,0.15043 v 2.28145 h -0.80227 v -2.53216 l -0.0254,-0.12535 c -0.0276,-0.20224 -0.18135,-0.38316 -0.40071,-0.35099 h -0.15035 l -0.12571,0.0501 -0.10028,0.0752 -0.0752,0.12535 -0.0498,0.15042 -0.0251,0.12536 v 2.48202 h -0.80227 v -3.7857 h 0.77721 v 0.55156 c 0.2766,-0.82818 1.4679,-0.87498 1.67974,0 0.20935,-0.27829 0.1851,-0.3698 0.52607,-0.55156 z"
       id="path6231" />
    <path
       style="clip-rule:evenodd;fill-rule:evenodd;stroke-width:0.41784844"
       d="m 155.63743,147.82126 c 0.25614,-0.28162 0.44792,-0.4542 0.62676,-0.80226 h 0.5265 v 6.66886 h -0.82776 v -5.18968 c -0.47509,0.42955 -1.05758,0.74377 -1.65427,0.97776 v -0.77719 c 0.61424,-0.30169 0.80979,-0.45128 1.32877,-0.87749 z"
       id="path6229" />
    <path
       style="clip-rule:evenodd;fill-rule:evenodd;stroke-width:0.41784844"
       d="m 166.61806,150.95513 h -0.67691 c 0.0368,-0.2716 -0.29501,-0.39445 -0.50101,-0.45128 -0.39486,-0.0714 -0.55029,-0.0911 -0.92761,0.0752 -0.65812,0.24653 -0.23901,0.82191 0.37605,0.82734 0.71871,0.0957 0.85158,0.0109 1.45411,0.50142 0.32551,0.33929 0.38568,0.91175 0.0251,1.25355 -0.67693,0.85282 -2.69095,0.65644 -2.85809,-0.55156 h 0.67691 c 0.1404,0.50058 1.13112,0.50852 1.52933,0.27578 0.64515,-0.44877 -0.21353,-0.8591 -0.65184,-0.80227 -1.00535,0.0318 -2.1582,-0.94727 -1.17834,-1.85525 0.7492,-0.73249 2.66838,-0.46507 2.73231,0.72706 z"
       id="path6227" />
    <path
       style="clip-rule:evenodd;fill-rule:evenodd;stroke-width:0.41784844"
       d="m 146.33611,127.78961 c 0.0777,-0.65853 0.88584,-2.00567 1.4537,-2.35666 l 0.77762,3.05865 -0.65227,5.06432 -1.40397,1.5544 -0.85199,-0.92763 0.65185,-6.26772 z"
       id="path6225" />
    <path
       style="clip-rule:evenodd;fill-rule:evenodd;stroke-width:0.41784844"
       d="m 151.30015,142.65666 0.75172,2.55723 h -4.93898 l -0.0752,0.0251 -0.12492,-0.0251 h -0.15035 l -0.12539,-0.0251 -0.15082,-0.0251 -0.1254,-0.0251 c -0.34137,-0.1124 -0.69696,-0.25948 -0.95269,-0.52649 l 1.52974,-1.95553 z"
       id="path6223" />
    <path
       style="clip-rule:evenodd;fill-rule:evenodd;stroke-width:0.41784844"
       d="m 145.03242,144.06063 c -0.25655,-0.46632 -0.33888,-0.77469 -0.3514,-1.30369 0.0313,-1.82474 0.31672,-3.97666 0.52648,-5.61588 l 1.2034,-1.40397 1.15369,1.25354 -0.85241,5.21475 -1.60496,1.95553 z"
       id="path6221" />
    <path
       style="clip-rule:evenodd;fill-rule:evenodd;stroke-width:0.41784844"
       d="m 142.2997,145.21389 0.22563,-2.20624 h 1.37848 l -0.20014,2.20624 z"
       id="path6219" />
    <path
       style="clip-rule:evenodd;fill-rule:evenodd;stroke-width:0.41784844"
       d="m 134.15165,127.78961 c 0.13503,-0.67148 0.87582,-2.02071 1.47919,-2.35666 l 0.77678,3.05865 -0.65184,5.06432 -1.42863,1.5544 -0.82775,-0.92763 0.62676,-6.26772 z"
       id="path6217" />
    <path
       style="clip-rule:evenodd;fill-rule:evenodd;stroke-width:0.41784844"
       d="m 133.32389,144.71247 -0.0752,-0.10028 1.50425,-1.95553 h 4.3874 l 0.75256,2.55723 h -4.96404 l -0.0502,0.0251 -0.15035,-0.0251 h -0.12571 l -0.1505,-0.0251 -0.2503,-0.0501 c -0.32424,-0.0714 -0.60546,-0.24026 -0.8779,-0.4262 z"
       id="path6215" />
    <path
       style="clip-rule:evenodd;fill-rule:evenodd;stroke-width:0.41784844"
       d="m 132.87262,144.06063 c -0.26785,-0.37565 -0.35476,-0.85116 -0.35057,-1.30369 -0.0502,-1.88617 0.52858,-3.71007 0.50142,-5.61588 l 1.22846,-1.40397 1.15327,1.25354 -0.85283,5.21475 -1.60412,1.95553 z"
       id="path6213" />
    <path
       style="clip-rule:evenodd;fill-rule:evenodd;stroke-width:0.41784844"
       d="m 131.51879,145.21389 h -1.3789 l 0.22563,-2.20624 h 1.37932 z"
       id="path6211" />
    <path
       style="clip-rule:evenodd;fill-rule:evenodd;stroke-width:0.41784844"
       d="m 135.9062,133.98213 h 4.41248 l 1.0279,1.15326 -1.2782,1.3789 h -4.51276 l -0.97818,-1.07805 z"
       id="path6209" />
    <path
       style="clip-rule:evenodd;fill-rule:evenodd;stroke-width:0.41784844"
       d="m 140.92038,125.35773 c 0.56033,0.0472 1.32959,0.23567 1.70483,0.67692 l -1.62919,1.88032 h -4.3122 l -0.67733,-2.55724 z"
       id="path6207" />
    <path
       style="clip-rule:evenodd;fill-rule:evenodd;stroke-width:0.41784844"
       d="m 143.55325,127.73947 v 0.15043 l -0.62678,5.64095 -1.22847,1.3789 -1.10312,-1.2034 0.67691,-5.39025 1.75496,-1.9806 v 0.0251 l 0.10028,0.10028 0.0752,0.10029 0.15003,0.25071 0.0501,0.12534 c 0.10486,0.25531 0.14924,0.52733 0.15082,0.80227 z"
       id="path6205" />
    <path
       style="clip-rule:evenodd;fill-rule:evenodd;stroke-width:0.41784844"
       d="m 141.57264,142.55637 c -0.18844,0.89754 -0.58916,1.76792 -1.22889,2.43188 l -0.82734,-2.70765 0.75213,-5.28997 1.42946,-1.52932 0.77719,0.87748 -0.8779,6.06716 z"
       id="path6203" />
    <path
       style="clip-rule:evenodd;fill-rule:evenodd;stroke-width:0.41784844"
       d="m 141.54724,157.39835 c 0.16632,-0.17717 0.29166,-0.3301 0.47636,-0.50142 l 0.10028,-0.10028 0.12571,-0.0752 0.10028,-0.0752 0.10029,-0.10028 h 0.0251 l 1.55398,5.9418 -1.30368,9.87794 -2.85768,3.0085 -1.65509,-1.8051 c 1.00783,-4.79356 -0.49016,-11.93835 3.33441,-16.17073 z"
       id="path6201" />
    <path
       style="clip-rule:evenodd;fill-rule:evenodd;stroke-width:1.57926965"
       d="M 406.4668 82.34375 L 405.89844 82.4375 L 405.42773 82.4375 C 403.86584 82.775465 402.42763 83.66888 401.63477 85.091797 L 401.06641 86.511719 L 400.97461 87.080078 L 400.97461 104.80078 C 401.09468 106.429 402.10583 107.80118 403.43555 108.68555 C 404.15101 108.97612 405.0887 109.55712 405.90039 109.44336 L 406.37305 109.53906 L 479.62109 109.53906 L 480.0957 109.44336 C 481.33698 109.50497 483.42191 108.41813 484.07422 107.26367 L 484.64453 106.31641 L 484.83398 105.8418 L 485.02148 104.89453 L 485.02148 87.080078 C 484.9615 85.69662 483.80899 83.85322 482.55664 83.291016 L 482.17773 83.005859 L 481.70312 82.816406 L 481.13672 82.626953 L 480.66211 82.533203 L 480.1875 82.4375 L 479.61914 82.34375 L 406.4668 82.34375 z M 433.27148 86.980469 C 438.44514 86.777576 443.69466 91.508261 442.19336 98.546875 C 438.7253 111.31053 421.8261 105.48277 425.51367 93.240234 C 427.09017 89.000497 430.16729 87.102204 433.27148 86.980469 z M 406.46875 86.986328 L 409.69141 86.986328 L 409.69141 94.851562 L 418.4082 94.851562 L 418.4082 86.986328 L 421.72461 86.986328 L 421.72461 105.74805 L 418.4082 105.74805 L 418.4082 97.978516 L 409.69141 97.978516 L 409.69141 105.74805 L 406.46875 105.74805 L 406.46875 86.986328 z M 445.69922 86.986328 L 449.01367 86.986328 L 449.01367 102.62109 L 459.91211 102.62109 L 459.91211 105.74805 L 445.69922 105.74805 L 445.69922 86.986328 z M 463.22656 86.986328 L 472.51367 86.986328 C 479.1512 87.956042 480.25879 93.018322 479.61914 99.019531 C 478.08095 107.45914 469.91315 105.91057 463.22656 105.74805 L 463.22656 86.986328 z M 433.76953 88.462891 C 430.19531 88.525136 426.86565 94.179961 428.73633 99.587891 C 432.85193 109.6194 441.07369 101.5028 438.87695 93.808594 C 437.5822 89.933017 435.64174 88.430286 433.76953 88.462891 z M 469.3125 89.964844 C 468.28651 89.995315 467.29255 90.077754 466.44922 90.113281 L 466.44922 102.62109 C 474.57619 103.23073 477.21434 102.42509 476.30469 93.808594 C 475.76696 90.254061 472.39046 89.87343 469.3125 89.964844 z "
       transform="matrix(0.26458333,0,0,0.26458333,24.575937,125.35773)"
       id="path6199" />
    <path
       style="clip-rule:evenodd;fill-rule:evenodd;stroke-width:0.41784844"
       d="m 152.62858,156.42059 c 1.28531,-0.003 2.93372,0.35183 3.86092,1.30368 l -3.25879,3.63528 h -8.64988 l -1.32877,-4.93896 z"
       id="path6185" />
    <path
       style="clip-rule:evenodd;fill-rule:evenodd;stroke-width:0.41784844"
       d="m 151.8518,173.19303 2.05541,2.20624 -2.53217,2.73272 h -9.05018 l -1.95553,-2.10596 2.65751,-2.833 z"
       id="path6183" />
    <path
       style="clip-rule:evenodd;fill-rule:evenodd;stroke-width:0.41784844"
       d="m 158.31969,161.18406 -0.0251,0.15042 -1.20341,10.98106 -2.50709,2.65751 -2.15567,-2.30651 1.32875,-10.50472 3.50952,-3.83584 c 0.72705,0.768 1.10729,1.79967 1.05298,2.85808 z"
       id="path6181" />
    <path
       style="clip-rule:evenodd;fill-rule:evenodd;stroke-width:0.41784844"
       d="m 146.73734,135.43624 1.32876,-1.45411 h 4.41248 l 1.02749,1.15326 -1.25354,1.3789 h -4.53784 z"
       id="path6179" />
    <path
       style="clip-rule:evenodd;fill-rule:evenodd;stroke-width:0.41784844"
       d="m 155.71272,127.73947 v 0.15043 l -0.6017,5.64095 -1.25354,1.3789 -1.07847,-1.2034 0.65227,-5.39025 1.75454,-1.9806 c 0.33093,0.38484 0.56661,0.88709 0.5269,1.40397 z"
       id="path6177" />
    <path
       style="clip-rule:evenodd;fill-rule:evenodd;stroke-width:0.41784844"
       d="m 152.95492,125.35773 c 0.58751,0 1.45328,0.2294 1.85484,0.67692 l -1.62919,1.88032 h -4.31262 l -0.6765,-2.55724 z"
       id="path6175" />
    <path
       style="clip-rule:evenodd;fill-rule:evenodd;stroke-width:0.41784844"
       d="m 153.73213,142.55637 c -0.1638,0.90005 -0.58583,1.75204 -1.2034,2.43188 h -0.0251 l -0.82776,-2.70765 0.77761,-5.28997 1.42863,-1.52932 0.7772,0.87748 -0.90214,6.06716 z"
       id="path6173" />
    <path
       style="clip-rule:evenodd;fill-rule:evenodd;stroke-width:1.57926965"
       d="M 549.34375 303.00977 C 548.10164 302.96384 546.62448 303.41731 544.9082 304.54492 C 542.89783 306.82696 542.9603 312.65179 543.86523 315.34766 C 544.53799 317.53491 545.70005 318.3424 547.93945 318.75781 C 549.5408 318.7831 551.52273 318.73235 552.58398 317.33789 C 555.69563 312.76982 554.72621 303.20878 549.34375 303.00977 z M 548.79492 305.58789 L 548.88672 305.58789 L 549.64648 305.77734 L 550.21484 306.25195 C 550.8289 307.02264 551.03766 308.53299 550.97266 309.47266 C 551.03502 310.80713 551.05232 312.12219 550.87695 313.45508 C 550.70162 314.80059 550.7403 315.35785 549.55273 316.20117 L 548.79492 316.29688 L 548.60352 316.29688 L 547.8457 316.10742 L 547.27734 315.63281 L 546.89844 314.9707 L 546.89844 314.875 L 546.70898 314.02148 L 546.51758 312.50586 C 546.37849 311.74629 546.37547 309.93485 546.51758 309.18945 L 546.70898 307.67383 L 546.89844 306.91602 L 546.89844 306.82031 L 547.37305 306.1582 L 548.03516 305.68359 L 548.79492 305.58789 z "
       transform="matrix(0.26458333,0,0,0.26458333,24.575937,125.35773)"
       id="path6171" />
    <path
       style="clip-rule:evenodd;fill-rule:evenodd;stroke-width:1.57926965"
       d="M 548.76953 279.13672 C 547.52682 279.09627 546.0509 279.54896 544.33789 280.66797 C 542.31641 282.81259 542.37146 288.77079 543.29688 291.375 C 543.97122 293.5607 545.13209 294.3717 547.37305 294.78711 C 548.97916 294.8045 550.94802 294.76445 552.01562 293.36523 C 555.1542 288.74843 554.15459 279.31199 548.76953 279.13672 z M 548.22266 281.70898 L 548.31836 281.70898 L 549.07617 281.80469 L 549.64648 282.2793 C 550.60671 284.05594 550.52404 286.73436 550.40234 288.72266 C 550.40703 290.9446 549.1991 293.76532 546.70703 291.66016 C 546.07071 290.88475 546.10871 289.56503 545.94922 288.62695 C 545.88005 286.8708 545.83697 287.08564 545.94922 285.31055 L 546.13867 283.79492 L 546.32812 283.03711 L 546.32812 282.94141 L 546.80469 282.2793 L 547.4668 281.80469 L 548.22266 281.70898 z "
       transform="matrix(0.26458333,0,0,0.26458333,24.575937,125.35773)"
       id="path6169" />
    <path
       style="clip-rule:evenodd;fill-rule:evenodd;stroke-width:1.57926965"
       d="M 545.85547 242.48047 L 545.85547 263.42188 L 550.11914 263.42188 L 550.11914 254.04102 L 558.17188 254.04102 L 558.17188 263.42188 L 562.53125 263.42188 L 562.53125 242.48047 L 558.17188 242.48047 L 558.17188 250.44141 L 550.11914 250.44141 L 550.11914 242.48047 L 545.85547 242.48047 z M 564.90039 248.73438 L 564.90039 251.86133 L 572.00781 251.86133 L 564.42773 260.39062 L 564.42773 263.42188 L 577.41016 263.42188 L 577.41016 260.20117 L 569.54297 260.20117 L 577.125 251.95703 L 577.125 248.73438 L 564.90039 248.73438 z "
       transform="matrix(0.26458333,0,0,0.26458333,24.575937,125.35773)"
       id="path6167" />
    <path
       style="clip-rule:evenodd;fill-rule:evenodd;stroke-width:1.57926965"
       d="M 561.30078 303.12695 C 559.37564 303.21861 558.11102 303.43862 557.03711 305.20898 C 555.37574 307.61737 555.46111 313.39053 556.6582 316.01367 C 557.73529 319.39488 563.86082 319.71167 565.56641 316.76953 C 567.14409 314.14 567.18031 308.67466 565.94531 305.87305 C 565.26148 304.00161 563.21326 303.037 561.30078 303.12695 z M 561.30273 305.58594 L 561.39648 305.58594 L 562.15234 305.77539 L 562.72266 306.25 C 563.94484 307.9777 563.51644 311.44272 563.48242 313.45312 L 563.10156 314.96875 L 563.10156 315.0625 L 562.72266 315.72656 L 562.06055 316.20117 L 561.30273 316.29688 L 561.11133 316.29688 L 560.35352 316.10742 L 559.7832 315.63281 C 558.78488 314.3757 559.07497 310.82521 559.02734 309.1875 C 559.2232 307.93039 559.08453 307.21278 559.87891 306.15625 L 560.54297 305.68164 L 561.30273 305.58594 z "
       transform="matrix(0.26458333,0,0,0.26458333,24.575937,125.35773)"
       id="path6161" />
    <path
       style="clip-rule:evenodd;fill-rule:evenodd;stroke-width:1.57926965"
       d="M 561.01953 279.23047 C 559.37454 279.28633 557.78264 279.94911 557.03711 281.23633 C 555.41679 283.92584 555.41689 289.19482 556.6582 292.03906 C 557.73529 295.42185 563.86082 295.73905 565.56641 292.79688 C 567.1662 289.96684 567.1929 284.97264 565.94531 281.99414 C 565.33858 280.09045 563.13452 279.15865 561.01953 279.23047 z M 561.30273 281.70898 L 561.39648 281.70898 L 562.15234 281.80469 L 562.72266 282.2793 C 563.48518 283.47321 563.4042 284.11654 563.57617 285.5 C 563.53498 286.52176 563.66082 287.73238 563.48242 288.72266 L 563.48242 289.48047 L 563.10156 290.99609 L 563.10156 291.0918 L 562.72266 291.75391 L 562.06055 292.22852 L 561.30273 292.41797 L 561.11133 292.32227 L 560.35352 292.13281 L 559.7832 291.66016 C 558.77732 290.3541 559.07497 286.97664 559.02734 285.31055 C 559.2232 284.05344 559.08453 283.33579 559.87891 282.2793 L 560.54297 281.80469 L 561.30273 281.70898 z "
       transform="matrix(0.26458333,0,0,0.26458333,24.575937,125.35773)"
       id="path6157" />
    <path
       style="clip-rule:evenodd;fill-rule:evenodd;stroke-width:0.41784844"
       d="m 155.46209,195.68164 h 0.5265 v 2.73272 h -0.5265 v -2.00568 l -0.20097,0.15051 -0.2503,0.10028 -0.25112,0.0501 v -0.4262 l 0.25112,-0.0752 0.20016,-0.12539 0.15082,-0.1755 z"
       id="path6151" />
    <path
       style="clip-rule:evenodd;fill-rule:evenodd;stroke-width:1.57926965"
       d="M 501.88867 265.79102 L 500.8457 265.98047 C 497.71399 266.93907 498.42281 270.05167 498.38086 272.61328 C 498.42353 275.02795 500.64292 276.64825 502.92969 275.92969 C 505.98725 275.05953 505.40209 271.72579 505.39453 269.29688 L 505.20508 268.16016 L 504.73242 267.21289 L 503.97461 266.45508 L 502.92969 265.98047 L 501.88867 265.79102 z M 501.50781 267.78125 L 502.17383 267.78125 L 502.83789 268.06445 L 503.21484 268.63477 L 503.4043 269.29688 L 503.4043 272.61328 L 503.21484 273.27734 L 502.83789 273.75 L 502.17383 274.03516 L 501.50781 274.03516 L 500.93945 273.75 L 500.56055 273.27734 L 500.37305 272.61328 L 500.37305 269.29688 L 500.56055 268.63477 L 500.93945 268.06445 L 501.50781 267.78125 z "
       transform="matrix(0.26458333,0,0,0.26458333,24.575937,125.35773)"
       id="path6149" />
    <path
       style="clip-rule:evenodd;fill-rule:evenodd;stroke-width:1.57926965"
       d="M 55.019531 279.24609 L 55.019531 293.65039 L 58.619141 293.65039 L 58.619141 279.24609 L 55.019531 279.24609 z M 142.10156 279.24609 L 142.10156 293.65039 L 145.70117 293.65039 L 145.70117 279.24609 L 142.10156 279.24609 z M 229.18164 279.24609 L 229.18164 293.65039 L 232.78125 293.65039 L 232.78125 279.24609 L 229.18164 279.24609 z M 316.26172 279.24609 L 316.26172 293.65039 L 319.86328 293.65039 L 319.86328 279.24609 L 316.26172 279.24609 z M 403.34375 279.24609 L 403.34375 293.65039 L 406.94336 293.65039 L 406.94336 279.24609 L 403.34375 279.24609 z M 490.42383 279.24609 L 490.42383 293.65039 L 494.02539 293.65039 L 494.02539 279.24609 L 490.42383 279.24609 z M 72.455078 283.79492 L 72.455078 293.65039 L 76.054688 293.65039 L 76.054688 283.79492 L 72.455078 283.79492 z M 89.888672 283.79492 L 89.888672 293.65039 L 93.490234 293.65039 L 93.490234 283.79492 L 89.888672 283.79492 z M 107.23047 283.79492 L 107.23047 293.65039 L 110.92578 293.65039 L 110.92578 283.79492 L 107.23047 283.79492 z M 124.66406 283.79492 L 124.66406 293.65039 L 128.26562 293.65039 L 128.26562 283.79492 L 124.66406 283.79492 z M 159.53516 283.79492 L 159.53516 293.65039 L 163.13477 293.65039 L 163.13477 283.79492 L 159.53516 283.79492 z M 176.875 283.79492 L 176.875 293.65039 L 180.57031 293.65039 L 180.57031 283.79492 L 176.875 283.79492 z M 194.31055 283.79492 L 194.31055 293.65039 L 198.00586 293.65039 L 198.00586 283.79492 L 194.31055 283.79492 z M 211.74609 283.79492 L 211.74609 293.65039 L 215.3457 293.65039 L 215.3457 283.79492 L 211.74609 283.79492 z M 246.61523 283.79492 L 246.61523 293.65039 L 250.2168 293.65039 L 250.2168 283.79492 L 246.61523 283.79492 z M 263.95703 283.79492 L 263.95703 293.65039 L 267.65234 293.65039 L 267.65234 283.79492 L 263.95703 283.79492 z M 281.39258 283.79492 L 281.39258 293.65039 L 284.99219 293.65039 L 284.99219 283.79492 L 281.39258 283.79492 z M 298.82617 283.79492 L 298.82617 293.65039 L 302.42773 293.65039 L 302.42773 283.79492 L 298.82617 283.79492 z M 333.69727 283.79492 L 333.69727 293.65039 L 337.29883 293.65039 L 337.29883 283.79492 L 333.69727 283.79492 z M 351.03711 283.79492 L 351.03711 293.65039 L 354.73242 293.65039 L 354.73242 283.79492 L 351.03711 283.79492 z M 368.4707 283.79492 L 368.4707 293.65039 L 372.07227 293.65039 L 372.07227 283.79492 L 368.4707 283.79492 z M 385.90625 283.79492 L 385.90625 293.65039 L 389.50781 293.65039 L 389.50781 283.79492 L 385.90625 283.79492 z M 420.68164 283.79492 L 420.68164 293.65039 L 424.37695 293.65039 L 424.37695 283.79492 L 420.68164 283.79492 z M 438.11914 283.79492 L 438.11914 293.65039 L 441.71875 293.65039 L 441.71875 283.79492 L 438.11914 283.79492 z M 455.55273 283.79492 L 455.55273 293.65039 L 459.15234 293.65039 L 459.15234 283.79492 L 455.55273 283.79492 z M 472.98828 283.79492 L 472.98828 293.65039 L 476.58984 293.65039 L 476.58984 283.79492 L 472.98828 283.79492 z "
       transform="matrix(0.26458333,0,0,0.26458333,24.575937,125.35773)"
       id="path6145" />
    <path
       style="clip-rule:evenodd;fill-rule:evenodd;stroke-width:0.41784844"
       d="m 162.10547,199.91861 c 0.50393,0.0343 0.85157,-0.20098 0.95312,-0.70198 h 0.6769 v 4.11162 h -0.85241 v -2.833 h -0.97775 v -0.55156 z"
       id="path6143" />
    <path
       style="clip-rule:evenodd;fill-rule:evenodd;stroke-width:1.57926965"
       d="M 534.20312 279.23047 C 532.55813 279.28633 530.9662 279.94911 530.2207 281.23633 C 528.63821 283.90214 528.59259 289.21848 529.8418 292.03906 C 530.91885 295.42344 537.04405 295.73905 538.74805 292.79688 C 540.34962 289.96684 540.37653 284.97264 539.12891 281.99414 C 538.52217 280.09045 536.31811 279.15865 534.20312 279.23047 z M 534.34961 281.66797 C 534.82712 281.6493 535.37932 281.82882 536.00195 282.27734 C 536.52459 283.45701 536.73323 284.13551 536.66406 285.5 C 536.8126 286.27858 536.79521 287.94526 536.66406 288.7207 L 536.66406 289.48047 L 536.28516 290.99609 L 536.28516 291.08984 L 535.9082 291.75391 L 535.24414 292.22852 L 534.48438 292.41797 L 534.29492 292.32227 L 533.53906 292.22852 L 532.96875 291.66016 L 532.96875 291.6582 C 531.96124 290.35215 532.25856 286.97664 532.21094 285.31055 C 532.15884 283.56818 532.91709 281.72399 534.34961 281.66797 z "
       transform="matrix(0.26458333,0,0,0.26458333,24.575937,125.35773)"
       id="path6141" />
    <path
       style="clip-rule:evenodd;fill-rule:evenodd;stroke-width:0.41784844"
       d="m 166.94457,208.66837 c 0.33679,-0.81189 -0.48804,-1.559 -1.10353,-0.80227 l -0.75172,-0.0501 0.30085,-2.25597 h 2.33118 v 0.67693 h -1.72988 l -0.15051,0.90212 c 1.17164,-0.68485 2.43313,0.28455 1.93045,1.70482 -0.52188,1.31539 -2.79415,1.07639 -2.80751,-0.35099 h 0.82692 l 0.0501,0.20057 0.10029,0.1755 0.0254,0.0502 0.17549,0.0998 0.22565,0.0254 c 0.27034,0.0218 0.48136,-0.13282 0.57662,-0.37607 z"
       id="path6139" />
    <path
       style="clip-rule:evenodd;fill-rule:evenodd;stroke-width:0.41784844"
       d="m 146.71236,204.18067 2.40638,2.75822 -2.40638,2.7578 h -3.63529 l 2.4068,-2.7578 -2.4068,-2.75822 z"
       id="path6135" />
    <path
       style="clip-rule:evenodd;fill-rule:evenodd;stroke-width:0.41784844"
       d="m 137.51133,204.18067 2.4068,2.75822 -2.4068,2.7578 h -3.6357 l 2.38215,-2.7578 -2.38215,-2.75822 z"
       id="path6129" />
    <path
       style="clip-rule:evenodd;fill-rule:evenodd;stroke-width:0.41784844"
       d="m 132.89828,204.18067 2.40639,2.75822 -2.40639,2.7578 H 129.263 l 2.40681,-2.7578 -2.40681,-2.75822 z"
       id="path6127" />
    <path
       style="clip-rule:evenodd;fill-rule:evenodd;stroke-width:1.57926965"
       d="M 401.63477 265.79102 L 397.37305 272.42383 L 397.37305 274.41406 L 401.63477 274.41406 L 401.63477 276.11914 L 403.625 276.11914 L 403.625 274.41406 L 404.95312 274.41406 L 404.95312 272.51953 L 403.625 272.51953 L 403.625 265.79102 L 401.63477 265.79102 z M 401.63477 268.91797 L 401.63477 272.51953 L 399.36133 272.51953 L 401.63477 268.91797 z "
       transform="matrix(0.26458333,0,0,0.26458333,24.575937,125.35773)"
       id="path6125" />
    <path
       style="clip-rule:evenodd;fill-rule:evenodd;stroke-width:1.57926965"
       d="M 409.33398 265.85156 C 407.56579 265.86005 405.78933 267.26885 406.94141 270.05469 L 406.94336 270.05469 C 404.56339 272.32407 406.31801 276.60793 409.88086 276.02539 L 410.92188 275.74023 L 411.87109 275.07812 L 412.43945 274.12891 L 412.81836 273.08789 L 412.81836 271.95117 L 412.43945 270.9082 L 411.67969 270.05469 C 412.86255 267.2349 411.10217 265.84307 409.33398 265.85156 z M 409.31055 267.40234 L 409.97461 267.49609 L 410.35547 267.9707 L 410.54297 268.53906 L 410.35547 269.20312 L 409.97461 269.58203 L 409.31055 269.77148 L 408.74219 269.58203 L 408.26758 269.20312 L 408.17383 268.53906 L 408.26758 267.9707 L 408.74219 267.49609 L 409.31055 267.40234 z M 409.50195 271.09766 L 410.16602 271.38281 L 410.63672 271.95117 L 410.82617 272.61328 L 410.63672 273.27734 L 410.16602 273.8457 L 409.50195 274.13086 L 408.83789 274.03516 L 408.17383 273.5625 L 407.89062 272.99414 L 407.89062 272.23633 L 408.17383 271.66602 L 408.83789 271.19336 L 409.50195 271.09766 z "
       transform="matrix(0.26458333,0,0,0.26458333,24.575937,125.35773)"
       id="path6123" />
    <path
       style="clip-rule:evenodd;fill-rule:evenodd;stroke-width:0.41784844"
       d="m 133.62533,195.05486 h -2.53217 l 0.72706,-4.71334 h 2.50709 z"
       id="path6117" />
    <path
       style="clip-rule:evenodd;fill-rule:evenodd;stroke-width:0.41784844"
       d="m 150.99905,195.05486 h -10.27903 l -0.15003,-0.0251 h -0.1254 l -0.15082,-0.0251 c -0.1851,0.0226 -0.72997,-0.13739 -0.9272,-0.20056 -0.54613,-0.15003 -1.28112,-0.51563 -1.65509,-0.9527 l 3.03357,-3.7857 h 8.74975 z"
       id="path6109" />
    <path
       style="clip-rule:evenodd;fill-rule:evenodd;stroke-width:0.41784844"
       d="m 142.12395,204.18067 2.38173,2.75822 -2.38173,2.7578 h -3.66035 l 2.4068,-2.7578 -2.4068,-2.75822 z"
       id="path6107" />
    <path
       style="clip-rule:evenodd;fill-rule:evenodd;stroke-width:0.41784844"
       d="m 155.93844,204.18067 2.40638,2.75822 -2.40638,2.7578 h -3.6357 l 2.40681,-2.7578 -2.40681,-2.75822 z"
       id="path6103" />
    <path
       style="clip-rule:evenodd;fill-rule:evenodd;stroke-width:0.41784844"
       d="m 151.32539,204.18067 2.40681,2.75822 -2.40681,2.7578 h -3.6357 l 2.40722,-2.7578 -2.40722,-2.75822 z"
       id="path6101" />
    <path
       style="clip-rule:evenodd;fill-rule:evenodd;stroke-width:0.41784844"
       d="m 152.50372,197.08561 v -1.40397 h 1.85524 v 0.52648 h -1.30368 v 0.35099 c 0.9995,-0.14545 1.61415,0.63179 1.12777,1.47919 -0.55532,0.71661 -1.63128,0.33594 -1.67933,-0.55156 h 0.55156 l 0.0251,0.17549 0.12539,0.1505 0.17508,0.0752 0.1755,-0.0251 0.17592,-0.10029 0.0752,-0.1505 0.0251,-0.17549 -0.0752,-0.1755 -0.1254,-0.1254 -0.20056,-0.0501 z"
       id="path6099" />
    <path
       style="clip-rule:evenodd;fill-rule:evenodd;stroke-width:0.41784844"
       d="m 154.38404,189.71476 c -0.32718,1.82516 -1.18837,3.55547 -2.48203,4.88882 l -1.65509,-5.28995 1.52975,-10.25401 2.85765,-3.00851 1.55483,1.72989 -1.78004,11.8084 z"
       id="path6097" />
    <path
       style="clip-rule:evenodd;fill-rule:evenodd;stroke-width:0.41784844"
       d="m 139.71714,176.57759 2.30653,2.45695 -1.70483,10.15373 -3.20907,3.81077 c -0.60046,-0.76091 -0.8123,-1.63462 -0.852,-2.58229 -0.0485,-3.66286 0.87916,-7.58647 1.02791,-11.08136 z"
       id="path6095" />
    <path
       style="clip-rule:evenodd;fill-rule:evenodd;stroke-width:0.41784844"
       d="m 121.99204,127.78965 c 0.1434,-0.76801 0.81773,-1.90121 1.45454,-2.35666 l 0.77719,3.05865 -0.62676,5.06432 -1.42905,1.5544 -0.82776,-0.92763 0.62678,-6.26772 z"
       id="path6093" />
    <path
       style="clip-rule:evenodd;fill-rule:evenodd;stroke-width:0.41784844"
       d="m 126.95608,142.6567 0.75213,2.55723 h -4.93855 l -0.0756,0.0251 -0.12539,-0.0251 h -0.15003 l -0.12571,-0.0251 -0.12492,-0.0251 -0.15082,-0.0251 c -0.34139,-0.11282 -0.69697,-0.25948 -0.9527,-0.52649 l 1.52934,-1.95553 z"
       id="path6091" />
    <path
       style="clip-rule:evenodd;fill-rule:evenodd;stroke-width:0.41784844"
       d="m 120.68878,144.06067 c -0.29752,-0.56201 -0.30796,-0.69822 -0.35099,-1.30369 0.046,-1.88951 0.32383,-3.68458 0.52648,-5.61588 l 1.20299,-1.40397 1.15327,1.25354 -0.852,5.21475 -1.60495,1.95553 z"
       id="path6089" />
    <path
       style="clip-rule:evenodd;fill-rule:evenodd;stroke-width:0.41784844"
       d="m 119.36002,145.21393 h -1.3789 l 0.20057,-2.20624 h 1.37889 z"
       id="path6087" />
    <path
       style="clip-rule:evenodd;fill-rule:evenodd;stroke-width:0.41784844"
       d="m 109.80801,127.78965 c 0.14624,-0.68903 0.87706,-1.99982 1.47917,-2.35666 l 0.77721,3.05865 -0.65184,5.06432 -1.42905,1.5544 -0.82733,-0.92763 0.62676,-6.26772 z"
       id="path6085" />
    <path
       style="clip-rule:evenodd;fill-rule:evenodd;stroke-width:0.41784844"
       d="m 109.00574,144.71251 -0.10028,-0.10028 1.50425,-1.95553 h 4.3874 l 0.75213,2.55723 h -4.96404 l -0.0501,0.0251 -0.15035,-0.0251 h -0.12539 l -0.15035,-0.0251 -0.12539,-0.0251 -0.1254,-0.0251 c -0.31172,-0.0777 -0.60421,-0.2177 -0.85241,-0.4262 z"
       id="path6083" />
    <path
       style="clip-rule:evenodd;fill-rule:evenodd;stroke-width:0.41784844"
       d="m 105.79666,145.21393 0.22563,-2.20624 h 1.37891 l -0.22564,2.20624 z"
       id="path6081" />
    <path
       style="clip-rule:evenodd;fill-rule:evenodd;stroke-width:0.41784844"
       d="m 108.52938,144.06067 c -0.26825,-0.37565 -0.35516,-0.85116 -0.35099,-1.30369 -0.0196,-1.83686 0.47468,-3.92192 0.50142,-5.61588 l 1.22848,-1.40397 1.15326,1.25354 -0.85241,5.21475 -1.60453,1.95553 z"
       id="path6079" />
    <path
       style="clip-rule:evenodd;fill-rule:evenodd;stroke-width:0.41784844"
       d="m 110.23421,135.43628 1.32876,-1.45411 h 4.41248 l 1.0279,1.15326 -1.25354,1.3789 h -4.53783 z"
       id="path6077" />
    <path
       style="clip-rule:evenodd;fill-rule:evenodd;stroke-width:0.41784844"
       d="m 116.57713,125.35777 c 0.55992,0.0472 1.32918,0.23567 1.70483,0.67692 l -1.62962,1.88032 h -4.3122 l -0.65184,-2.55724 z"
       id="path6075" />
    <path
       style="clip-rule:evenodd;fill-rule:evenodd;stroke-width:0.41784844"
       d="m 117.22898,142.55641 c -0.16297,0.85325 -0.613,1.81598 -1.22848,2.43188 l -0.82734,-2.70765 0.77719,-5.28997 1.40397,-1.52932 0.77721,0.87748 -0.87749,6.06716 z"
       id="path6073" />
    <path
       style="clip-rule:evenodd;fill-rule:evenodd;stroke-width:0.41784844"
       d="m 119.20957,127.73951 v 0.15043 l -0.62676,5.64095 -1.22849,1.3789 -1.10312,-1.2034 0.67693,-5.39025 1.75496,-1.9806 v 0.0251 l 0.10028,0.10028 0.0752,0.10029 0.15034,0.25071 0.0502,0.12534 c 0.10313,0.30963 0.17342,0.47384 0.15035,0.80227 z"
       id="path6071" />
    <path
       style="clip-rule:evenodd;fill-rule:evenodd;stroke-width:0.41784844"
       d="m 117.15376,157.39839 c 0.27662,-0.33971 0.56201,-0.58875 0.90255,-0.85241 l 1.57947,5.94181 -1.30368,9.87793 -2.85809,3.00851 -1.65468,-1.80511 1.27861,-12.15938 v -0.15043 l 0.0501,-0.12535 0.0251,-0.15042 0.0251,-0.12535 0.0501,-0.12534 0.0251,-0.12537 0.0501,-0.15042 c 0.14087,-0.38944 0.33094,-0.75338 0.50142,-1.12819 0.38233,-0.67859 0.8056,-1.35091 1.32875,-1.93046 z"
       id="path6069" />
    <path
       style="clip-rule:evenodd;fill-rule:evenodd;stroke-width:1.57926965"
       d="M 277.41406 82.34375 L 276.93945 82.4375 L 276.37109 82.4375 C 274.81075 82.904952 273.45274 83.555192 272.67578 85.091797 L 272.39062 85.564453 L 272.20117 86.039062 L 272.10547 86.511719 L 272.01172 87.082031 L 272.01172 104.80078 C 272.18233 106.57905 273.08429 107.59583 274.38086 108.68555 L 275.80078 109.25391 L 276.36914 109.44336 L 276.84375 109.44336 L 277.41211 109.53906 L 336.44531 109.53906 L 336.91992 109.44336 C 338.16119 109.50497 340.24458 108.41813 340.89844 107.26367 L 341.4668 106.31641 L 341.65625 105.84375 L 341.75195 105.36914 L 341.8457 104.80078 L 341.8457 87.082031 L 341.84766 87.082031 C 341.78764 85.698611 340.63556 83.85322 339.38477 83.291016 L 339.00586 83.005859 L 338.53125 82.816406 L 337.96289 82.626953 L 337.48828 82.533203 L 337.01562 82.4375 L 336.44727 82.34375 L 277.41406 82.34375 z M 276.36914 86.986328 L 279.5918 86.986328 L 286.12891 102.05273 L 292.76172 86.986328 L 295.98438 86.986328 L 295.98438 105.74805 L 292.76172 105.74805 L 292.76172 94.472656 L 287.83594 105.74805 L 284.51953 105.74805 L 279.5918 94.472656 L 279.5918 105.74805 L 276.36914 105.74805 L 276.36914 86.986328 z M 299.30078 86.986328 L 314.55664 86.986328 L 314.55664 90.113281 L 302.52148 90.113281 L 302.52148 94.851562 L 312.37695 94.851562 L 312.37695 97.978516 L 302.52148 97.978516 L 302.52148 102.62109 L 314.55664 102.62109 L 314.55664 105.74805 L 299.30078 105.74805 L 299.30078 86.986328 z M 317.87305 86.986328 L 321.09375 86.986328 L 327.72656 102.05273 L 334.26562 86.986328 L 337.48828 86.986328 L 337.48828 105.74805 L 334.26562 105.74805 L 334.26562 94.472656 L 329.33789 105.74805 L 326.02148 105.74805 L 321.09375 94.472656 L 321.09375 105.74805 L 317.87305 105.74805 L 317.87305 86.986328 z "
       transform="matrix(0.26458333,0,0,0.26458333,24.575937,125.35773)"
       id="path6067" />
    <path
       style="clip-rule:evenodd;fill-rule:evenodd;stroke-width:1.57926965"
       d="M 355.58594 82.34375 L 355.01758 82.4375 C 353.44303 82.480133 351.98944 83.386951 351.03711 84.617188 L 350.75391 85.091797 L 350.18555 86.511719 L 350.08984 87.082031 L 350.08984 104.80078 C 350.41205 106.62799 351.03071 107.61798 352.55469 108.68555 C 353.26853 108.97612 354.20426 109.55712 355.01758 109.44336 L 355.49219 109.53906 L 388.27539 109.53906 L 388.8457 109.44336 C 390.4455 109.42442 391.81985 108.45759 392.82422 107.26367 L 393.10938 106.79102 L 393.67773 105.36914 L 393.77344 104.89453 L 393.77344 87.082031 C 393.53181 85.559638 392.74255 84.006405 391.30859 83.291016 C 390.57423 82.804439 389.71586 82.532366 388.8457 82.4375 L 388.37109 82.34375 L 355.58594 82.34375 z M 362.59766 86.986328 L 365.91211 86.986328 L 374.1582 105.74805 L 370.83984 105.74805 L 369.22852 102.14648 L 359.28125 102.14648 L 357.76562 105.74805 L 354.44922 105.74805 L 362.59766 86.986328 z M 364.30273 90.777344 L 360.70312 99.019531 L 367.90234 99.019531 L 364.30273 90.777344 z M 376.33594 94.283203 L 389.41211 94.283203 L 389.41211 97.410156 L 376.33594 97.410156 L 376.33594 94.283203 z "
       transform="matrix(0.26458333,0,0,0.26458333,24.575937,125.35773)"
       id="path6065" />
    <path
       style="clip-rule:evenodd;fill-rule:evenodd;stroke-width:0.41784844"
       d="m 97.648586,127.78965 c 0.13661,-0.76257 0.82651,-1.90205 1.45411,-2.35666 l 0.77721,3.05865 -0.62678,5.06432 -1.42903,1.5544 -0.82735,-0.92763 0.62678,-6.26772 z"
       id="path6057" />
    <path
       style="clip-rule:evenodd;fill-rule:evenodd;stroke-width:0.41784844"
       d="m 102.61263,142.6567 0.77721,2.55723 h -4.964044 l -0.0752,0.0251 -0.12539,-0.0251 h -0.12539 l -0.15035,-0.0251 -0.12539,-0.0251 -0.15035,-0.0251 c -0.3418,-0.1124 -0.69739,-0.25948 -0.9527,-0.52649 l 1.52932,-1.95553 z"
       id="path6055" />
    <path
       style="clip-rule:evenodd;fill-rule:evenodd;stroke-width:0.41784844"
       d="m 96.344896,144.06067 c -0.33469,-0.67942 -0.26909,-0.58499 -0.35099,-1.30369 0.046,-1.88951 0.32383,-3.68458 0.5265,-5.61588 l 1.22846,-1.40397 1.15327,1.25354 -0.85241,5.21475 -1.60454,1.95553 z"
       id="path6053" />
    <path
       style="clip-rule:evenodd;fill-rule:evenodd;stroke-width:1.57926965"
       d="M 257.93945 4.8164062 C 257.40774 4.8011804 256.85374 4.8371249 256.28125 4.9277344 C 251.89405 6.1942919 250.61838 10.687757 250.5957 14.78125 C 250.21193 26.79788 263.1846 28.021346 264.52539 17.625 L 261.20898 17.625 C 261.10006 20.04129 258.92799 21.988487 256.66016 20.941406 C 254.30823 20.012814 254.04939 17.048443 254.00781 14.876953 C 253.98094 12.88707 254.37917 9.6479792 256.37695 8.6230469 C 258.69841 7.3943603 260.91229 8.9806737 261.20898 11.464844 L 264.52539 11.464844 C 264.29181 7.5362233 261.66147 4.9229869 257.93945 4.8164062 z M 239.98242 4.8320312 L 234.29883 24.636719 L 237.70898 24.636719 L 238.8457 20.5625 L 244.62695 20.5625 L 245.66992 24.636719 L 249.26953 24.636719 L 243.67969 4.8320312 L 239.98242 4.8320312 z M 241.7832 9.3808594 L 243.77344 17.150391 L 239.69922 17.150391 L 241.7832 9.3808594 z "
       transform="matrix(0.26458333,0,0,0.26458333,24.575937,125.35773)"
       id="path6051" />
    <path
       style="clip-rule:evenodd;fill-rule:evenodd;stroke-width:1.57926965"
       d="M 257.78906 46.302734 C 255.76836 46.335241 253.74838 47.205798 252.67969 48.894531 C 250.57925 51.520849 250.26963 56.038858 250.88086 59.222656 C 252.10006 68.431248 263.52571 68.514494 264.52539 59.128906 L 261.20898 59.128906 C 261.05421 61.576755 258.95803 63.429199 256.66016 62.445312 C 254.33696 61.42038 254.03805 58.613955 254.00781 56.380859 C 253.99043 54.259902 254.38866 51.244138 256.37695 50.03125 C 258.9338 49.031565 260.77623 50.257128 261.20898 52.96875 L 264.52539 52.96875 C 264.70696 51.416309 263.29551 48.648534 262.06055 47.757812 C 260.93225 46.75942 259.36072 46.277452 257.78906 46.302734 z M 235.43359 46.335938 L 235.43359 66.140625 C 240.55198 65.499428 244.5323 67.925805 247.375 62.917969 L 247.37305 62.917969 C 248.88112 59.713647 249.11273 55.968509 248.50781 52.494141 C 248.31045 51.020654 247.50092 49.019593 246.42383 47.947266 L 246.04492 47.568359 L 245.57031 47.283203 L 245.19141 47 L 244.7168 46.714844 L 244.33984 46.621094 L 243.77148 46.431641 L 243.29688 46.431641 L 242.73047 46.335938 L 235.43359 46.335938 z M 240.55078 49.669922 C 244.4883 49.653659 245.20664 50.889816 245.48047 55.527344 C 245.48202 57.82832 245.15958 62.356592 242.16211 62.634766 L 241.69141 62.728516 L 238.6582 62.728516 L 238.6582 49.748047 C 239.36019 49.700864 239.98828 49.672245 240.55078 49.669922 z "
       transform="matrix(0.26458333,0,0,0.26458333,24.575937,125.35773)"
       id="path6049" />
    <path
       style="clip-rule:evenodd;fill-rule:evenodd;stroke-width:1.57926965"
       d="M 165.0293 2.1796875 L 165.0293 22.552734 L 176.9707 22.552734 L 176.9707 18.857422 L 168.53711 18.857422 L 168.53711 2.1796875 L 165.0293 2.1796875 z M 213.07227 2.1796875 L 213.07227 5.78125 L 221.50586 5.78125 L 212.78906 18.951172 L 212.78906 22.552734 L 225.95898 22.552734 L 225.95898 18.951172 L 217.14648 18.951172 L 225.95898 5.5898438 L 225.95898 2.1796875 L 213.07227 2.1796875 z M 190.90039 6.9179688 L 194.40625 22.552734 L 197.81641 22.552734 L 199.80859 11.181641 L 201.79883 22.552734 L 205.20898 22.552734 L 208.81055 6.9179688 L 205.39844 6.9179688 L 203.4082 18.193359 L 201.51367 6.9179688 L 198.19531 6.9179688 L 196.39648 18.099609 L 194.40625 6.9179688 L 190.90039 6.9179688 z M 184.36719 6.9199219 C 182.3927 6.8881408 180.40112 7.7086275 179.33984 9.2871094 C 177.23151 12.511953 177.241 17.0446 179.33984 20.277344 C 180.66173 22.028739 182.40926 22.626813 184.55078 22.552734 C 186.4554 22.585919 187.98465 21.696539 189.09961 20.183594 C 191.10231 17.096135 191.11624 12.84509 189.28906 9.6660156 C 188.29885 7.8356471 186.34168 6.951703 184.36719 6.9199219 z M 184.08398 10.140625 C 184.6602 10.174299 185.32144 10.434754 186.06641 10.992188 C 188.44796 13.588533 187.07515 22.021387 182.27734 18.572266 C 180.33318 16.402933 180.9724 9.9587868 184.08398 10.140625 z "
       transform="matrix(0.26458333,0,0,0.26458333,24.575937,125.35773)"
       id="path6047" />
    <path
       style="clip-rule:evenodd;fill-rule:evenodd;stroke-width:0.41784844"
       d="m 93.286246,136.01291 h -6.01701 l 0.47676,-2.7578 h 5.8411 z"
       id="path6041" />
    <path
       style="clip-rule:evenodd;fill-rule:evenodd;stroke-width:0.41784844"
       d="m 95.241776,162.48779 -1.30368,9.87793 -2.85809,3.00851 -1.65468,-1.80511 1.25355,-12.15938 0.0251,-0.15043 0.0254,-0.12535 0.0501,-0.15042 c 0.35516,-1.48462 1.64673,-3.53374 2.88316,-4.43755 z"
       id="path6035" />
    <path
       style="clip-rule:evenodd;fill-rule:evenodd;stroke-width:1.57926965"
       d="M 198.29102 72.962891 L 197.81445 73.056641 L 197.24805 73.056641 L 196.77344 73.246094 L 196.29883 73.341797 C 195.01647 73.67345 194.55147 73.955717 193.45703 74.667969 C 191.73088 75.877682 190.29787 77.464361 189.28711 79.310547 C 185.27737 86.085615 185.27748 95.661245 188.9082 102.62109 C 191.1808 106.40346 193.98857 109.36369 198.66797 109.53906 L 252.58594 109.53906 L 253.1543 109.44336 L 253.62891 109.44336 L 254.10156 109.25391 L 254.66992 109.16016 C 255.67909 108.8601 256.61978 108.41007 257.51367 107.83203 C 259.37244 106.46913 260.37396 105.14869 261.68164 103.28516 C 265.51295 96.424822 265.80918 86.785048 261.9668 79.878906 C 260.05591 76.173911 256.66587 73.108024 252.30078 72.962891 L 198.29102 72.962891 z M 233.17773 80.013672 C 236.24865 80.160407 239.26018 82.676481 239.12695 87.460938 L 236.00195 87.460938 C 236.19463 83.078462 230.33626 83.06429 230.03125 86.132812 C 229.53383 88.279055 230.81316 88.891738 232.58984 89.449219 C 233.82012 90.120425 235.72367 90.342933 236.94922 91.15625 L 237.42383 91.439453 L 237.80273 91.724609 L 238.18164 92.103516 L 238.27539 92.103516 C 243.16001 99.456624 235.0395 108.68643 228.04492 101.57812 L 228.04297 101.57812 C 226.98512 100.09991 226.60024 98.258544 226.61914 96.462891 L 229.74609 96.462891 C 230.04143 98.699161 230.67248 100.03348 233.1582 100.1582 C 235.45136 100.17241 236.70403 99.016514 236.47461 96.652344 C 235.67868 92.972671 227.66294 95.124697 226.99805 88.787109 C 226.14058 82.723752 229.69737 79.847372 233.17773 80.013672 z M 195.82422 80.732422 L 208.61914 80.732422 L 208.61914 84.712891 L 203.88086 84.712891 L 203.88086 103.47461 L 200.5625 103.47461 L 200.5625 84.712891 L 195.82422 84.712891 L 195.82422 80.732422 z M 211.65039 80.732422 L 223.02148 80.732422 L 223.02148 84.712891 L 214.87305 84.712891 L 214.87305 89.544922 L 222.35742 89.544922 L 222.35742 93.525391 L 214.87305 93.525391 L 214.87305 99.304688 L 223.39844 99.304688 L 223.39844 103.47461 L 211.65039 103.47461 L 211.65039 80.732422 z M 241.5 80.732422 L 254.29102 80.732422 L 254.29297 80.732422 L 254.29297 84.712891 L 249.55469 84.712891 L 249.55469 103.47461 L 246.23633 103.47461 L 246.23633 84.712891 L 241.5 84.712891 L 241.5 80.732422 z "
       transform="matrix(0.26458333,0,0,0.26458333,24.575937,125.35773)"
       id="path6033" />
    <path
       style="clip-rule:evenodd;fill-rule:evenodd;stroke-width:0.41784844"
       d="m 103.84111,156.42063 c 1.31456,0.001 2.89528,0.35266 3.86092,1.30368 l -3.28429,3.63528 h -8.624404 l -1.32875,-4.93896 z"
       id="path6023" />
    <path
       style="clip-rule:evenodd;fill-rule:evenodd;stroke-width:0.41784844"
       d="m 94.213876,173.19307 h 8.850034 l 2.05581,2.20624 -2.53215,2.73272 h -9.050614 l -1.95553,-2.10596 z"
       id="path6021" />
    <path
       style="clip-rule:evenodd;fill-rule:evenodd;stroke-width:0.41784844"
       d="m 109.5322,161.1841 -0.0251,0.15042 -1.22848,10.98106 -2.48201,2.65751 -2.1561,-2.30651 1.32875,-10.50472 3.48486,-3.83584 c 0.73918,0.74627 1.12359,1.80552 1.07804,2.85808 z"
       id="path6017" />
    <path
       style="clip-rule:evenodd;fill-rule:evenodd;stroke-width:0.41784844"
       d="m 98.074796,135.43628 1.30369,-1.45411 h 4.412484 l 1.05298,1.15326 -1.27863,1.3789 h -4.512764 z"
       id="path6015" />
    <path
       style="clip-rule:evenodd;fill-rule:evenodd;stroke-width:0.41784844"
       d="m 104.26731,125.35777 c 0.5875,0 1.45328,0.2294 1.85525,0.67692 l -1.6296,1.88032 h -4.3122 l -0.676924,-2.55724 z"
       id="path6013" />
    <path
       style="clip-rule:evenodd;fill-rule:evenodd;stroke-width:0.41784844"
       d="m 107.05019,127.73951 -0.0251,0.15043 -0.6017,5.64095 -1.25355,1.3789 -1.07804,-1.2034 0.67691,-5.39025 1.7299,-1.9806 c 0.37229,0.3652 0.53107,0.89169 0.55156,1.40397 z"
       id="path6011" />
    <path
       style="clip-rule:evenodd;fill-rule:evenodd;stroke-width:0.41784844"
       d="m 105.04452,142.55641 c -0.0706,0.42287 -0.22941,0.92387 -0.42622,1.30369 -0.0355,0.12243 -0.2695,0.45838 -0.35099,0.57663 l -0.0752,0.12536 -0.0752,0.10029 -0.10028,0.12536 -0.0752,0.10028 -0.10029,0.10029 h -0.0251 l -0.82733,-2.70766 0.77719,-5.28996 1.42905,-1.52933 0.77719,0.87749 -0.90255,6.06715 z"
       id="path6009" />
    <path
       style="clip-rule:evenodd;fill-rule:evenodd;stroke-width:0.41784844"
       d="m 123.69727,204.18071 2.38173,2.75822 -2.38173,2.7578 h -3.66035 l 2.40681,-2.7578 -2.40681,-2.75822 z"
       id="path6007" />
    <path
       style="clip-rule:evenodd;fill-rule:evenodd;stroke-width:0.41784844"
       d="m 109.85813,204.18071 2.40681,2.75822 -2.40681,2.7578 h -3.63529 l 2.40681,-2.7578 -2.40681,-2.75822 z"
       id="path5999" />
    <path
       style="clip-rule:evenodd;fill-rule:evenodd;stroke-width:1.57926965"
       d="M 322.04102 265.31641 L 321 265.50586 L 320.14648 266.07617 L 319.38867 266.83398 L 318.91406 267.78125 L 318.82031 268.82422 L 318.82031 272.61328 L 318.91406 273.75 L 319.48438 274.69922 L 320.24219 275.45703 C 326.74245 278.8224 328.0284 267.499 320.9043 269.39258 L 320.80859 268.72852 L 320.99805 268.06445 L 321.47266 267.5918 L 322.04102 267.30664 L 322.79883 267.40234 L 323.36914 267.78125 L 323.65234 268.34961 L 325.73633 268.34961 L 325.45312 267.30664 L 324.88477 266.45508 L 324.03125 265.79102 L 323.08398 265.41211 L 322.04102 265.31641 z M 322.06055 271.10938 C 322.82926 270.96607 323.59805 271.566 323.74805 272.61328 C 323.42743 274.95848 320.53237 274.36316 320.81055 272.23438 C 321.13803 271.54858 321.59932 271.19536 322.06055 271.10938 z "
       transform="matrix(0.26458333,0,0,0.26458333,24.575937,125.35773)"
       id="path5995" />
    <path
       style="clip-rule:evenodd;fill-rule:evenodd;stroke-width:0.41784844"
       d="m 108.55444,197.51184 c -0.006,1.20717 -1.86737,1.24227 -1.88032,0 h 0.52649 l 0.0752,0.20057 0.15034,0.1254 0.17551,0.0502 h 0.0251 l 0.15035,-0.0251 0.12539,-0.0752 0.0752,-0.12539 0.0501,-0.15035 v -0.0752 l -0.0501,-0.15051 -0.0752,-0.12539 -0.12539,-0.0752 -0.15035,-0.0251 h -0.27577 v -0.37606 h 0.27577 l 0.10028,-0.0251 0.0752,-0.0752 0.0752,-0.1254 0.0251,-0.10028 -0.0251,-0.10028 -0.0502,-0.10029 -0.0752,-0.0502 -0.10028,-0.0251 h -0.12539 l -0.10029,0.0752 -0.0501,0.1254 h -0.50142 c 0.0878,-1.37891 2.26141,-0.57956 1.30369,0.55156 l 0.20057,0.17549 0.12539,0.22564 z"
       id="path5993" />
    <path
       style="clip-rule:evenodd;fill-rule:evenodd;stroke-width:0.41784844"
       d="m 109.20629,195.0549 h -2.50709 l 0.70198,-4.71334 h 2.53216 z"
       id="path5991" />
    <path
       style="clip-rule:evenodd;fill-rule:evenodd;stroke-width:0.41784844"
       d="m 114.47118,204.18071 2.4068,2.75822 -2.4068,2.7578 h -3.63529 l 2.38174,-2.7578 -2.38174,-2.75822 z"
       id="path5985" />
    <path
       style="clip-rule:evenodd;fill-rule:evenodd;stroke-width:0.41784844"
       d="m 126.60507,195.0549 h -10.27865 l -0.15034,-0.0251 h -0.1254 l -0.1505,-0.0251 c -0.2365,0.018 -0.70072,-0.13613 -0.95269,-0.20056 -0.59041,-0.19138 -1.22346,-0.49724 -1.65468,-0.9527 l 3.05865,-3.7857 h 8.74932 z"
       id="path5983" />
    <path
       style="clip-rule:evenodd;fill-rule:evenodd;stroke-width:0.41784844"
       d="m 119.08422,204.18071 2.40681,2.75822 -2.40681,2.7578 h -3.63528 l 2.38174,-2.7578 -2.38174,-2.75822 z"
       id="path5981" />
    <path
       style="clip-rule:evenodd;fill-rule:evenodd;stroke-width:0.41784844"
       d="m 100.6571,204.18071 2.38174,2.75822 -2.38174,2.7578 h -3.660354 l 2.4068,-2.7578 -2.4068,-2.75822 z"
       id="path5979" />
    <path
       style="clip-rule:evenodd;fill-rule:evenodd;stroke-width:0.41784844"
       d="m 96.044046,204.18071 2.40681,2.75822 -2.40681,2.7578 h -3.63527 l 2.38173,-2.7578 -2.38173,-2.75822 z"
       id="path5975" />
    <path
       style="clip-rule:evenodd;fill-rule:evenodd;stroke-width:0.41784844"
       d="m 86.817956,204.18071 2.40723,2.75822 -2.40723,2.7578 h -3.63527 l 2.40721,-2.7578 -2.40721,-2.75822 z"
       id="path5971" />
    <path
       style="clip-rule:evenodd;fill-rule:evenodd;stroke-width:1.57926965"
       d="M 235.33984 265.79102 L 231.07617 272.42383 L 231.07617 274.41406 L 235.33984 274.41406 L 235.33984 276.11914 L 237.33008 276.11914 L 237.33008 274.41406 L 238.65625 274.41406 L 238.65625 272.51953 L 237.33008 272.51953 L 237.33008 265.79102 L 235.33984 265.79102 z M 235.33984 268.91797 L 235.33984 272.51953 L 233.06641 272.51953 L 235.33984 268.91797 z "
       transform="matrix(0.26458333,0,0,0.26458333,24.575937,125.35773)"
       id="path5969" />
    <path
       style="clip-rule:evenodd;fill-rule:evenodd;stroke-width:0.41784844"
       d="m 84.386086,197.88794 h 1.00241 v 0.52649 h -1.72989 v -0.55156 l 1.07805,-1.2034 0.0752,-0.1505 v -0.17551 l -0.10029,-0.12539 -0.1755,-0.0752 -0.17549,0.0251 -0.12539,0.12539 -0.0501,0.1505 h -0.57663 c 0.0317,-0.69655 0.83068,-1.13947 1.40397,-0.70198 l 0.20014,0.1755 0.1254,0.25071 0.0502,0.27577 -0.0251,0.27579 -0.1254,0.25071 -0.0254,0.0251 z"
       id="path5961" />
    <path
       style="clip-rule:evenodd;fill-rule:evenodd;stroke-width:0.41784844"
       d="m 84.812286,195.05493 h -2.50709 l 0.70198,-4.71333 h 2.50709 z"
       id="path5959" />
    <path
       style="clip-rule:evenodd;fill-rule:evenodd;stroke-width:0.41784844"
       d="M 102.2115,195.05493 H 91.907356 l -0.12539,-0.0251 h -0.15035 l -0.12539,-0.0251 c -0.22816,0.0229 -0.70575,-0.13961 -0.9527,-0.20057 -0.55909,-0.18302 -1.26149,-0.50184 -1.65468,-0.95269 l 3.03357,-3.78571 h 8.774824 z"
       id="path5955" />
    <path
       style="clip-rule:evenodd;fill-rule:evenodd;stroke-width:0.41784844"
       d="m 91.431006,204.18074 2.4068,2.75821 -2.4068,2.7578 h -3.63528 l 2.40722,-2.7578 -2.40722,-2.75821 z"
       id="path5953" />
    <path
       style="clip-rule:evenodd;fill-rule:evenodd;stroke-width:0.41784844"
       d="m 105.24508,204.18074 2.40681,2.75821 -2.40681,2.7578 h -3.63529 l 2.40681,-2.7578 -2.40681,-2.75821 z"
       id="path5951" />
    <path
       style="clip-rule:evenodd;fill-rule:evenodd;stroke-width:0.41784844"
       d="m 105.84679,176.05117 1.52931,1.7299 -1.78002,11.80841 -0.0501,0.25071 -0.0251,0.1505 -0.0251,0.12539 c -0.033,0.23148 -0.10202,0.45712 -0.1755,0.67691 -0.14166,0.43289 -0.33678,1.00535 -0.55156,1.40397 -0.1943,0.43624 -0.47217,0.91509 -0.75213,1.30369 -0.12208,0.19932 -0.28371,0.36645 -0.4262,0.55156 l -0.10028,0.10028 -0.0752,0.12539 -0.20057,0.20057 -0.0752,0.10029 -0.0501,0.0251 -1.62961,-5.28995 1.52933,-10.25401 z"
       id="path5947" />
    <path
       style="clip-rule:evenodd;fill-rule:evenodd;stroke-width:0.41784844"
       d="m 90.904516,176.57767 2.33159,2.45695 -1.70482,10.15372 -3.20908,3.81078 c -0.56116,-0.61424 -0.8758,-1.7579 -0.85241,-2.58231 -0.0777,-0.45671 0.0289,-0.91801 0,-1.37889 0.24195,-3.23165 0.50644,-6.45034 1.00243,-9.70245 z"
       id="path5945" />
    <path
       style="clip-rule:evenodd;fill-rule:evenodd;stroke-width:0.41784844"
       d="m 115.32359,176.57767 2.30652,2.45695 -1.70482,10.15372 -3.20908,3.81078 c -0.6347,-0.86579 -0.81229,-1.52515 -0.85241,-2.58231 -0.0706,-3.71342 0.89085,-7.3746 1.0279,-11.08134 z"
       id="path5943" />
    <path
       style="clip-rule:evenodd;fill-rule:evenodd;stroke-width:1.57926965"
       d="M 183.69922 36.955078 L 183.69922 61.970703 L 194.02734 61.970703 L 194.50195 61.876953 L 195.07031 61.876953 L 195.54492 61.78125 C 196.33772 61.530138 196.91352 61.554082 197.62891 61.023438 C 198.99815 60.066423 199.95143 58.623832 200.4707 57.042969 C 201.23511 53.944436 200.84906 50.047505 197.62891 48.515625 C 200.6627 46.849496 200.69788 42.355693 199.24023 39.609375 L 199.14453 39.609375 C 198.23487 37.796373 196.19143 37.144432 194.31055 36.955078 L 183.69922 36.955078 z M 202.83789 36.955078 L 202.83789 41.408203 L 209.0918 41.408203 L 209.0918 61.970703 L 213.45117 61.970703 L 213.45117 41.408203 L 219.70508 41.408203 L 219.70508 36.955078 L 202.83789 36.955078 z M 187.86719 41.314453 L 193.36328 41.314453 L 193.83789 41.408203 L 194.40625 41.503906 C 196.07695 42.122993 196.17812 43.325339 195.92188 44.914062 C 195.45121 45.997464 195.68764 46.09426 194.5 46.525391 L 194.02734 46.714844 L 193.45898 46.810547 L 187.86719 46.810547 L 187.86719 41.314453 z M 187.86523 50.978516 L 193.55273 50.978516 L 194.11914 51.074219 L 194.5957 51.167969 C 196.35995 51.548567 196.73572 54.161271 196.20508 55.527344 L 196.11133 56 L 195.82422 56.474609 L 195.06836 57.232422 L 194.97266 57.232422 L 194.49805 57.421875 L 194.02539 57.517578 L 193.45703 57.611328 L 187.86523 57.611328 L 187.86523 50.978516 z "
       transform="matrix(0.26458333,0,0,0.26458333,24.575937,125.35773)"
       id="path5939" />
    <path
       style="clip-rule:evenodd;fill-rule:evenodd;stroke-width:1.57926965"
       d="M 149.08789 2.5878906 C 144.38081 2.6224455 140.36745 7.3541431 140.86914 13.076172 C 140.06376 20.514547 148.55057 27.197749 153.94531 20.087891 L 154.32422 22.552734 L 156.5957 22.552734 L 156.5957 12.128906 L 149.58594 12.128906 L 149.58594 15.351562 L 153.4707 15.351562 C 152.61948 21.681288 144.30472 20.880154 144.46875 13.550781 C 144.41981 11.121868 144.76264 7.7629869 147.2168 6.5390625 C 149.38984 5.1793019 152.77432 6.471885 153.0918 9.1914062 L 156.59766 9.1914062 C 156.40978 7.6152677 155.82281 6.0742919 154.70312 4.9277344 C 152.87803 3.2807556 150.92979 2.5743691 149.08789 2.5878906 z M 113.76758 2.6542969 L 107.70312 23.025391 L 111.39844 23.025391 L 112.53516 18.857422 L 118.79102 18.857422 L 119.92773 23.025391 L 123.7168 23.025391 L 117.75 2.6542969 L 113.76758 2.6542969 z M 124.66406 2.6542969 L 130.44531 23.025391 L 133.76172 23.025391 L 139.54102 2.6542969 L 135.8457 2.6542969 L 132.15039 18.099609 L 128.45312 2.6542969 L 124.66406 2.6542969 z M 115.66211 7.296875 L 117.8418 15.351562 L 113.48438 15.351562 L 115.66211 7.296875 z "
       transform="matrix(0.26458333,0,0,0.26458333,24.575937,125.35773)"
       id="path5927" />
    <path
       style="clip-rule:evenodd;fill-rule:evenodd;stroke-width:0.41784844"
       d="m 63.953266,139.4226 v 0.77719 l -1.72988,2.08089 h 1.78002 v 0.7772 h -2.95837 v -0.72711 l 1.72991,-2.13102 h -1.60454 v -0.7772 z"
       id="path5925" />
    <path
       style="clip-rule:evenodd;fill-rule:evenodd;stroke-width:0.41784844"
       d="m 60.618836,138.19412 v 4.86376 h -1.00243 v -2.15609 h -1.85525 v 2.15609 h -0.97775 v -4.86375 h 0.97775 v 1.85524 h 1.85525 v -1.85524 z"
       id="path5921" />
    <path
       style="clip-rule:evenodd;fill-rule:evenodd;stroke-width:0.41784844"
       d="m 68.817016,156.89702 0.12571,-0.10029 0.20015,-0.15042 0.1254,-0.10029 1.55482,5.94181 -1.27904,9.87794 -2.88273,3.00851 -1.62962,-1.80511 1.25355,-12.15939 0.0251,-0.15042 0.0254,-0.12535 0.0251,-0.15043 c 0.0794,-0.21519 0.13077,-0.44041 0.22565,-0.65184 0.16797,-0.45002 0.34556,-0.83444 0.57662,-1.25355 0.44795,-0.79934 1.00786,-1.52974 1.65385,-2.18116 z"
       id="path5919" />
    <path
       style="clip-rule:evenodd;fill-rule:evenodd;stroke-width:1.57926965"
       d="M 169.87695 84.6875 C 164.85027 84.593709 159.85889 88.815857 160.38867 95.798828 C 161.44679 106.4684 174.75454 108.3211 178.48633 98.167969 L 174.69531 98.167969 L 174.0332 99.210938 C 169.88608 104.3167 163.32864 100.31606 163.80078 94.09375 C 164.56825 87.835079 171.48778 85.607226 174.69531 91.439453 L 178.48633 91.439453 C 176.77139 86.835488 173.31626 84.751673 169.87695 84.6875 z M 148.63867 84.712891 L 141.05859 104.89453 L 144.56445 104.89453 L 145.98438 100.91602 L 154.70312 100.91602 L 156.21875 104.89453 L 159.72656 104.89453 L 152.14453 84.712891 L 148.63867 84.712891 z M 110.41016 84.867188 C 105.4092 84.763016 100.38014 88.975284 100.78711 95.988281 C 102.08368 106.59152 115.16877 108.61162 118.88477 98.357422 L 115.18945 98.357422 C 113.94969 100.64736 112.05984 101.91383 109.4082 101.67383 C 98.155945 98.613242 107.71472 80.784043 115.18945 91.628906 L 118.88477 91.628906 C 117.23976 87.029424 113.83187 84.938463 110.41016 84.867188 z M 90.126953 84.892578 C 88.204284 84.874917 87.038001 85.483928 82.6875 84.902344 L 82.6875 105.08398 C 89.299897 105.68882 97.351991 105.99967 98.417969 97.789062 C 98.861761 91.931552 98.679026 87.195953 92.447266 85.185547 C 91.492198 84.973156 90.767843 84.898465 90.126953 84.892578 z M 129.02344 86.511719 L 129.02344 94.1875 L 122.10547 94.1875 L 122.10547 97.220703 L 129.02344 97.220703 L 129.02344 104.89453 L 132.9082 104.89453 L 132.9082 97.220703 L 139.91992 97.220703 L 139.91992 94.1875 L 132.9082 94.1875 L 132.9082 86.511719 L 129.02344 86.511719 z M 86.193359 88.3125 L 90.835938 88.3125 C 95.832737 89.147927 95.068582 93.771388 94.912109 97.789062 C 94.011939 102.24263 89.933051 102.01552 86.193359 101.76758 L 86.193359 88.3125 z M 150.34375 89.355469 L 153.4707 97.599609 L 147.2168 97.599609 L 150.34375 89.355469 z "
       transform="matrix(0.26458333,0,0,0.26458333,24.575937,125.35773)"
       id="path5917" />
    <path
       style="clip-rule:evenodd;fill-rule:evenodd;stroke-width:1.57926965"
       d="M 48.859375 2.1796875 L 48.859375 22.552734 L 52.175781 22.552734 L 52.175781 7.5800781 C 52.175781 6.8535773 52.175378 6.1288067 52.173828 5.4023438 L 55.396484 22.552734 L 58.808594 22.552734 L 62.029297 5.4023438 L 62.029297 22.552734 L 65.345703 22.552734 L 65.345703 2.1796875 L 60.230469 2.1796875 L 57.103516 18.193359 L 54.072266 2.1796875 L 48.859375 2.1796875 z M 73.496094 2.1796875 L 67.431641 22.552734 L 71.126953 22.552734 L 72.265625 18.382812 L 78.519531 18.382812 L 79.658203 22.552734 L 83.445312 22.552734 L 77.478516 2.1796875 L 73.496094 2.1796875 z M 84.486328 2.1796875 L 89.697266 12.128906 L 84.203125 22.552734 L 88.373047 22.552734 L 91.785156 15.541016 L 95.005859 22.552734 L 99.269531 22.552734 L 93.773438 12.035156 L 98.984375 2.1796875 L 94.910156 2.1796875 L 91.783203 8.8125 L 88.75 2.1796875 L 84.486328 2.1796875 z M 75.392578 6.8222656 L 77.570312 14.876953 L 73.212891 14.876953 L 75.392578 6.8222656 z "
       transform="matrix(0.26458333,0,0,0.26458333,24.575937,125.35773)"
       id="path5907" />
    <path
       style="clip-rule:evenodd;fill-rule:evenodd;stroke-width:0.41784844"
       d="m 51.217236,143.05787 h -0.95227 v -3.33443 h -1.10355 v -0.65184 c 0.6226,-0.0506 1.20676,-0.0673 1.27904,-0.87748 h 0.77678 z"
       id="path5903" />
    <path
       style="clip-rule:evenodd;fill-rule:evenodd;stroke-width:1.57926965"
       d="M 73.306641 39.988281 L 70.9375 41.314453 C 71.054514 42.141981 71.420442 43.01292 71.505859 43.966797 C 71.763585 45.072309 71.659965 45.815572 71.980469 47 C 72.128626 49.17149 72.33668 51.136708 72.265625 53.347656 C 72.243553 57.155303 71.704514 61.535759 70.654297 65.193359 L 73.212891 66.140625 C 75.396928 57.645759 75.460692 49.079967 73.496094 40.556641 L 73.306641 39.988281 z M 68.472656 42.261719 L 66.007812 43.494141 L 66.103516 43.587891 L 66.197266 44.0625 L 66.292969 44.630859 L 66.388672 45.103516 L 66.484375 45.671875 C 66.55543 46.526275 66.761972 47.372932 66.769531 48.230469 C 66.911641 49.361228 67.152874 52.19579 66.958984 53.253906 C 67.05215 56.352439 66.386148 59.998818 65.632812 63.013672 L 68.189453 63.960938 C 68.386593 62.757498 68.765848 61.4807 68.947266 60.169922 C 69.190629 58.97442 69.397245 57.789513 69.419922 56.570312 C 69.681843 54.165097 69.667247 51.317133 69.517578 48.894531 C 69.239632 46.681996 69.11699 44.412686 68.472656 42.261719 z M 57.388672 42.640625 L 49.427734 47.851562 L 49.427734 58.275391 L 57.388672 63.486328 L 57.388672 42.640625 z M 63.640625 44.441406 L 61.177734 45.671875 C 62.090264 50.908751 61.900852 55.679238 60.607422 60.833984 L 63.074219 61.6875 C 63.895246 59.026448 64.207635 55.834507 64.400391 53.064453 C 64.397216 50.329171 64.252612 47.6004 63.736328 44.914062 L 63.640625 44.441406 z M 44.216797 47.851562 L 44.216797 58.275391 L 46.775391 58.275391 L 46.775391 47.851562 L 44.216797 47.851562 z "
       transform="matrix(0.26458333,0,0,0.26458333,24.575937,125.35773)"
       id="path5901" />
    <path
       style="clip-rule:evenodd;fill-rule:evenodd;stroke-width:1.57926965"
       d="M 0.53320312 2.1796875 L 0.53320312 22.552734 L 3.8515625 22.552734 L 3.8515625 5.4023438 L 7.0722656 22.552734 L 10.484375 22.552734 L 13.705078 5.4023438 L 13.705078 6.5390625 C 13.705078 11.876965 13.704675 17.214794 13.703125 22.552734 L 17.019531 22.552734 L 17.019531 2.1796875 L 11.904297 2.1796875 L 8.7773438 18.193359 L 5.7460938 2.1796875 L 0.53320312 2.1796875 z M 19.958984 2.1796875 L 19.958984 22.552734 L 23.464844 22.552734 L 23.464844 2.1796875 L 19.958984 2.1796875 z M 26.779297 2.1796875 L 26.779297 22.552734 L 30.097656 22.552734 L 30.097656 8.0546875 L 37.015625 22.552734 L 40.521484 22.552734 L 40.521484 2.1796875 L 37.205078 2.1796875 L 37.205078 16.392578 L 30.476562 2.1796875 L 26.779297 2.1796875 z "
       transform="matrix(0.26458333,0,0,0.26458333,24.575937,125.35773)"
       id="path5897" />
    <path
       style="clip-rule:evenodd;fill-rule:evenodd;stroke-width:1.57926965"
       d="M 6.125 114.75 L 6.125 123.08789 L 0.53515625 123.08789 L 0.53515625 136.82812 L 6.125 136.82812 L 6.125 145.16602 L 54.734375 145.16602 L 54.734375 114.75 L 6.125 114.75 z M 14.841797 123.18359 L 19.865234 123.18359 L 19.865234 127.44727 L 24.128906 127.44727 L 24.128906 132.46875 L 19.865234 132.46875 L 19.865234 136.73242 L 14.841797 136.73242 L 14.841797 132.46875 L 10.578125 132.46875 L 10.578125 127.44727 L 14.841797 127.44727 L 14.841797 123.18359 z M 34.361328 127.44727 L 47.912109 127.44727 L 47.912109 132.46875 L 34.361328 132.46875 L 34.361328 127.44727 z "
       transform="matrix(0.26458333,0,0,0.26458333,24.575937,125.35773)"
       id="path5885" />
    <path
       style="clip-rule:evenodd;fill-rule:evenodd;stroke-width:1.57926965"
       d="M 7.1679688 153.88477 L 0.53515625 172.45703 L 4.609375 172.45703 L 5.8417969 168.66602 L 12.664062 168.66602 L 13.894531 172.45703 L 18.066406 172.45703 L 11.525391 153.88477 L 7.1679688 153.88477 z M 9.3476562 158.14844 L 11.621094 165.44531 L 6.8828125 165.44531 L 9.3476562 158.14844 z M 41.332031 158.18164 C 39.731894 158.16521 37.96405 158.71915 36.162109 160.04297 C 33.415753 162.84462 33.37795 167.73201 35.783203 170.75 C 37.670435 173.54844 43.878322 173.63873 45.921875 171.13086 C 50.617761 165.57873 47.046807 158.24033 41.332031 158.18164 z M 26.837891 158.41211 C 25.446214 158.51634 24.061175 159.23042 22.990234 160.70703 L 22.990234 158.7168 L 19.580078 158.7168 L 19.580078 177.85742 L 23.085938 177.85742 L 23.085938 170.75 L 23.181641 170.8457 L 23.558594 171.32031 L 23.84375 171.69922 L 23.845703 171.69922 C 28.624576 175.07097 33.466011 170.72715 32.84375 164.9707 C 32.993627 160.90674 29.89958 158.1828 26.837891 158.41211 z M 40.9375 161.26953 C 41.570369 161.28676 42.287736 161.5192 43.080078 162.0332 C 45.629029 164.73851 44.241005 171.81106 39.384766 169.51953 C 36.553178 167.37019 37.520006 161.17651 40.9375 161.26953 z M 25.822266 161.48242 C 27.938038 161.29838 29.989364 164.20622 28.958984 167.24414 C 27.051268 172.72737 21.482327 168.87087 23.181641 163.92773 C 23.886393 162.28727 24.860551 161.56608 25.822266 161.48242 z "
       transform="matrix(0.26458333,0,0,0.26458333,24.575937,125.35773)"
       id="path5883" />
    <path
       style="clip-rule:evenodd;fill-rule:evenodd;stroke-width:0.41784844"
       d="m 43.946676,157.39843 c 0.16547,-0.17717 0.29124,-0.3301 0.47635,-0.50142 l 0.10028,-0.10028 0.10029,-0.0752 0.12539,-0.0752 0.10029,-0.10028 h 0.0251 l 1.55439,5.9418 -1.30327,9.87794 -2.8585,3.00851 -1.65468,-1.8051 c 1.04712,-4.79357 -0.50517,-11.93501 3.33442,-16.17074 z"
       id="path5879" />
    <path
       style="clip-rule:evenodd;fill-rule:evenodd;stroke-width:1.57926965"
       d="M 5.1796875 79.878906 L 4.7050781 79.974609 C 3.3168954 80.3094 1.6491081 81.528689 1.1972656 82.912109 C -0.83060209 88.000525 0.24527197 99.016602 0.63085938 102.7168 C 0.8882452 104.24871 1.6907717 105.71719 3 106.60156 C 3.7311874 107.10855 4.5943174 107.32689 5.4628906 107.45312 L 67.623047 107.45312 L 68.191406 107.35938 C 69.735948 106.92666 71.022885 105.89377 71.697266 104.42188 C 73.567187 99.292414 72.099704 88.955443 72.265625 84.617188 C 71.902412 83.104243 71.201953 81.537877 69.802734 80.732422 C 69.068372 80.245883 68.209967 79.973772 67.339844 79.878906 L 5.1796875 79.878906 z M 60.648438 84.675781 C 63.382749 84.544223 66.213537 85.611897 67.714844 87.839844 C 70.142094 91.134193 70.036941 98.329051 67.148438 101.29492 C 64.427404 104.79775 56.998521 104.64853 54.640625 100.63086 C 52.153394 97.434437 52.190006 90.149551 55.113281 87.175781 C 56.452966 85.605295 58.521751 84.778104 60.648438 84.675781 z M 10.578125 84.712891 L 14.652344 84.712891 L 20.71875 103.75781 L 16.833984 103.75781 L 15.697266 99.873047 L 9.3476562 99.873047 L 8.2089844 103.75781 L 4.4199219 103.75781 L 10.578125 84.712891 z M 21.285156 84.712891 L 24.884766 84.712891 L 24.884766 96.652344 L 24.980469 97.125 L 24.980469 97.693359 L 25.074219 98.167969 L 25.263672 98.640625 C 25.52737 99.660833 25.888304 99.865043 26.876953 100.25195 C 28.53987 100.80943 30.705682 100.38107 31.236328 98.451172 L 31.332031 97.882812 L 31.427734 97.410156 L 31.427734 84.712891 L 35.123047 84.712891 L 35.123047 97.125 L 35.027344 97.693359 L 35.027344 98.167969 L 34.931641 98.736328 L 34.835938 99.210938 C 34.455301 100.45856 34.332621 100.96089 33.320312 101.95898 C 31.876835 103.45469 29.63222 103.84777 27.632812 103.75781 C 25.432901 103.59832 23.600994 103.06693 22.328125 101.10547 C 21.450027 99.584625 21.737583 99.899426 21.378906 98.261719 L 21.285156 97.693359 L 21.285156 84.712891 z M 37.869141 84.712891 L 51.892578 84.712891 L 51.892578 88.123047 L 46.679688 88.123047 L 46.679688 103.75781 L 43.080078 103.75781 L 43.080078 88.123047 L 37.869141 88.123047 L 37.869141 84.712891 z M 61.085938 87.896484 C 59.598665 87.908919 58.127777 88.62978 57.388672 90.019531 C 56.036659 92.058397 56.094515 97.003816 57.673828 98.925781 C 59.568959 101.38312 63.539522 101.09334 64.96875 98.261719 C 66.174079 95.927558 66.024329 92.334756 64.873047 90.019531 C 64.07551 88.580041 62.57321 87.88405 61.085938 87.896484 z M 12.566406 89.070312 L 10.294922 96.556641 L 14.746094 96.556641 L 12.566406 89.070312 z "
       transform="matrix(0.26458333,0,0,0.26458333,24.575937,125.35773)"
       id="path5877" />
    <path
       style="clip-rule:evenodd;fill-rule:evenodd;stroke-width:0.41784844"
       d="m 62.825076,135.76224 3.9612,7.64662 1.07804,-0.45127 -4.28754,-8.2734 h -14.01463 v 1.07805 z"
       id="path5867" />
    <path
       style="clip-rule:evenodd;fill-rule:evenodd;stroke-width:0.41784844"
       d="m 55.028016,156.42067 c 1.28489,-0.003 2.93371,0.35183 3.86092,1.30368 l -3.25922,3.63528 h -8.64946 l -1.32876,-4.93896 z"
       id="path5865" />
    <path
       style="clip-rule:evenodd;fill-rule:evenodd;stroke-width:0.41784844"
       d="m 53.774466,178.13208 h -9.05018 l -1.95594,-2.10596 2.65752,-2.83302 h 8.82496 l 2.05581,2.20624 z"
       id="path5861" />
    <path
       style="clip-rule:evenodd;fill-rule:evenodd;stroke-width:0.41784844"
       d="m 60.719116,161.18414 -0.0251,0.15042 -1.2034,10.98106 -2.50709,2.65752 -2.1561,-2.30653 1.32876,-10.50471 3.50993,-3.83585 c 0.73081,0.78222 1.10396,1.78464 1.05298,2.85809 z"
       id="path5859" />
    <path
       style="clip-rule:evenodd;fill-rule:evenodd;stroke-width:0.41784844"
       d="m 56.431986,139.47273 -1.25355,1.35383 1.30369,2.23131 h -1.12818 l -0.85241,-1.52932 -0.37565,0.40113 v 1.12819 h -0.90255 v -4.86374 h 0.90255 v 2.63244 l 1.15326,-1.35383 z"
       id="path5853" />
    <path
       style="clip-rule:evenodd;fill-rule:evenodd;stroke-width:0.41784844"
       d="m 73.003866,204.18075 2.4068,2.75821 -2.4068,2.7578 h -3.63529 l 2.38174,-2.7578 -2.38174,-2.75821 z"
       id="path5851" />
    <path
       style="clip-rule:evenodd;fill-rule:evenodd;stroke-width:0.41784844"
       d="m 63.777766,204.18075 2.40681,2.75821 -2.40681,2.7578 h -3.63529 l 2.40681,-2.7578 -2.40681,-2.75821 z"
       id="path5845" />
    <path
       style="clip-rule:evenodd;fill-rule:evenodd;stroke-width:0.41784844"
       d="m 64.504816,196.98539 -0.82733,0.90256 h 1.00283 v 0.52649 h -1.73031 v -0.55156 l 1.07804,-1.2034 0.0756,-0.1505 v -0.17551 l -0.10028,-0.12539 -0.17549,-0.0752 -0.15035,0.0251 -0.15003,0.12539 -0.0501,0.1505 h -0.55156 l 0.0251,-0.25071 0.12571,-0.2507 0.20014,-0.20057 0.25114,-0.1254 0.27536,-0.0502 0.27577,0.0502 0.22565,0.1254 0.20056,0.1755 0.1254,0.25071 0.0501,0.27577 -0.0254,0.27579 -0.12539,0.25071 z"
       id="path5843" />
    <path
       style="clip-rule:evenodd;fill-rule:evenodd;stroke-width:0.41784844"
       d="m 59.189786,204.18075 2.38174,2.75821 -2.38174,2.7578 h -3.66036 l 2.40681,-2.7578 -2.40681,-2.75821 z"
       id="path5841" />
    <path
       style="clip-rule:evenodd;fill-rule:evenodd;stroke-width:0.41784844"
       d="m 62.298576,198.41444 h -0.50142 v -2.00567 l -0.22563,0.15051 -0.22564,0.10028 -0.25071,0.0501 v -0.42621 l 0.25071,-0.0752 0.22564,-0.17549 0.17549,-0.20057 0.0756,-0.27579 h 0.47635 v 2.85809 z"
       id="path5839" />
    <path
       style="clip-rule:evenodd;fill-rule:evenodd;stroke-width:0.41784844"
       d="m 60.418266,195.05494 h -2.50709 l 0.70198,-4.71333 h 2.5071 z"
       id="path5833" />
    <path
       style="clip-rule:evenodd;fill-rule:evenodd;stroke-width:0.41784844"
       d="m 77.792396,195.05494 h -10.27948 l -0.1254,-0.0251 h -0.15003 l -0.12571,-0.0251 c -0.21686,0.0234 -0.71995,-0.13503 -0.95228,-0.20057 -0.54696,-0.15334 -1.2761,-0.52065 -1.65468,-0.95269 l 3.03359,-3.78571 h 8.74933 z"
       id="path5829" />
    <path
       style="clip-rule:evenodd;fill-rule:evenodd;stroke-width:0.41784844"
       d="m 68.390816,204.18075 2.40681,2.75821 -2.40681,2.7578 h -3.63529 l 2.40681,-2.7578 -2.40681,-2.75821 z"
       id="path5827" />
    <path
       style="clip-rule:evenodd;fill-rule:evenodd;stroke-width:0.41784844"
       d="m 49.963686,204.18075 2.40724,2.75821 -2.40724,2.7578 h -3.63486 l 2.38132,-2.7578 -2.38132,-2.75821 z"
       id="path5825" />
    <path
       style="clip-rule:evenodd;fill-rule:evenodd;stroke-width:1.57926965"
       d="M 56.628906 265.69727 C 53.617265 265.88046 53.442237 268.43189 53.501953 270.9082 C 53.678797 273.60399 53.398805 275.33425 56.345703 276.11914 C 58.125596 276.14911 59.851661 275.43457 60.041016 273.4668 C 60.287327 270.60675 61.028768 265.39226 56.628906 265.69727 z M 56.740234 267.56641 C 57.045227 267.55396 57.370439 267.63151 57.671875 267.78125 L 57.955078 268.06445 L 58.144531 268.44336 L 58.240234 270.9082 L 58.144531 273.27734 L 57.861328 273.8457 L 57.386719 274.03516 L 56.912109 274.13086 L 56.533203 274.13086 L 56.15625 274.03516 L 55.777344 273.65625 L 55.587891 273.27734 L 55.492188 270.9082 L 55.587891 268.44531 L 55.585938 268.44336 C 55.778434 267.85493 56.231913 267.58715 56.740234 267.56641 z "
       transform="matrix(0.26458333,0,0,0.26458333,24.575937,125.35773)"
       id="path5817" />
    <path
       style="clip-rule:evenodd;fill-rule:evenodd;stroke-width:0.41784844"
       d="m 53.398416,195.05494 h -10.2795 l -0.15003,-0.0251 h -0.1254 l -0.15034,-0.0251 c -0.18595,0.0226 -0.7304,-0.13739 -0.92762,-0.20057 -0.52858,-0.14118 -1.30871,-0.52357 -1.65468,-0.95269 l 3.03357,-3.78571 h 8.74933 z"
       id="path5811" />
    <path
       style="clip-rule:evenodd;fill-rule:evenodd;stroke-width:0.41784844"
       d="m 45.350646,204.18075 2.4068,2.75821 -2.4068,2.7578 h -3.63528 l 2.40681,-2.7578 -2.40681,-2.75821 z"
       id="path5809" />
    <path
       style="clip-rule:evenodd;fill-rule:evenodd;stroke-width:0.41784844"
       d="m 54.576736,204.18075 2.40723,2.75821 -2.40723,2.7578 h -3.63486 l 2.38132,-2.7578 -2.38132,-2.75821 z"
       id="path5807" />
    <path
       style="clip-rule:evenodd;fill-rule:evenodd;stroke-width:0.41784844"
       d="m 67.112186,189.18835 -3.20907,3.81078 c -0.62176,-0.83236 -0.77427,-1.57363 -0.85241,-2.58231 -0.0348,-3.66411 0.85827,-7.57895 1.02791,-11.08134 l 2.43187,-2.7578 2.30653,2.45695 z"
       id="path5805" />
    <path
       style="clip-rule:evenodd;fill-rule:evenodd;stroke-width:0.41784844"
       d="m 58.588086,177.78108 -1.78003,11.80841 -0.0502,0.25071 -0.0254,0.1505 -0.0251,0.12539 c -0.0731,0.22145 -0.11371,0.4521 -0.17549,0.67691 -0.20475,0.5478 -0.2833,0.85492 -0.55156,1.40397 -0.41827,0.85701 -1.01245,1.72237 -1.67976,2.40681 l -1.65468,-5.28995 1.52891,-10.25401 2.85851,-3.00851 z"
       id="path5803" />
    <path
       style="clip-rule:evenodd;fill-rule:evenodd;stroke-width:0.41784844"
       d="m 42.718206,189.18835 -3.20908,3.81078 c -0.58666,-0.73375 -0.82902,-1.66054 -0.85241,-2.58231 -0.0597,-3.69168 0.90966,-7.45861 1.0279,-11.08134 l 2.43189,-2.7578 2.30652,2.45695 z"
       id="path5801" />
    <path
       style="clip-rule:evenodd;fill-rule:evenodd;stroke-width:0.41784844"
       d="m 81.452746,176.05118 1.52934,1.7299 -1.78005,11.80841 -0.0502,0.25071 -0.0254,0.1505 -0.0251,0.12539 c -0.0196,0.18803 -0.1483,0.47843 -0.17551,0.67691 -0.15461,0.49014 -0.32383,0.94183 -0.55156,1.40397 -0.40906,0.86955 -0.99865,1.72864 -1.67974,2.40681 l -1.65468,-5.28995 1.5544,-10.25401 z"
       id="path5799" />
    <path
       style="clip-rule:evenodd;fill-rule:evenodd;stroke-width:0.41784844"
       d="m 77.616906,204.18075 2.38173,2.75821 -2.38173,2.7578 h -3.66035 l 2.40681,-2.7578 -2.40681,-2.75821 z"
       id="path5797" />
    <path
       style="clip-rule:evenodd;fill-rule:evenodd;stroke-width:0.41784844"
       d="m 82.229956,204.18075 2.38173,2.75821 -2.38173,2.7578 h -3.66035 l 2.4068,-2.7578 -2.4068,-2.75821 z"
       id="path5795" />
    <path
       style="clip-rule:evenodd;fill-rule:evenodd;stroke-width:0.41784844"
       d="m 79.447076,156.42067 c 0.71536,-0.007 1.4746,0.11574 2.1561,0.32592 0.34096,0.13161 0.70198,0.24068 1.00242,0.45127 l 0.25112,0.15043 0.10029,0.0752 0.0998,0.10028 0.12539,0.0752 0.10029,0.10029 v 0.0251 l -3.25922,3.63528 h -8.62439 l -1.32918,-4.93897 z"
       id="path5791" />
    <path
       style="clip-rule:evenodd;fill-rule:evenodd;stroke-width:0.41784844"
       d="m 78.193536,178.13208 h -9.07567 l -1.93046,-2.10596 2.63244,-2.83302 h 8.82496 l 2.08047,2.20624 z"
       id="path5789" />
    <path
       style="clip-rule:evenodd;fill-rule:evenodd;stroke-width:0.41784844"
       d="m 85.113106,161.18414 v 0.15042 l -1.22806,10.98106 -2.48201,2.65752 -2.18118,-2.30653 1.32877,-10.50471 3.50992,-3.83585 c 0.70324,0.75673 1.1637,1.81514 1.05256,2.85809 z"
       id="path5787" />
    <path
       style="clip-rule:evenodd;fill-rule:evenodd;stroke-width:0.41784844"
       d="m 131.79514,177.78108 -1.80511,11.80841 v 0.12539 l -0.0251,0.1254 -0.0251,0.15034 -0.0502,0.12539 c -0.033,0.23148 -0.10202,0.45712 -0.17549,0.67691 -0.11402,0.39487 -0.36061,1.04128 -0.55199,1.40397 -0.16337,0.43122 -0.48595,0.92304 -0.7517,1.30369 -0.1366,0.18553 -0.26073,0.38817 -0.42621,0.55156 l -0.0756,0.10028 -0.0998,0.1254 -0.10076,0.10028 -0.0752,0.10028 -0.0998,0.10029 -0.0501,0.0251 -1.6296,-5.28997 1.52932,-10.25399 2.85767,-3.00851 z"
       id="path5783" />
    <path
       style="clip-rule:evenodd;fill-rule:evenodd;stroke-width:0.41784844"
       d="m 128.2848,204.18075 2.4068,2.75821 -2.4068,2.7578 h -3.63487 l 2.40639,-2.7578 -2.40639,-2.75821 z"
       id="path5781" />
    <path
       style="clip-rule:evenodd;fill-rule:evenodd;stroke-width:0.41784844"
       d="m 128.2347,156.42067 c 1.3158,0.003 2.8982,0.34723 3.86092,1.30368 l -3.28429,3.63528 h -8.62397 l -1.32876,-4.93896 z"
       id="path5779" />
    <path
       style="clip-rule:evenodd;fill-rule:evenodd;stroke-width:0.41784844"
       d="m 129.51331,175.39934 -2.53215,2.73274 h -9.05018 l -1.95553,-2.10596 2.63244,-2.83302 h 8.85003 z"
       id="path5777" />
    <path
       style="clip-rule:evenodd;fill-rule:evenodd;stroke-width:0.41784844"
       d="m 133.92579,161.18414 -0.0251,0.15042 -1.22848,10.98106 -2.48201,2.65752 -2.15569,-2.30653 1.32877,-10.50471 3.48484,-3.83585 c 0.72581,0.69572 1.14575,1.85483 1.07764,2.85809 z"
       id="path5775" />
    <path
       style="clip-rule:evenodd;fill-rule:evenodd;stroke-width:0.41784844"
       d="m 122.41866,135.43632 1.30369,-1.45411 h 4.41248 l 1.05257,1.15326 -1.27863,1.3789 h -4.53741 z"
       id="path5773" />
    <path
       style="clip-rule:evenodd;fill-rule:evenodd;stroke-width:0.41784844"
       d="m 128.61119,125.35781 c 0.58749,0 1.45327,0.2294 1.85524,0.67692 l -1.63002,1.88032 h -4.3122 l -0.67692,-2.55724 z"
       id="path5771" />
    <path
       style="clip-rule:evenodd;fill-rule:evenodd;stroke-width:0.41784844"
       d="m 131.39364,127.73955 -0.0251,0.15042 -0.6017,5.64096 -1.25355,1.3789 -1.07763,-1.2034 0.65184,-5.39025 1.75456,-1.9806 c 0.35475,0.34472 0.53734,0.91718 0.55156,1.40397 z"
       id="path5769" />
    <path
       style="clip-rule:evenodd;fill-rule:evenodd;stroke-width:0.41784844"
       d="m 129.38838,142.55645 c -0.0706,0.42287 -0.22939,0.92387 -0.42663,1.30369 -0.11828,0.19096 -0.20724,0.40155 -0.35056,0.57663 l -0.0756,0.12536 -0.0749,0.10029 -0.10028,0.12536 -0.0756,0.10028 -0.10028,0.10029 h -0.0246 l -0.82735,-2.70766 0.77721,-5.28996 1.42862,-1.52933 0.77719,0.87749 -0.90212,6.06715 z"
       id="path5767" />
    <path
       style="clip-rule:evenodd;fill-rule:evenodd;stroke-width:0.41784844"
       d="m 26.973756,179.78676 -2.20624,6.16744 3.43513,-1.12818 -0.97818,4.16177 -1.07806,-1.10312 1.30369,2.58229 2.65751,-2.03073 -1.67974,0.62676 1.47877,-5.44038 -3.53501,0.82733 2.73274,-5.0894 z"
       id="path5751" />
    <path
       style="clip-rule:evenodd;fill-rule:evenodd;stroke-width:0.41784844"
       d="m 30.759456,206.86333 h -1.25355 v -2.48201 h -2.4816 v -1.25354 h 2.4816 v -2.48203 h 1.25355 v 2.48203 h 2.48203 v 1.25354 h -2.48203 z"
       id="path5749" />
    <path
       style="clip-rule:evenodd;fill-rule:evenodd;stroke-width:0.41784844"
       d="m 33.241486,208.44281 v 1.25354 h -6.21759 v -1.25354 z"
       id="path5747" />
    <path
       style="clip-rule:evenodd;fill-rule:evenodd;stroke-width:0.41784844"
       d="m 35.322356,195.02986 -0.15034,0.0251 h -5.16461 l -0.12539,-0.0251 -0.1254,-0.0502 -0.10028,-0.10028 -0.0502,-0.12539 -0.0251,-0.1254 v -0.0752 l 0.0501,-0.1254 2.58229,-4.96403 0.0251,-0.0502 0.10028,-0.10029 c 0.22479,-0.13787 0.5152,-0.0802 0.65225,0.15035 l 2.58231,4.96404 0.0251,0.0502 0.0254,0.1505 -0.0254,0.1254 -0.0752,0.10028 -0.10028,0.10028 z"
       id="path5745" />
    <path
       style="clip-rule:evenodd;fill-rule:evenodd;stroke-width:0.41784844"
       d="m 32.840346,176.90359 h -8.07283 l 1.57946,-3.13385 h 8.04777 z"
       id="path5739" />
    <path
       style="clip-rule:evenodd;fill-rule:evenodd;stroke-width:1.57926965"
       d="M 8.4941406 43.587891 L 8.4941406 51.642578 L 0.53515625 51.642578 L 0.53515625 54.484375 L 8.4941406 54.484375 L 8.4941406 62.539062 L 21.855469 54.484375 L 21.855469 62.539062 L 24.222656 62.539062 L 24.222656 54.484375 L 32.183594 54.484375 L 32.183594 51.642578 L 24.222656 51.642578 L 24.222656 43.587891 L 21.855469 43.587891 L 21.855469 51.642578 L 8.4941406 43.587891 z "
       transform="matrix(0.26458333,0,0,0.26458333,24.575937,125.35773)"
       id="path5387" />
  </g>
</svg>
