<svg width="152.92mm" height="84.351mm" version="1.1" viewBox="0 0 152.92331 84.351059" xmlns="http://www.w3.org/2000/svg">
 <g transform="translate(-24.576 -125.36)">
  <path transform="matrix(.26458 0 0 .26458 24.576 125.36)" d="m55.02 279.25v14.404h3.5996v-14.404h-3.5996zm87.082 0v14.404h3.5996v-14.404h-3.5996zm87.08 0v14.404h3.5996v-14.404h-3.5996zm87.08 0v14.404h3.6016v-14.404h-3.6016zm87.082 0v14.404h3.5996v-14.404h-3.5996zm87.08 0v14.404h3.6016v-14.404h-3.6016zm-417.97 4.5488v9.8555h3.5996v-9.8555h-3.5996zm17.434 0v9.8555h3.6016v-9.8555h-3.6016zm17.342 0v9.8555h3.6953v-9.8555h-3.6953zm17.434 0v9.8555h3.6016v-9.8555h-3.6016zm34.871 0v9.8555h3.5996v-9.8555h-3.5996zm17.34 0v9.8555h3.6953v-9.8555h-3.6953zm17.436 0v9.8555h3.6953v-9.8555h-3.6953zm17.436 0v9.8555h3.5996v-9.8555h-3.5996zm34.869 0v9.8555h3.6016v-9.8555h-3.6016zm17.342 0v9.8555h3.6953v-9.8555h-3.6953zm17.436 0v9.8555h3.5996v-9.8555h-3.5996zm17.434 0v9.8555h3.6016v-9.8555h-3.6016zm34.871 0v9.8555h3.6016v-9.8555h-3.6016zm17.34 0v9.8555h3.6953v-9.8555h-3.6953zm17.434 0v9.8555h3.6016v-9.8555h-3.6016zm17.436 0v9.8555h3.6016v-9.8555h-3.6016zm34.775 0v9.8555h3.6953v-9.8555h-3.6953zm17.438 0v9.8555h3.5996v-9.8555h-3.5996zm17.434 0v9.8555h3.5996v-9.8555h-3.5996zm17.436 0v9.8555h3.6016v-9.8555h-3.6016z" style="clip-rule:evenodd;fill-rule:evenodd;stroke-width:1.5793"/>
 </g>
</svg>
